<?xml version="1.0" encoding="us-ascii" standalone="no"?><svg xmlns="http://www.w3.org/2000/svg" xmlns:xlink="http://www.w3.org/1999/xlink" contentStyleType="text/css" height="1495px" preserveAspectRatio="none" style="width:1516px;height:1495px;background:#FFFFFF;" version="1.1" viewBox="0 0 1516 1495" width="1516px" zoomAndPan="magnify"><defs/><g><!--cluster tsplot--><g id="cluster_tsplot"><path d="M8.5,6 L57.5,6 A3.75,3.75 0 0 1 60,8.5 L67,28.8 L1506.5,28.8 A2.5,2.5 0 0 1 1509,31.3 L1509,1485.7 A2.5,2.5 0 0 1 1506.5,1488.2 L8.5,1488.2 A2.5,2.5 0 0 1 6,1485.7 L6,8.5 A2.5,2.5 0 0 1 8.5,6 " fill="none" style="stroke:#000000;stroke-width:1.5;"/><line style="stroke:#000000;stroke-width:1.5;" x1="6" x2="67" y1="28.8" y2="28.8"/><text fill="#000000" font-family="Operator Mono Lig" font-size="14" font-weight="bold" lengthAdjust="spacing" textLength="48" x="10" y="21.44">tsplot</text></g><!--class ProjectFile--><g id="elem_ProjectFile"><rect codeLine="2" fill="#F1F1F1" height="98.4" id="ProjectFile" rx="2.5" ry="2.5" style="stroke:#181818;stroke-width:0.5;" width="194" x="1121" y="182.6"/><ellipse cx="1169.75" cy="198.6" fill="#B4A7E5" rx="11" ry="11" style="stroke:#181818;stroke-width:1.0;"/><path d="M1165.6777,194.3651 L1165.6777,192.2069 L1173.0571,192.2069 L1173.0571,194.3651 L1170.5918,194.3651 L1170.5918,202.4418 L1173.0571,202.4418 L1173.0571,204.6 L1165.6777,204.6 L1165.6777,202.4418 L1168.1431,202.4418 L1168.1431,194.3651 Z " fill="#000000"/><text fill="#000000" font-family="Operator Mono Lig" font-size="14" font-style="italic" lengthAdjust="spacing" textLength="88" x="1190.25" y="203.64">ProjectFile</text><line style="stroke:#181818;stroke-width:0.5;" x1="1122" x2="1314" y1="214.6" y2="214.6"/><ellipse cx="1132" cy="228.5" fill="none" rx="3" ry="3" style="stroke:#038048;stroke-width:1.0;"/><text fill="#000000" font-family="Operator Mono Lig" font-size="14" lengthAdjust="spacing" textLength="168" x="1141" y="232.04">source: ts.SourceFile</text><ellipse cx="1132" cy="245.3" fill="none" rx="3" ry="3" style="stroke:#038048;stroke-width:1.0;"/><text fill="#000000" font-family="Operator Mono Lig" font-size="14" lengthAdjust="spacing" textLength="136" x="1141" y="248.84">imports: Import[]</text><ellipse cx="1132" cy="262.1" fill="none" rx="3" ry="3" style="stroke:#038048;stroke-width:1.0;"/><text fill="#000000" font-family="Operator Mono Lig" font-size="14" lengthAdjust="spacing" textLength="136" x="1141" y="265.64">members: Member[]</text><line style="stroke:#181818;stroke-width:0.5;" x1="1122" x2="1314" y1="273" y2="273"/></g><!--class ProjectViewOptionsWithFiles--><g id="elem_ProjectViewOptionsWithFiles"><rect codeLine="7" fill="#F1F1F1" height="81.6" id="ProjectViewOptionsWithFiles" rx="2.5" ry="2.5" style="stroke:#181818;stroke-width:0.5;" width="306" x="883" y="41"/><ellipse cx="924.1" cy="57" fill="#B4A7E5" rx="11" ry="11" style="stroke:#181818;stroke-width:1.0;"/><path d="M920.0277,52.7651 L920.0277,50.6069 L927.4071,50.6069 L927.4071,52.7651 L924.9418,52.7651 L924.9418,60.8418 L927.4071,60.8418 L927.4071,63 L920.0277,63 L920.0277,60.8418 L922.4931,60.8418 L922.4931,52.7651 Z " fill="#000000"/><text fill="#000000" font-family="Operator Mono Lig" font-size="14" font-style="italic" lengthAdjust="spacing" textLength="216" x="943.9" y="62.04">ProjectViewOptionsWithFiles</text><line style="stroke:#181818;stroke-width:0.5;" x1="884" x2="1188" y1="73" y2="73"/><ellipse cx="894" cy="86.9" fill="none" rx="3" ry="3" style="stroke:#038048;stroke-width:1.0;"/><text fill="#000000" font-family="Operator Mono Lig" font-size="14" lengthAdjust="spacing" textLength="152" x="903" y="90.44">fileNames: string[]</text><ellipse cx="894" cy="103.7" fill="none" rx="3" ry="3" style="stroke:#038048;stroke-width:1.0;"/><text fill="#000000" font-family="Operator Mono Lig" font-size="14" lengthAdjust="spacing" textLength="280" x="903" y="107.24">compilerOptions: ts.CompilerOptions</text><line style="stroke:#181818;stroke-width:0.5;" x1="884" x2="1188" y1="114.6" y2="114.6"/></g><!--class ProjectViewOptionsWithTsConfigPath--><g id="elem_ProjectViewOptionsWithTsConfigPath"><rect codeLine="11" fill="#F1F1F1" height="64.8" id="ProjectViewOptionsWithTsConfigPath" rx="2.5" ry="2.5" style="stroke:#181818;stroke-width:0.5;" width="304" x="544" y="49.4"/><ellipse cx="559" cy="65.4" fill="#B4A7E5" rx="11" ry="11" style="stroke:#181818;stroke-width:1.0;"/><path d="M554.9277,61.1651 L554.9277,59.0069 L562.3071,59.0069 L562.3071,61.1651 L559.8418,61.1651 L559.8418,69.2418 L562.3071,69.2418 L562.3071,71.4 L554.9277,71.4 L554.9277,69.2418 L557.3931,69.2418 L557.3931,61.1651 Z " fill="#000000"/><text fill="#000000" font-family="Operator Mono Lig" font-size="14" font-style="italic" lengthAdjust="spacing" textLength="272" x="573" y="70.44">ProjectViewOptionsWithTsConfigPath</text><line style="stroke:#181818;stroke-width:0.5;" x1="545" x2="847" y1="81.4" y2="81.4"/><ellipse cx="555" cy="95.3" fill="none" rx="3" ry="3" style="stroke:#038048;stroke-width:1.0;"/><text fill="#000000" font-family="Operator Mono Lig" font-size="14" lengthAdjust="spacing" textLength="160" x="564" y="98.84">tsConfigPath: string</text><line style="stroke:#181818;stroke-width:0.5;" x1="545" x2="847" y1="106.2" y2="106.2"/></g><!--class ProjectViewOptionsWithProgram--><g id="elem_ProjectViewOptionsWithProgram"><rect codeLine="14" fill="#F1F1F1" height="64.8" id="ProjectViewOptionsWithProgram" rx="2.5" ry="2.5" style="stroke:#181818;stroke-width:0.5;" width="264" x="245" y="49.4"/><ellipse cx="260" cy="65.4" fill="#B4A7E5" rx="11" ry="11" style="stroke:#181818;stroke-width:1.0;"/><path d="M255.9277,61.1651 L255.9277,59.0069 L263.3071,59.0069 L263.3071,61.1651 L260.8418,61.1651 L260.8418,69.2418 L263.3071,69.2418 L263.3071,71.4 L255.9277,71.4 L255.9277,69.2418 L258.3931,69.2418 L258.3931,61.1651 Z " fill="#000000"/><text fill="#000000" font-family="Operator Mono Lig" font-size="14" font-style="italic" lengthAdjust="spacing" textLength="232" x="274" y="70.44">ProjectViewOptionsWithProgram</text><line style="stroke:#181818;stroke-width:0.5;" x1="246" x2="508" y1="81.4" y2="81.4"/><ellipse cx="256" cy="95.3" fill="none" rx="3" ry="3" style="stroke:#038048;stroke-width:1.0;"/><text fill="#000000" font-family="Operator Mono Lig" font-size="14" lengthAdjust="spacing" textLength="152" x="265" y="98.84">program: ts.Program</text><line style="stroke:#181818;stroke-width:0.5;" x1="246" x2="508" y1="106.2" y2="106.2"/></g><!--class ProjectViewOptions--><g id="elem_ProjectViewOptions"><rect codeLine="17" fill="#F1F1F1" height="77.6" id="ProjectViewOptions" rx="2.5" ry="2.5" style="stroke:#181818;stroke-width:0.5;" width="780" x="306" y="193"/><ellipse cx="619.75" cy="209" fill="#B4A7E5" rx="11" ry="11" style="stroke:#181818;stroke-width:1.0;"/><path d="M615.6777,204.7651 L615.6777,202.6069 L623.0571,202.6069 L623.0571,204.7651 L620.5918,204.7651 L620.5918,212.8418 L623.0571,212.8418 L623.0571,215 L615.6777,215 L615.6777,212.8418 L618.1431,212.8418 L618.1431,204.7651 Z " fill="#000000"/><text fill="#000000" font-family="Operator Mono Lig" font-size="14" font-style="italic" lengthAdjust="spacing" textLength="144" x="640.25" y="214.04">ProjectViewOptions</text><line style="stroke:#181818;stroke-width:0.5;" x1="307" x2="1085" y1="225" y2="225"/><text fill="#000000" font-family="Operator Mono Lig" font-size="14" lengthAdjust="spacing" textLength="768" x="312" y="263.24">ProjectViewOptionsWithFiles | ProjectViewOptionsWithTsConfigPath | ProjectViewOptionsWithProgram</text><line style="stroke:#181818;stroke-width:0.5;" x1="307" x2="680" y1="241.4" y2="241.4"/><text fill="#000000" font-family="Operator Mono Lig" font-size="14" lengthAdjust="spacing" textLength="32" x="680" y="245.94">Type</text><line style="stroke:#181818;stroke-width:0.5;" x1="712" x2="1085" y1="241.4" y2="241.4"/></g><!--class ProjectView--><g id="elem_ProjectView"><rect codeLine="21" fill="#F1F1F1" height="451.2" id="ProjectView" rx="2.5" ry="2.5" style="stroke:#181818;stroke-width:0.5;" width="906" x="587" y="341"/><ellipse cx="991.75" cy="357" fill="#ADD1B2" rx="11" ry="11" style="stroke:#181818;stroke-width:1.0;"/><path d="M994.7231,362.6431 Q994.1421,362.9419 993.5029,363.0913 Q992.8638,363.2407 992.1582,363.2407 Q989.6514,363.2407 988.3315,361.5889 Q987.0117,359.937 987.0117,356.8159 Q987.0117,353.6865 988.3315,352.0347 Q989.6514,350.3828 992.1582,350.3828 Q992.8638,350.3828 993.5112,350.5322 Q994.1587,350.6816 994.7231,350.9805 L994.7231,353.7031 Q994.0923,353.1221 993.4988,352.8523 Q992.9053,352.5825 992.2744,352.5825 Q990.9297,352.5825 990.2449,353.6492 Q989.5601,354.7158 989.5601,356.8159 Q989.5601,358.9077 990.2449,359.9744 Q990.9297,361.041 992.2744,361.041 Q992.9053,361.041 993.4988,360.7712 Q994.0923,360.5015 994.7231,359.9204 Z " fill="#000000"/><text fill="#000000" font-family="Operator Mono Lig" font-size="14" lengthAdjust="spacing" textLength="88" x="1012.25" y="362.04">ProjectView</text><line style="stroke:#181818;stroke-width:0.5;" x1="588" x2="1492" y1="373" y2="373"/><rect fill="none" height="6" style="stroke:#C82930;stroke-width:1.0;" width="6" x="595" y="383.9"/><text fill="#000000" font-family="Operator Mono Lig" font-size="14" lengthAdjust="spacing" textLength="224" x="607" y="390.44">_typeChecker: ts.TypeChecker</text><rect fill="none" height="6" style="stroke:#C82930;stroke-width:1.0;" width="6" x="595" y="400.7"/><text fill="#000000" font-family="Operator Mono Lig" font-size="14" lengthAdjust="spacing" textLength="160" x="607" y="407.24">_program: ts.Program</text><rect fill="none" height="6" style="stroke:#C82930;stroke-width:1.0;" width="6" x="595" y="417.5"/><text fill="#000000" font-family="Operator Mono Lig" font-size="14" lengthAdjust="spacing" textLength="192" x="607" y="424.04">_namespaces: Namespace[]</text><rect fill="none" height="6" style="stroke:#C82930;stroke-width:1.0;" width="6" x="595" y="434.3"/><text fill="#000000" font-family="Operator Mono Lig" font-size="14" lengthAdjust="spacing" textLength="168" x="607" y="440.84">_files: ProjectFile[]</text><rect fill="none" height="6" style="stroke:#C82930;stroke-width:1.0;" width="6" x="595" y="451.1"/><text fill="#000000" font-family="Operator Mono Lig" font-size="14" lengthAdjust="spacing" textLength="144" x="607" y="457.64">_members: Member[]</text><rect fill="none" height="6" style="stroke:#C82930;stroke-width:1.0;" width="6" x="595" y="467.9"/><text fill="#000000" font-family="Operator Mono Lig" font-size="14" lengthAdjust="spacing" textLength="144" x="607" y="474.44">_orphans: Member[]</text><ellipse cx="598" cy="487.7" fill="none" rx="3" ry="3" style="stroke:#038048;stroke-width:1.0;"/><text fill="#000000" font-family="Operator Mono Lig" font-size="14" lengthAdjust="spacing" textLength="200" x="607" y="491.24">filter: FilterSet&lt;Member&gt;</text><ellipse cx="598" cy="504.5" fill="none" rx="3" ry="3" style="stroke:#038048;stroke-width:1.0;"/><text fill="#000000" font-family="Operator Mono Lig" font-size="14" lengthAdjust="spacing" textLength="160" x="607" y="508.04">files: ProjectFile[]</text><ellipse cx="598" cy="521.3" fill="none" rx="3" ry="3" style="stroke:#038048;stroke-width:1.0;"/><text fill="#000000" font-family="Operator Mono Lig" font-size="14" lengthAdjust="spacing" textLength="136" x="607" y="524.84">members: Member[]</text><ellipse cx="598" cy="538.1" fill="none" rx="3" ry="3" style="stroke:#038048;stroke-width:1.0;"/><text fill="#000000" font-family="Operator Mono Lig" font-size="14" lengthAdjust="spacing" textLength="136" x="607" y="541.64">orphans: Member[]</text><ellipse cx="598" cy="554.9" fill="none" rx="3" ry="3" style="stroke:#038048;stroke-width:1.0;"/><text fill="#000000" font-family="Operator Mono Lig" font-size="14" lengthAdjust="spacing" textLength="184" x="607" y="558.44">namespaces: Namespace[]</text><line style="stroke:#181818;stroke-width:0.5;" x1="588" x2="1492" y1="565.8" y2="565.8"/><ellipse cx="598" cy="579.7" fill="#84BE84" rx="3" ry="3" style="stroke:#038048;stroke-width:1.0;"/><text fill="#000000" font-family="Operator Mono Lig" font-size="14" lengthAdjust="spacing" textLength="784" x="607" y="583.24">getDependencyMembers(member: Member, options?: { depth?: number | undefined; }): Promise&lt;Member[]&gt;</text><ellipse cx="598" cy="596.5" fill="#84BE84" rx="3" ry="3" style="stroke:#038048;stroke-width:1.0;"/><text fill="#000000" font-family="Operator Mono Lig" font-size="14" lengthAdjust="spacing" textLength="776" x="607" y="600.04">getDependentMembers(member: Member, options?: { depth?: number | undefined; }): Promise&lt;Member[]&gt;</text><ellipse cx="598" cy="613.3" fill="#84BE84" rx="3" ry="3" style="stroke:#038048;stroke-width:1.0;"/><text fill="#000000" font-family="Operator Mono Lig" font-size="14" lengthAdjust="spacing" textLength="352" x="607" y="616.84">getMembersOfKind(kind: MemberKind): Member[]</text><ellipse cx="598" cy="630.1" fill="#84BE84" rx="3" ry="3" style="stroke:#038048;stroke-width:1.0;"/><text fill="#000000" font-family="Operator Mono Lig" font-size="14" lengthAdjust="spacing" textLength="880" x="607" y="633.64">getMemberByName(name: string, options?: { sourceFileName?: string | RegExp | undefined; }): Member | undefined</text><ellipse cx="598" cy="646.9" fill="#84BE84" rx="3" ry="3" style="stroke:#038048;stroke-width:1.0;"/><text fill="#000000" font-family="Operator Mono Lig" font-size="14" lengthAdjust="spacing" textLength="448" x="607" y="650.44">getFileOfMember(member: Member): ProjectFile | undefined</text><ellipse cx="598" cy="663.7" fill="#84BE84" rx="3" ry="3" style="stroke:#038048;stroke-width:1.0;"/><text fill="#000000" font-family="Operator Mono Lig" font-size="14" lengthAdjust="spacing" textLength="520" x="607" y="667.24">getFilesByPattern(...pattern: (string | RegExp)[]): ProjectFile[]</text><ellipse cx="598" cy="680.5" fill="#84BE84" rx="3" ry="3" style="stroke:#038048;stroke-width:1.0;"/><text fill="#000000" font-family="Operator Mono Lig" font-size="14" lengthAdjust="spacing" textLength="392" x="607" y="684.04">hasMember(memberOrName: string | Member): boolean</text><ellipse cx="598" cy="697.3" fill="#84BE84" rx="3" ry="3" style="stroke:#038048;stroke-width:1.0;"/><text fill="#000000" font-family="Operator Mono Lig" font-size="14" lengthAdjust="spacing" textLength="712" x="607" y="700.84">getExportedMembersOfFile(...filesOrPatterns: (string | RegExp | ProjectFile)[]): Member[]</text><ellipse cx="598" cy="714.1" fill="#84BE84" rx="3" ry="3" style="stroke:#038048;stroke-width:1.0;"/><text fill="#000000" font-family="Operator Mono Lig" font-size="14" lengthAdjust="spacing" textLength="192" x="607" y="717.64">getProgram(): ts.Program</text><rect fill="#F24D5C" height="6" style="stroke:#C82930;stroke-width:1.0;" width="6" x="595" y="727.9"/><text fill="#000000" font-family="Operator Mono Lig" font-size="14" lengthAdjust="spacing" textLength="520" x="607" y="734.44">_initProjectFilesAndMembers(filters?: SourceFileFilterFn[]): void</text><rect fill="#F24D5C" height="6" style="stroke:#C82930;stroke-width:1.0;" width="6" x="595" y="744.7"/><text fill="#000000" font-family="Operator Mono Lig" font-size="14" lengthAdjust="spacing" textLength="400" x="607" y="751.24">_initNamespacesAndOrphans(paths?: PathsLike): void</text><rect fill="#F24D5C" height="6" style="stroke:#C82930;stroke-width:1.0;" width="6" x="595" y="761.5"/><text fill="#000000" font-family="Operator Mono Lig" font-size="14" lengthAdjust="spacing" textLength="352" x="607" y="768.04">_getDirectDeps(member: Member): Dependency[]</text><rect fill="#F24D5C" height="6" style="stroke:#C82930;stroke-width:1.0;" width="6" x="595" y="778.3"/><text fill="#000000" font-family="Operator Mono Lig" font-size="14" lengthAdjust="spacing" textLength="304" x="607" y="784.84">_getUniqueName(member: Member): string</text></g><!--class ProjectGraphOptions--><g id="elem_ProjectGraphOptions"><rect codeLine="47" fill="#F1F1F1" height="81.6" id="ProjectGraphOptions" rx="2.5" ry="2.5" style="stroke:#181818;stroke-width:0.5;" width="386" x="166" y="525.8"/><ellipse cx="278.75" cy="541.8" fill="#B4A7E5" rx="11" ry="11" style="stroke:#181818;stroke-width:1.0;"/><path d="M274.6777,537.5651 L274.6777,535.4069 L282.0571,535.4069 L282.0571,537.5651 L279.5918,537.5651 L279.5918,545.6418 L282.0571,545.6418 L282.0571,547.8 L274.6777,547.8 L274.6777,545.6418 L277.1431,545.6418 L277.1431,537.5651 Z " fill="#000000"/><text fill="#000000" font-family="Operator Mono Lig" font-size="14" font-style="italic" lengthAdjust="spacing" textLength="152" x="299.25" y="546.84">ProjectGraphOptions</text><line style="stroke:#181818;stroke-width:0.5;" x1="167" x2="551" y1="557.8" y2="557.8"/><ellipse cx="177" cy="571.7" fill="none" rx="3" ry="3" style="stroke:#038048;stroke-width:1.0;"/><text fill="#000000" font-family="Operator Mono Lig" font-size="14" lengthAdjust="spacing" textLength="360" x="186" y="575.24">filter?: MemberFilterFn[] | FilterSet&lt;Member&gt;</text><ellipse cx="177" cy="588.5" fill="none" rx="3" ry="3" style="stroke:#038048;stroke-width:1.0;"/><text fill="#000000" font-family="Operator Mono Lig" font-size="14" lengthAdjust="spacing" textLength="136" x="186" y="592.04">members: Member[]</text><line style="stroke:#181818;stroke-width:0.5;" x1="167" x2="551" y1="599.4" y2="599.4"/></g><!--class ProjectGraph--><g id="elem_ProjectGraph"><rect codeLine="51" fill="#F1F1F1" height="148.8" id="ProjectGraph" rx="2.5" ry="2.5" style="stroke:#181818;stroke-width:0.5;" width="1218" x="22" y="852.2"/><ellipse cx="578.75" cy="868.2" fill="#ADD1B2" rx="11" ry="11" style="stroke:#181818;stroke-width:1.0;"/><path d="M581.7231,873.8431 Q581.1421,874.1419 580.5029,874.2913 Q579.8638,874.4407 579.1582,874.4407 Q576.6514,874.4407 575.3315,872.7889 Q574.0117,871.137 574.0117,868.0159 Q574.0117,864.8865 575.3315,863.2347 Q576.6514,861.5828 579.1582,861.5828 Q579.8638,861.5828 580.5112,861.7322 Q581.1587,861.8816 581.7231,862.1805 L581.7231,864.9031 Q581.0923,864.3221 580.4988,864.0523 Q579.9053,863.7825 579.2744,863.7825 Q577.9297,863.7825 577.2449,864.8492 Q576.5601,865.9158 576.5601,868.0159 Q576.5601,870.1077 577.2449,871.1744 Q577.9297,872.241 579.2744,872.241 Q579.9053,872.241 580.4988,871.9712 Q581.0923,871.7015 581.7231,871.1204 Z " fill="#000000"/><text fill="#000000" font-family="Operator Mono Lig" font-size="14" lengthAdjust="spacing" textLength="96" x="599.25" y="873.24">ProjectGraph</text><line style="stroke:#181818;stroke-width:0.5;" x1="23" x2="1239" y1="884.2" y2="884.2"/><rect fill="none" height="6" style="stroke:#C82930;stroke-width:1.0;" width="6" x="30" y="895.1"/><text fill="#000000" font-family="Operator Mono Lig" font-size="14" lengthAdjust="spacing" textLength="144" x="42" y="901.64">_members: Member[]</text><ellipse cx="33" cy="914.9" fill="none" rx="3" ry="3" style="stroke:#038048;stroke-width:1.0;"/><text fill="#000000" font-family="Operator Mono Lig" font-size="14" lengthAdjust="spacing" textLength="200" x="42" y="918.44">filter: FilterSet&lt;Member&gt;</text><ellipse cx="33" cy="931.7" fill="none" rx="3" ry="3" style="stroke:#038048;stroke-width:1.0;"/><text fill="#000000" font-family="Operator Mono Lig" font-size="14" lengthAdjust="spacing" textLength="136" x="42" y="935.24">members: Member[]</text><ellipse cx="33" cy="948.5" fill="none" rx="3" ry="3" style="stroke:#038048;stroke-width:1.0;"/><text fill="#000000" font-family="Operator Mono Lig" font-size="14" lengthAdjust="spacing" textLength="104" x="42" y="952.04">edges: Edge[]</text><line style="stroke:#181818;stroke-width:0.5;" x1="23" x2="1239" y1="959.4" y2="959.4"/><ellipse cx="33" cy="973.3" fill="#84BE84" rx="3" ry="3" style="stroke:#038048;stroke-width:1.0;"/><text fill="#000000" font-family="Operator Mono Lig" font-size="14" lengthAdjust="spacing" textLength="320" x="42" y="976.84">getEdgesOfMember(member: Member): Edge[]</text><ellipse cx="33" cy="990.1" fill="#84BE84" rx="3" ry="3" style="stroke:#038048;stroke-width:1.0;"/><text fill="#000000" font-family="Operator Mono Lig" font-size="14" lengthAdjust="spacing" text-decoration="underline" textLength="1192" x="42" y="993.64">fromView(view: ProjectView, options?: { keepFilter?: boolean | undefined; filter?: MemberFilterFn[] | FilterSet&lt;Member&gt; | undefined; }): ProjectGraph</text></g><!--class TemplateContext--><g id="elem_TemplateContext"><rect codeLine="59" fill="#F1F1F1" height="81.6" id="TemplateContext" rx="2.5" ry="2.5" style="stroke:#181818;stroke-width:0.5;" width="218" x="1275" y="885.8"/><ellipse cx="1319.75" cy="901.8" fill="#B4A7E5" rx="11" ry="11" style="stroke:#181818;stroke-width:1.0;"/><path d="M1315.6777,897.5651 L1315.6777,895.4069 L1323.0571,895.4069 L1323.0571,897.5651 L1320.5918,897.5651 L1320.5918,905.6418 L1323.0571,905.6418 L1323.0571,907.8 L1315.6777,907.8 L1315.6777,905.6418 L1318.1431,905.6418 L1318.1431,897.5651 Z " fill="#000000"/><text fill="#000000" font-family="Operator Mono Lig" font-size="14" font-style="italic" lengthAdjust="spacing" textLength="120" x="1340.25" y="906.84">TemplateContext</text><line style="stroke:#181818;stroke-width:0.5;" x1="1276" x2="1492" y1="917.8" y2="917.8"/><ellipse cx="1286" cy="931.7" fill="none" rx="3" ry="3" style="stroke:#038048;stroke-width:1.0;"/><text fill="#000000" font-family="Operator Mono Lig" font-size="14" lengthAdjust="spacing" textLength="192" x="1295" y="935.24">projectView: ProjectView</text><ellipse cx="1286" cy="948.5" fill="none" rx="3" ry="3" style="stroke:#038048;stroke-width:1.0;"/><text fill="#000000" font-family="Operator Mono Lig" font-size="14" lengthAdjust="spacing" textLength="152" x="1295" y="952.04">indentSize?: number</text><line style="stroke:#181818;stroke-width:0.5;" x1="1276" x2="1492" y1="959.4" y2="959.4"/></g><!--class TemplateFileRenderer--><g id="elem_TemplateFileRenderer"><rect codeLine="63" fill="#F1F1F1" height="98.4" id="TemplateFileRenderer" rx="2.5" ry="2.5" style="stroke:#181818;stroke-width:0.5;" width="192" x="1156" y="1061"/><ellipse cx="1171" cy="1077" fill="#B4A7E5" rx="11" ry="11" style="stroke:#181818;stroke-width:1.0;"/><path d="M1166.9277,1072.7651 L1166.9277,1070.6069 L1174.3071,1070.6069 L1174.3071,1072.7651 L1171.8418,1072.7651 L1171.8418,1080.8418 L1174.3071,1080.8418 L1174.3071,1083 L1166.9277,1083 L1166.9277,1080.8418 L1169.3931,1080.8418 L1169.3931,1072.7651 Z " fill="#000000"/><text fill="#000000" font-family="Operator Mono Lig" font-size="14" font-style="italic" lengthAdjust="spacing" textLength="160" x="1185" y="1082.04">TemplateFileRenderer</text><line style="stroke:#181818;stroke-width:0.5;" x1="1157" x2="1347" y1="1093" y2="1093"/><line style="stroke:#181818;stroke-width:0.5;" x1="1157" x2="1347" y1="1101" y2="1101"/><ellipse cx="1167" cy="1114.9" fill="#84BE84" rx="3" ry="3" style="stroke:#038048;stroke-width:1.0;"/><text fill="#000000" font-family="Operator Mono Lig" font-size="14" lengthAdjust="spacing" textLength="144" x="1176" y="1118.44">setBaseDir(): void</text><ellipse cx="1167" cy="1131.7" fill="#84BE84" rx="3" ry="3" style="stroke:#038048;stroke-width:1.0;"/><text fill="#000000" font-family="Operator Mono Lig" font-size="14" lengthAdjust="spacing" textLength="160" x="1176" y="1135.24">canRender(): boolean</text><ellipse cx="1167" cy="1148.5" fill="#84BE84" rx="3" ry="3" style="stroke:#038048;stroke-width:1.0;"/><text fill="#000000" font-family="Operator Mono Lig" font-size="14" lengthAdjust="spacing" textLength="128" x="1176" y="1152.04">render(): string</text></g><!--class render--><g id="elem_render"><rect codeLine="68" fill="#F1F1F1" height="77.6" id="render" rx="2.5" ry="2.5" style="stroke:#181818;stroke-width:0.5;" width="588" x="621" y="1394.6"/><ellipse cx="886.75" cy="1410.6" fill="#F1F1F1" rx="11" ry="11" style="stroke:#181818;stroke-width:1.0;"/><path d="M886.5435,1406.2655 L886.5435,1409.9013 L887.5479,1409.9013 Q888.7515,1409.9013 889.2371,1409.4945 Q889.7227,1409.0878 889.7227,1408.0834 Q889.7227,1407.079 889.2371,1406.6723 Q888.7515,1406.2655 887.5479,1406.2655 Z M884.0947,1404.2069 L887.4565,1404.2069 Q890.0215,1404.2069 891.1462,1405.12 Q892.271,1406.0331 892.271,1408.0834 Q892.271,1410.1337 891.1462,1411.0468 Q890.0215,1411.9599 887.4565,1411.9599 L886.5435,1411.9599 L886.5435,1416.6 L884.0947,1416.6 Z " fill="#000000"/><text fill="#000000" font-family="Operator Mono Lig" font-size="14" lengthAdjust="spacing" textLength="48" x="907.25" y="1415.64">render</text><line style="stroke:#181818;stroke-width:0.5;" x1="622" x2="1208" y1="1426.6" y2="1426.6"/><text fill="#000000" font-family="Operator Mono Lig" font-size="14" lengthAdjust="spacing" textLength="576" x="627" y="1464.84">(templateName: KnownTemplate | string, options: RenderOptions) =&gt; string</text><line style="stroke:#181818;stroke-width:0.5;" x1="622" x2="883" y1="1443" y2="1443"/><text fill="#000000" font-family="Operator Mono Lig" font-size="14" lengthAdjust="spacing" textLength="64" x="883" y="1447.54">Function</text><line style="stroke:#181818;stroke-width:0.5;" x1="947" x2="1208" y1="1443" y2="1443"/></g><!--class RenderOptions--><g id="elem_RenderOptions"><rect codeLine="72" fill="#F1F1F1" height="115.2" id="RenderOptions" rx="2.5" ry="2.5" style="stroke:#181818;stroke-width:0.5;" width="274" x="1115" y="1219.4"/><ellipse cx="1195.75" cy="1235.4" fill="#B4A7E5" rx="11" ry="11" style="stroke:#181818;stroke-width:1.0;"/><path d="M1191.6777,1231.1651 L1191.6777,1229.0069 L1199.0571,1229.0069 L1199.0571,1231.1651 L1196.5918,1231.1651 L1196.5918,1239.2418 L1199.0571,1239.2418 L1199.0571,1241.4 L1191.6777,1241.4 L1191.6777,1239.2418 L1194.1431,1239.2418 L1194.1431,1231.1651 Z " fill="#000000"/><text fill="#000000" font-family="Operator Mono Lig" font-size="14" font-style="italic" lengthAdjust="spacing" textLength="104" x="1216.25" y="1240.44">RenderOptions</text><line style="stroke:#181818;stroke-width:0.5;" x1="1116" x2="1388" y1="1251.4" y2="1251.4"/><ellipse cx="1126" cy="1265.3" fill="none" rx="3" ry="3" style="stroke:#038048;stroke-width:1.0;"/><text fill="#000000" font-family="Operator Mono Lig" font-size="14" lengthAdjust="spacing" textLength="112" x="1135" y="1268.84">target: string</text><ellipse cx="1126" cy="1282.1" fill="none" rx="3" ry="3" style="stroke:#038048;stroke-width:1.0;"/><text fill="#000000" font-family="Operator Mono Lig" font-size="14" lengthAdjust="spacing" textLength="192" x="1135" y="1285.64">context: TemplateContext</text><ellipse cx="1126" cy="1298.9" fill="none" rx="3" ry="3" style="stroke:#038048;stroke-width:1.0;"/><text fill="#000000" font-family="Operator Mono Lig" font-size="14" lengthAdjust="spacing" textLength="248" x="1135" y="1302.44">renderer?: TemplateFileRenderer</text><ellipse cx="1126" cy="1315.7" fill="none" rx="3" ry="3" style="stroke:#038048;stroke-width:1.0;"/><text fill="#000000" font-family="Operator Mono Lig" font-size="14" lengthAdjust="spacing" textLength="128" x="1135" y="1319.24">baseDir?: string</text><line style="stroke:#181818;stroke-width:0.5;" x1="1116" x2="1388" y1="1326.6" y2="1326.6"/></g><!--link ProjectViewOptionsWithFiles to ProjectViewOptions--><g id="link_ProjectViewOptionsWithFiles_ProjectViewOptions"><path codeLine="79" d="M943.54,123.05 C893.79,144.7 838.2717,168.876 789.2517,190.206 " fill="none" id="ProjectViewOptionsWithFiles-to-ProjectViewOptions" style="stroke:#181818;stroke-width:1.0;stroke-dasharray:7.0,7.0;"/><polygon fill="#181818" points="783.75,192.6,793.5986,192.6769,788.3348,190.605,790.4066,185.3412,783.75,192.6" style="stroke:#181818;stroke-width:1.0;"/></g><!--link ProjectViewOptionsWithTsConfigPath to ProjectViewOptions--><g id="link_ProjectViewOptionsWithTsConfigPath_ProjectViewOptions"><path codeLine="80" d="M696,114.55 C696,137.4 696,162.33 696,186.54 " fill="none" id="ProjectViewOptionsWithTsConfigPath-to-ProjectViewOptions" style="stroke:#181818;stroke-width:1.0;stroke-dasharray:7.0,7.0;"/><polygon fill="#181818" points="696,192.54,700,183.54,696,187.54,692,183.54,696,192.54" style="stroke:#181818;stroke-width:1.0;"/></g><!--link ProjectViewOptionsWithProgram to ProjectViewOptions--><g id="link_ProjectViewOptionsWithProgram_ProjectViewOptions"><path codeLine="81" d="M445.43,114.55 C494.68,137.4 555.8971,165.8051 608.0871,190.0151 " fill="none" id="ProjectViewOptionsWithProgram-to-ProjectViewOptions" style="stroke:#181818;stroke-width:1.0;stroke-dasharray:7.0,7.0;"/><polygon fill="#181818" points="613.53,192.54,607.0489,185.1241,608.9943,190.436,603.6824,192.3813,613.53,192.54" style="stroke:#181818;stroke-width:1.0;"/></g><!--link ProjectViewOptions to ProjectView--><g id="link_ProjectViewOptions_ProjectView"><path codeLine="82" d="M735.46,270.98 C754.87,289.76 775.6874,309.8985 803.1774,336.4885 " fill="none" id="ProjectViewOptions-to-ProjectView" style="stroke:#181818;stroke-width:1.0;stroke-dasharray:7.0,7.0;"/><polygon fill="#181818" points="807.49,340.66,803.802,331.5277,803.8961,337.1838,798.2401,337.2779,807.49,340.66" style="stroke:#181818;stroke-width:1.0;"/></g><!--link ProjectFile to ProjectView--><g id="link_ProjectFile_ProjectView"><path codeLine="83" d="M1192.12,281.19 C1183.01,298.23 1174.9104,313.3695 1163.1404,335.3695 " fill="none" id="ProjectFile-to-ProjectView" style="stroke:#181818;stroke-width:1.0;stroke-dasharray:7.0,7.0;"/><polygon fill="#181818" points="1160.31,340.66,1168.0826,334.6112,1162.6687,336.2513,1161.0286,330.8374,1160.31,340.66" style="stroke:#181818;stroke-width:1.0;"/></g><!--link ProjectGraphOptions to ProjectGraph--><g id="link_ProjectGraphOptions_ProjectGraph"><path codeLine="84" d="M389.41,607.63 C434.26,666.65 515.2502,773.2525 571.4802,847.2625 " fill="none" id="ProjectGraphOptions-to-ProjectGraph" style="stroke:#181818;stroke-width:1.0;stroke-dasharray:7.0,7.0;"/><polygon fill="#181818" points="575.11,852.04,572.8503,842.4539,572.0852,848.0587,566.4803,847.2936,575.11,852.04" style="stroke:#181818;stroke-width:1.0;"/></g><!--link ProjectView to ProjectGraph--><g id="link_ProjectView_ProjectGraph"><path codeLine="85" d="M783.01,792.55 C758.81,813.73 740.1748,830.0382 719.5648,848.0782 " fill="none" id="ProjectView-to-ProjectGraph" style="stroke:#181818;stroke-width:1.0;"/><polygon fill="#181818" points="715.05,852.03,724.4567,849.1121,718.8123,848.7368,719.1876,843.0924,715.05,852.03" style="stroke:#181818;stroke-width:1.0;"/></g><!--link ProjectView to TemplateContext--><g id="link_ProjectView_TemplateContext"><path codeLine="86" d="M1256.15,792.55 C1290.39,828.18 1317.963,856.8734 1341.253,881.1134 " fill="none" id="ProjectView-to-TemplateContext" style="stroke:#181818;stroke-width:1.0;"/><polygon fill="#181818" points="1345.41,885.44,1342.0589,876.1788,1341.9458,881.8345,1336.2901,881.7215,1345.41,885.44" style="stroke:#181818;stroke-width:1.0;"/></g><!--link TemplateContext to TemplateFileRenderer--><g id="link_TemplateContext_TemplateFileRenderer"><path codeLine="87" d="M1355.03,967.45 C1335.07,994.91 1311.9571,1026.7062 1290.7671,1055.8662 " fill="none" id="TemplateContext-to-TemplateFileRenderer" style="stroke:#181818;stroke-width:1.0;stroke-dasharray:7.0,7.0;"/><polygon fill="#181818" points="1287.24,1060.72,1295.7666,1055.7908,1290.1793,1056.6752,1289.2949,1051.0879,1287.24,1060.72" style="stroke:#181818;stroke-width:1.0;"/></g><!--link TemplateContext to RenderOptions--><g id="link_TemplateContext_RenderOptions"><path codeLine="88" d="M1388.9,967.77 C1392.99,1015.67 1394.26,1097.09 1366,1159.4 C1356,1181.44 1344.1665,1197.4818 1327.2365,1214.7818 " fill="none" id="TemplateContext-to-RenderOptions" style="stroke:#181818;stroke-width:1.0;stroke-dasharray:7.0,7.0;"/><polygon fill="#181818" points="1323.04,1219.07,1332.1936,1215.4353,1326.5371,1215.4965,1326.476,1209.8399,1323.04,1219.07" style="stroke:#181818;stroke-width:1.0;"/></g><!--link TemplateFileRenderer to RenderOptions--><g id="link_TemplateFileRenderer_RenderOptions"><path codeLine="89" d="M1252,1159.75 C1252,1178.36 1252,1193.76 1252,1213.08 " fill="none" id="TemplateFileRenderer-to-RenderOptions" style="stroke:#181818;stroke-width:1.0;stroke-dasharray:7.0,7.0;"/><polygon fill="#181818" points="1252,1219.08,1256,1210.08,1252,1214.08,1248,1210.08,1252,1219.08" style="stroke:#181818;stroke-width:1.0;"/></g><!--link RenderOptions to render--><g id="link_RenderOptions_render"><path codeLine="90" d="M1127.47,1335.05 C1084.44,1354.77 1042.7551,1373.8716 1003.8251,1391.7016 " fill="none" id="RenderOptions-to-render" style="stroke:#181818;stroke-width:1.0;stroke-dasharray:7.0,7.0;"/><polygon fill="#181818" points="998.37,1394.2,1008.2182,1394.0891,1002.9159,1392.118,1004.887,1386.8156,998.37,1394.2" style="stroke:#181818;stroke-width:1.0;"/></g><!--link ProjectGraph to render--><g id="link_ProjectGraph_render"><path codeLine="91" d="M672.45,1001.27 C733.8,1110.32 843.638,1305.5608 890.628,1389.0808 " fill="none" id="ProjectGraph-to-render" style="stroke:#181818;stroke-width:1.0;"/><polygon fill="#181818" points="893.57,1394.31,892.6431,1384.5049,891.1183,1389.9523,885.6708,1388.4276,893.57,1394.31" style="stroke:#181818;stroke-width:1.0;"/></g><!--SRC=[lLRBSjem5Dtp5PgipAJX0sWAqppeTF8Waz1saSba5Fi2AY2faaX24_wzLvPj9Diui2aBREk-ZkxZI7h6kAIABiWPZEboRWQ2cskw078mbA2e4OfS2Ix89PiSj2IDPtG2n6Wv5uQyjGZ-63UWnZG6SgF4RuZDWCqXazdV8T5YgMBeebddBdsr6fwSBQHGHdV9z_Jb_i6JBM3n10fbL-bB9blNH_x9u6Ke3HDS_s9cQiFe0CaOL-pkq9ysYl5942iM2uaAAdEH0ZuDr_Q8FjAdWe_Pv8QQQG32U88Snnv-SNLY2-Qxb6ujHPp9T_JekNby9AEL17mMIqrvVTzbt-_Dc_10ndEgjQ_j8JiYZmQHdKuXde5ATpdQVFjgsnAHYRcjFNQnRO3h_Dth0LInBO9IhvT3UNr3PaAXv9JoEc7QUyQ27wJFEp37JgbNwi-jmRSDWvCrXVvesuTa0kOC9F04UBno7dJamkKUFn7XwjVlaZUIW3HJVEDBAyCwBz5sp3WadycwdMvXmJGSvsXwzS7CVuYLXHYEBnXF8YIy90zZ5zgr6IlCJbOsOP7DO3wh8JXTC9fLxETAYF8M9kUliWhNEVRNmy3Mrt3ij4fvQGUzqUn2dwnm1B7LUDJfTAHxxPAeXAzz_z3Utd5JgWCWGtNjPGAT5BYUX9W3vI4Ez8-43abH0Xl0maaRVQWoWBeAQyCSriI1hAzJDkPHUzlGCywCvqj_vJcUoCsaBUJcO7BpEU1fo6V1ahAlOeAifw4RkmZpExL-BElfIpQ36cFRzqmX3En-NQtiPW13Ka6p7vpzMQODLZNx-03vfgYSLla-fwH-xcopSyn-4qqr7Se1ZwUHGo9luh1TABB97fA9fRXpV9IxnAxfxLDLCNdJXXeMhyaOoSKUHz4p_dNz0ohaWHc07EJvp8OXdFszibtBSaLAQwizWeMSKmDu_1fuDUKBGWuxs8D_2qlv-8xzXO9g6yFOMRcr3QkGp8Bh7fWJgW5RFIeF0TwnA7T6KIrdg49MQMlSWX6nc6SwuSLbiEInhOL_UObCXjHHrWKNBpm7Z-ajaNcNE5pPdBJ9brxJQ0NAuVMEAkotO0FvzJAjIxTSgChsqoQfIxEd-UGot2ybQjrgkB9rEhsgjFNnBMuVkun_TpK9zLeUJTTBV2hRQBYPyDIFZff4vVoNlj5lRVAhQa4JjEgCAah15qfTnOFj8KAt-Wy0]--></g></svg>
