<?xml version="1.0" encoding="us-ascii" standalone="no"?><svg xmlns="http://www.w3.org/2000/svg" xmlns:xlink="http://www.w3.org/1999/xlink" contentStyleType="text/css" height="1014px" preserveAspectRatio="none" style="width:1158px;height:1014px;background:#FFFFFF;" version="1.1" viewBox="0 0 1158 1014" width="1158px" zoomAndPan="magnify"><defs/><g><!--class Import--><g id="elem_Import"><rect codeLine="1" fill="#F1F1F1" height="97.4648" id="Import" rx="2.5" ry="2.5" style="stroke:#181818;stroke-width:0.5;" width="81" x="199" y="437.35"/><ellipse cx="215.35" cy="453.35" fill="#B4A7E5" rx="11" ry="11" style="stroke:#181818;stroke-width:1.0;"/><path d="M211.2777,449.1151 L211.2777,446.9569 L218.6571,446.9569 L218.6571,449.1151 L216.1918,449.1151 L216.1918,457.1918 L218.6571,457.1918 L218.6571,459.35 L211.2777,459.35 L211.2777,457.1918 L213.7431,457.1918 L213.7431,449.1151 Z " fill="#000000"/><text fill="#000000" font-family="sans-serif" font-size="14" font-style="italic" lengthAdjust="spacing" textLength="46" x="229.65" y="458.641">Import</text><line style="stroke:#181818;stroke-width:0.5;" x1="200" x2="279" y1="469.35" y2="469.35"/><text fill="#000000" font-family="sans-serif" font-size="14" lengthAdjust="spacing" textLength="35" x="205" y="486.8852">node</text><text fill="#000000" font-family="sans-serif" font-size="14" lengthAdjust="spacing" textLength="69" x="205" y="503.3734">identifiers</text><text fill="#000000" font-family="sans-serif" font-size="14" lengthAdjust="spacing" textLength="20" x="205" y="519.8617">src</text><line style="stroke:#181818;stroke-width:0.5;" x1="200" x2="279" y1="526.8148" y2="526.8148"/></g><!--class QueryModificationFn--><g id="elem_QueryModificationFn"><rect codeLine="6" fill="#F1F1F1" height="48" id="QueryModificationFn" rx="2.5" ry="2.5" style="stroke:#181818;stroke-width:0.5;" width="175" x="351" y="39.98"/><ellipse cx="366" cy="55.98" fill="#B4A7E5" rx="11" ry="11" style="stroke:#181818;stroke-width:1.0;"/><path d="M361.9277,51.7451 L361.9277,49.5869 L369.3071,49.5869 L369.3071,51.7451 L366.8418,51.7451 L366.8418,59.8218 L369.3071,59.8218 L369.3071,61.98 L361.9277,61.98 L361.9277,59.8218 L364.3931,59.8218 L364.3931,51.7451 Z " fill="#000000"/><text fill="#000000" font-family="sans-serif" font-size="14" font-style="italic" lengthAdjust="spacing" textLength="143" x="380" y="61.271">QueryModificationFn</text><line style="stroke:#181818;stroke-width:0.5;" x1="352" x2="525" y1="71.98" y2="71.98"/><line style="stroke:#181818;stroke-width:0.5;" x1="352" x2="525" y1="79.98" y2="79.98"/></g><!--class Decorator--><g id="elem_Decorator"><rect codeLine="7" fill="#F1F1F1" height="80.9766" id="Decorator" rx="2.5" ry="2.5" style="stroke:#181818;stroke-width:0.5;" width="100" x="461.5" y="213.93"/><ellipse cx="476.5" cy="229.93" fill="#B4A7E5" rx="11" ry="11" style="stroke:#181818;stroke-width:1.0;"/><path d="M472.4277,225.6951 L472.4277,223.5369 L479.8071,223.5369 L479.8071,225.6951 L477.3418,225.6951 L477.3418,233.7718 L479.8071,233.7718 L479.8071,235.93 L472.4277,235.93 L472.4277,233.7718 L474.8931,233.7718 L474.8931,225.6951 Z " fill="#000000"/><text fill="#000000" font-family="sans-serif" font-size="14" font-style="italic" lengthAdjust="spacing" textLength="68" x="490.5" y="235.221">Decorator</text><line style="stroke:#181818;stroke-width:0.5;" x1="462.5" x2="560.5" y1="245.93" y2="245.93"/><text fill="#000000" font-family="sans-serif" font-size="14" lengthAdjust="spacing" textLength="35" x="467.5" y="263.4652">node</text><text fill="#000000" font-family="sans-serif" font-size="14" lengthAdjust="spacing" textLength="38" x="467.5" y="279.9534">name</text><line style="stroke:#181818;stroke-width:0.5;" x1="462.5" x2="560.5" y1="286.9066" y2="286.9066"/></g><!--class Dependency--><g id="elem_Dependency"><rect codeLine="11" fill="#F1F1F1" height="97.4648" id="Dependency" rx="2.5" ry="2.5" style="stroke:#181818;stroke-width:0.5;" width="116" x="178.5" y="205.69"/><ellipse cx="193.5" cy="221.69" fill="#B4A7E5" rx="11" ry="11" style="stroke:#181818;stroke-width:1.0;"/><path d="M189.4277,217.4551 L189.4277,215.2969 L196.8071,215.2969 L196.8071,217.4551 L194.3418,217.4551 L194.3418,225.5318 L196.8071,225.5318 L196.8071,227.69 L189.4277,227.69 L189.4277,225.5318 L191.8931,225.5318 L191.8931,217.4551 Z " fill="#000000"/><text fill="#000000" font-family="sans-serif" font-size="14" font-style="italic" lengthAdjust="spacing" textLength="84" x="207.5" y="226.981">Dependency</text><line style="stroke:#181818;stroke-width:0.5;" x1="179.5" x2="293.5" y1="237.69" y2="237.69"/><text fill="#000000" font-family="sans-serif" font-size="14" lengthAdjust="spacing" textLength="41" x="184.5" y="255.2252">origin</text><text fill="#000000" font-family="sans-serif" font-size="14" lengthAdjust="spacing" textLength="35" x="184.5" y="271.7134">node</text><text fill="#000000" font-family="sans-serif" font-size="14" lengthAdjust="spacing" textLength="38" x="184.5" y="288.2017">name</text><line style="stroke:#181818;stroke-width:0.5;" x1="179.5" x2="293.5" y1="295.1548" y2="295.1548"/></g><!--class DependencyOrigin--><g id="elem_DependencyOrigin"><rect codeLine="16" fill="#F1F1F1" height="113.9531" id="DependencyOrigin" rx="2.5" ry="2.5" style="stroke:#181818;stroke-width:0.5;" width="159" x="157" y="7"/><ellipse cx="172" cy="23" fill="#EB937F" rx="11" ry="11" style="stroke:#181818;stroke-width:1.0;"/><path d="M176.1143,29 L168.3945,29 L168.3945,16.6069 L176.1143,16.6069 L176.1143,18.7651 L170.8433,18.7651 L170.8433,21.438 L175.6162,21.438 L175.6162,23.5962 L170.8433,23.5962 L170.8433,26.8418 L176.1143,26.8418 Z " fill="#000000"/><text fill="#000000" font-family="sans-serif" font-size="14" lengthAdjust="spacing" textLength="127" x="186" y="28.291">DependencyOrigin</text><line style="stroke:#181818;stroke-width:0.5;" x1="158" x2="315" y1="39" y2="39"/><text fill="#000000" font-family="sans-serif" font-size="14" lengthAdjust="spacing" textLength="78" x="163" y="56.5352">Declaration</text><text fill="#000000" font-family="sans-serif" font-size="14" lengthAdjust="spacing" textLength="70" x="163" y="73.0234">Parameter</text><text fill="#000000" font-family="sans-serif" font-size="14" lengthAdjust="spacing" textLength="68" x="163" y="89.5117">Decorator</text><text fill="#000000" font-family="sans-serif" font-size="14" lengthAdjust="spacing" textLength="58" x="163" y="106">Heritage</text><line style="stroke:#181818;stroke-width:0.5;" x1="158" x2="315" y1="112.9531" y2="112.9531"/></g><!--class Property--><g id="elem_Property"><rect codeLine="22" fill="#F1F1F1" height="97.4648" id="Property" rx="2.5" ry="2.5" style="stroke:#181818;stroke-width:0.5;" width="90" x="336.5" y="205.69"/><ellipse cx="351.5" cy="221.69" fill="#B4A7E5" rx="11" ry="11" style="stroke:#181818;stroke-width:1.0;"/><path d="M347.4277,217.4551 L347.4277,215.2969 L354.8071,215.2969 L354.8071,217.4551 L352.3418,217.4551 L352.3418,225.5318 L354.8071,225.5318 L354.8071,227.69 L347.4277,227.69 L347.4277,225.5318 L349.8931,225.5318 L349.8931,217.4551 Z " fill="#000000"/><text fill="#000000" font-family="sans-serif" font-size="14" font-style="italic" lengthAdjust="spacing" textLength="58" x="365.5" y="226.981">Property</text><line style="stroke:#181818;stroke-width:0.5;" x1="337.5" x2="425.5" y1="237.69" y2="237.69"/><text fill="#000000" font-family="sans-serif" font-size="14" lengthAdjust="spacing" textLength="54" x="342.5" y="255.2252">selector</text><text fill="#000000" font-family="sans-serif" font-size="14" lengthAdjust="spacing" textLength="35" x="342.5" y="271.7134">node</text><text fill="#000000" font-family="sans-serif" font-size="14" lengthAdjust="spacing" textLength="38" x="342.5" y="288.2017">name</text><line style="stroke:#181818;stroke-width:0.5;" x1="337.5" x2="425.5" y1="295.1548" y2="295.1548"/></g><!--class Member--><g id="elem_Member"><rect codeLine="27" fill="#F1F1F1" height="196.3945" id="Member" rx="2.5" ry="2.5" style="stroke:#181818;stroke-width:0.5;" width="88" x="367.5" y="387.89"/><ellipse cx="382.5" cy="403.89" fill="#B4A7E5" rx="11" ry="11" style="stroke:#181818;stroke-width:1.0;"/><path d="M378.4277,399.6551 L378.4277,397.4969 L385.8071,397.4969 L385.8071,399.6551 L383.3418,399.6551 L383.3418,407.7318 L385.8071,407.7318 L385.8071,409.89 L378.4277,409.89 L378.4277,407.7318 L380.8931,407.7318 L380.8931,399.6551 Z " fill="#000000"/><text fill="#000000" font-family="sans-serif" font-size="14" font-style="italic" lengthAdjust="spacing" textLength="56" x="396.5" y="409.181">Member</text><line style="stroke:#181818;stroke-width:0.5;" x1="368.5" x2="454.5" y1="419.89" y2="419.89"/><text fill="#000000" font-family="sans-serif" font-size="14" lengthAdjust="spacing" textLength="54" x="373.5" y="437.4252">selector</text><text fill="#000000" font-family="sans-serif" font-size="14" lengthAdjust="spacing" textLength="35" x="373.5" y="453.9134">node</text><text fill="#000000" font-family="sans-serif" font-size="14" lengthAdjust="spacing" textLength="33" x="373.5" y="470.4017">deps</text><text fill="#000000" font-family="sans-serif" font-size="14" lengthAdjust="spacing" textLength="74" x="373.5" y="486.89">decorators</text><text fill="#000000" font-family="sans-serif" font-size="14" lengthAdjust="spacing" textLength="40" x="373.5" y="503.3783">props</text><text fill="#000000" font-family="sans-serif" font-size="14" lengthAdjust="spacing" textLength="29" x="373.5" y="519.8666">type</text><text fill="#000000" font-family="sans-serif" font-size="14" lengthAdjust="spacing" textLength="38" x="373.5" y="536.3548">name</text><text fill="#000000" font-family="sans-serif" font-size="14" lengthAdjust="spacing" textLength="68" x="373.5" y="552.8431">isAbstract</text><text fill="#000000" font-family="sans-serif" font-size="14" lengthAdjust="spacing" textLength="74" x="373.5" y="569.3314">isExported</text><line style="stroke:#181818;stroke-width:0.5;" x1="368.5" x2="454.5" y1="576.2845" y2="576.2845"/></g><!--class MemberType--><g id="elem_MemberType"><rect codeLine="38" fill="#F1F1F1" height="146.9297" id="MemberType" rx="2.5" ry="2.5" style="stroke:#181818;stroke-width:0.5;" width="121" x="7" y="180.96"/><ellipse cx="22" cy="196.96" fill="#EB937F" rx="11" ry="11" style="stroke:#181818;stroke-width:1.0;"/><path d="M26.1143,202.96 L18.3945,202.96 L18.3945,190.5669 L26.1143,190.5669 L26.1143,192.7251 L20.8433,192.7251 L20.8433,195.398 L25.6162,195.398 L25.6162,197.5562 L20.8433,197.5562 L20.8433,200.8018 L26.1143,200.8018 Z " fill="#000000"/><text fill="#000000" font-family="sans-serif" font-size="14" lengthAdjust="spacing" textLength="89" x="36" y="202.251">MemberType</text><line style="stroke:#181818;stroke-width:0.5;" x1="8" x2="127" y1="212.96" y2="212.96"/><text fill="#000000" font-family="sans-serif" font-size="14" lengthAdjust="spacing" textLength="36" x="13" y="230.4952">Class</text><text fill="#000000" font-family="sans-serif" font-size="14" lengthAdjust="spacing" textLength="60" x="13" y="246.9834">Interface</text><text fill="#000000" font-family="sans-serif" font-size="14" lengthAdjust="spacing" textLength="39" x="13" y="263.4717">Enum</text><text fill="#000000" font-family="sans-serif" font-size="14" lengthAdjust="spacing" textLength="60" x="13" y="279.96">Function</text><text fill="#000000" font-family="sans-serif" font-size="14" lengthAdjust="spacing" textLength="33" x="13" y="296.4483">Type</text><text fill="#000000" font-family="sans-serif" font-size="14" lengthAdjust="spacing" textLength="56" x="13" y="312.9366">Variable</text><line style="stroke:#181818;stroke-width:0.5;" x1="8" x2="127" y1="319.8897" y2="319.8897"/></g><!--class ProjectFile--><g id="elem_ProjectFile"><rect codeLine="46" fill="#F1F1F1" height="97.4648" id="ProjectFile" rx="2.5" ry="2.5" style="stroke:#181818;stroke-width:0.5;" width="103" x="188" y="644.28"/><ellipse cx="203" cy="660.28" fill="#B4A7E5" rx="11" ry="11" style="stroke:#181818;stroke-width:1.0;"/><path d="M198.9277,656.0451 L198.9277,653.8869 L206.3071,653.8869 L206.3071,656.0451 L203.8418,656.0451 L203.8418,664.1218 L206.3071,664.1218 L206.3071,666.28 L198.9277,666.28 L198.9277,664.1218 L201.3931,664.1218 L201.3931,656.0451 Z " fill="#000000"/><text fill="#000000" font-family="sans-serif" font-size="14" font-style="italic" lengthAdjust="spacing" textLength="71" x="217" y="665.571">ProjectFile</text><line style="stroke:#181818;stroke-width:0.5;" x1="189" x2="290" y1="676.28" y2="676.28"/><text fill="#000000" font-family="sans-serif" font-size="14" lengthAdjust="spacing" textLength="46" x="194" y="693.8152">source</text><text fill="#000000" font-family="sans-serif" font-size="14" lengthAdjust="spacing" textLength="53" x="194" y="710.3034">imports</text><text fill="#000000" font-family="sans-serif" font-size="14" lengthAdjust="spacing" textLength="64" x="194" y="726.7917">members</text><line style="stroke:#181818;stroke-width:0.5;" x1="189" x2="290" y1="733.7448" y2="733.7448"/></g><!--class FilterSet--><g id="elem_FilterSet"><rect codeLine="51" fill="#F1F1F1" height="64.4883" id="FilterSet" rx="2.5" ry="2.5" style="stroke:#181818;stroke-width:0.5;" width="88" x="834.5" y="453.84"/><ellipse cx="849.5" cy="469.84" fill="#ADD1B2" rx="11" ry="11" style="stroke:#181818;stroke-width:1.0;"/><path d="M852.4731,475.4831 Q851.8921,475.7819 851.2529,475.9313 Q850.6138,476.0807 849.9082,476.0807 Q847.4014,476.0807 846.0815,474.4289 Q844.7617,472.777 844.7617,469.6559 Q844.7617,466.5265 846.0815,464.8747 Q847.4014,463.2228 849.9082,463.2228 Q850.6138,463.2228 851.2612,463.3722 Q851.9087,463.5216 852.4731,463.8205 L852.4731,466.5431 Q851.8423,465.9621 851.2488,465.6923 Q850.6553,465.4225 850.0244,465.4225 Q848.6797,465.4225 847.9949,466.4892 Q847.3101,467.5558 847.3101,469.6559 Q847.3101,471.7477 847.9949,472.8144 Q848.6797,473.881 850.0244,473.881 Q850.6553,473.881 851.2488,473.6112 Q851.8423,473.3415 852.4731,472.7604 Z " fill="#000000"/><text fill="#000000" font-family="sans-serif" font-size="14" lengthAdjust="spacing" textLength="56" x="863.5" y="475.131">FilterSet</text><line style="stroke:#181818;stroke-width:0.5;" x1="835.5" x2="921.5" y1="485.84" y2="485.84"/><text fill="#000000" font-family="sans-serif" font-size="14" lengthAdjust="spacing" textLength="71" x="840.5" y="503.3752">predicates</text><line style="stroke:#181818;stroke-width:0.5;" x1="835.5" x2="921.5" y1="510.3283" y2="510.3283"/></g><!--class Predicate--><g id="elem_Predicate"><rect codeLine="54" fill="#F1F1F1" height="48" id="Predicate" rx="2.5" ry="2.5" style="stroke:#181818;stroke-width:0.5;" width="95" x="673" y="230.42"/><ellipse cx="688" cy="246.42" fill="#B4A7E5" rx="11" ry="11" style="stroke:#181818;stroke-width:1.0;"/><path d="M683.9277,242.1851 L683.9277,240.0269 L691.3071,240.0269 L691.3071,242.1851 L688.8418,242.1851 L688.8418,250.2618 L691.3071,250.2618 L691.3071,252.42 L683.9277,252.42 L683.9277,250.2618 L686.3931,250.2618 L686.3931,242.1851 Z " fill="#000000"/><text fill="#000000" font-family="sans-serif" font-size="14" font-style="italic" lengthAdjust="spacing" textLength="63" x="702" y="251.711">Predicate</text><line style="stroke:#181818;stroke-width:0.5;" x1="674" x2="767" y1="262.42" y2="262.42"/><line style="stroke:#181818;stroke-width:0.5;" x1="674" x2="767" y1="270.42" y2="270.42"/></g><!--class SourceFileFilterFn--><g id="elem_SourceFileFilterFn"><rect codeLine="55" fill="#F1F1F1" height="48" id="SourceFileFilterFn" rx="2.5" ry="2.5" style="stroke:#181818;stroke-width:0.5;" width="155" x="643" y="669.01"/><ellipse cx="658" cy="685.01" fill="#B4A7E5" rx="11" ry="11" style="stroke:#181818;stroke-width:1.0;"/><path d="M653.9277,680.7751 L653.9277,678.6169 L661.3071,678.6169 L661.3071,680.7751 L658.8418,680.7751 L658.8418,688.8518 L661.3071,688.8518 L661.3071,691.01 L653.9277,691.01 L653.9277,688.8518 L656.3931,688.8518 L656.3931,680.7751 Z " fill="#000000"/><text fill="#000000" font-family="sans-serif" font-size="14" font-style="italic" lengthAdjust="spacing" textLength="123" x="672" y="690.301">SourceFileFilterFn</text><line style="stroke:#181818;stroke-width:0.5;" x1="644" x2="797" y1="701.01" y2="701.01"/><line style="stroke:#181818;stroke-width:0.5;" x1="644" x2="797" y1="709.01" y2="709.01"/></g><!--class MemberFilterFn--><g id="elem_MemberFilterFn"><rect codeLine="56" fill="#F1F1F1" height="48" id="MemberFilterFn" rx="2.5" ry="2.5" style="stroke:#181818;stroke-width:0.5;" width="140" x="468.5" y="669.01"/><ellipse cx="483.5" cy="685.01" fill="#B4A7E5" rx="11" ry="11" style="stroke:#181818;stroke-width:1.0;"/><path d="M479.4277,680.7751 L479.4277,678.6169 L486.8071,678.6169 L486.8071,680.7751 L484.3418,680.7751 L484.3418,688.8518 L486.8071,688.8518 L486.8071,691.01 L479.4277,691.01 L479.4277,688.8518 L481.8931,688.8518 L481.8931,680.7751 Z " fill="#000000"/><text fill="#000000" font-family="sans-serif" font-size="14" font-style="italic" lengthAdjust="spacing" textLength="108" x="497.5" y="690.301">MemberFilterFn</text><line style="stroke:#181818;stroke-width:0.5;" x1="469.5" x2="607.5" y1="701.01" y2="701.01"/><line style="stroke:#181818;stroke-width:0.5;" x1="469.5" x2="607.5" y1="709.01" y2="709.01"/></g><!--class ProjectView--><g id="elem_ProjectView"><rect codeLine="57" fill="#F1F1F1" height="97.4648" id="ProjectView" rx="2.5" ry="2.5" style="stroke:#181818;stroke-width:0.5;" width="111" x="237" y="801.75"/><ellipse cx="252" cy="817.75" fill="#ADD1B2" rx="11" ry="11" style="stroke:#181818;stroke-width:1.0;"/><path d="M254.9731,823.3931 Q254.3921,823.6919 253.7529,823.8413 Q253.1138,823.9907 252.4082,823.9907 Q249.9014,823.9907 248.5815,822.3389 Q247.2617,820.687 247.2617,817.5659 Q247.2617,814.4365 248.5815,812.7847 Q249.9014,811.1328 252.4082,811.1328 Q253.1138,811.1328 253.7612,811.2822 Q254.4087,811.4316 254.9731,811.7305 L254.9731,814.4531 Q254.3423,813.8721 253.7488,813.6023 Q253.1553,813.3325 252.5244,813.3325 Q251.1797,813.3325 250.4949,814.3992 Q249.8101,815.4658 249.8101,817.5659 Q249.8101,819.6577 250.4949,820.7244 Q251.1797,821.791 252.5244,821.791 Q253.1553,821.791 253.7488,821.5212 Q254.3423,821.2515 254.9731,820.6704 Z " fill="#000000"/><text fill="#000000" font-family="sans-serif" font-size="14" lengthAdjust="spacing" textLength="79" x="266" y="823.041">ProjectView</text><line style="stroke:#181818;stroke-width:0.5;" x1="238" x2="347" y1="833.75" y2="833.75"/><text fill="#000000" font-family="sans-serif" font-size="14" lengthAdjust="spacing" textLength="39" x="243" y="851.2852">filters</text><text fill="#000000" font-family="sans-serif" font-size="14" lengthAdjust="spacing" textLength="28" x="243" y="867.7734">files</text><text fill="#000000" font-family="sans-serif" font-size="14" lengthAdjust="spacing" textLength="64" x="243" y="884.2617">members</text><line style="stroke:#181818;stroke-width:0.5;" x1="238" x2="347" y1="891.2148" y2="891.2148"/></g><!--class Diagram--><g id="elem_Diagram"><rect codeLine="62" fill="#F1F1F1" height="64.4883" id="Diagram" rx="2.5" ry="2.5" style="stroke:#181818;stroke-width:0.5;" width="90" x="833.5" y="660.77"/><ellipse cx="848.5" cy="676.77" fill="#A9DCDF" rx="11" ry="11" style="stroke:#181818;stroke-width:1.0;"/><path d="M848.6133,672.1181 L847.4595,677.1899 L849.7754,677.1899 Z M847.1191,669.8769 L850.1157,669.8769 L853.4609,682.27 L851.0122,682.27 L850.2485,679.207 L846.9697,679.207 L846.2227,682.27 L843.7739,682.27 Z " fill="#000000"/><text fill="#000000" font-family="sans-serif" font-size="14" font-style="italic" lengthAdjust="spacing" textLength="58" x="862.5" y="682.061">Diagram</text><line style="stroke:#181818;stroke-width:0.5;" x1="834.5" x2="922.5" y1="692.77" y2="692.77"/><text fill="#000000" font-family="sans-serif" font-size="14" lengthAdjust="spacing" textLength="39" x="839.5" y="710.3052">filters</text><line style="stroke:#181818;stroke-width:0.5;" x1="834.5" x2="922.5" y1="717.2583" y2="717.2583"/></g><!--class RelationDiagram--><g id="elem_RelationDiagram"><rect codeLine="65" fill="#F1F1F1" height="48" id="RelationDiagram" rx="2.5" ry="2.5" style="stroke:#181818;stroke-width:0.5;" width="146" x="805.5" y="826.48"/><ellipse cx="820.5" cy="842.48" fill="#A9DCDF" rx="11" ry="11" style="stroke:#181818;stroke-width:1.0;"/><path d="M820.6133,837.8281 L819.4595,842.8999 L821.7754,842.8999 Z M819.1191,835.5869 L822.1157,835.5869 L825.4609,847.98 L823.0122,847.98 L822.2485,844.917 L818.9697,844.917 L818.2227,847.98 L815.7739,847.98 Z " fill="#000000"/><text fill="#000000" font-family="sans-serif" font-size="14" font-style="italic" lengthAdjust="spacing" textLength="114" x="834.5" y="847.771">RelationDiagram</text><line style="stroke:#181818;stroke-width:0.5;" x1="806.5" x2="950.5" y1="858.48" y2="858.48"/><line style="stroke:#181818;stroke-width:0.5;" x1="806.5" x2="950.5" y1="866.48" y2="866.48"/></g><!--class RelationEdge--><g id="elem_RelationEdge"><rect codeLine="66" fill="#F1F1F1" height="97.4648" id="RelationEdge" rx="2.5" ry="2.5" style="stroke:#181818;stroke-width:0.5;" width="122" x="1029.5" y="644.28"/><ellipse cx="1044.5" cy="660.28" fill="#B4A7E5" rx="11" ry="11" style="stroke:#181818;stroke-width:1.0;"/><path d="M1040.4277,656.0451 L1040.4277,653.8869 L1047.8071,653.8869 L1047.8071,656.0451 L1045.3418,656.0451 L1045.3418,664.1218 L1047.8071,664.1218 L1047.8071,666.28 L1040.4277,666.28 L1040.4277,664.1218 L1042.8931,664.1218 L1042.8931,656.0451 Z " fill="#000000"/><text fill="#000000" font-family="sans-serif" font-size="14" font-style="italic" lengthAdjust="spacing" textLength="90" x="1058.5" y="665.571">RelationEdge</text><line style="stroke:#181818;stroke-width:0.5;" x1="1030.5" x2="1150.5" y1="676.28" y2="676.28"/><text fill="#000000" font-family="sans-serif" font-size="14" lengthAdjust="spacing" textLength="29" x="1035.5" y="693.8152">type</text><text fill="#000000" font-family="sans-serif" font-size="14" lengthAdjust="spacing" textLength="33" x="1035.5" y="710.3034">from</text><text fill="#000000" font-family="sans-serif" font-size="14" lengthAdjust="spacing" textLength="14" x="1035.5" y="726.7917">to</text><line style="stroke:#181818;stroke-width:0.5;" x1="1030.5" x2="1150.5" y1="733.7448" y2="733.7448"/></g><!--class RelationType--><g id="elem_RelationType"><rect codeLine="71" fill="#F1F1F1" height="113.9531" id="RelationType" rx="2.5" ry="2.5" style="stroke:#181818;stroke-width:0.5;" width="121" x="1030" y="429.11"/><ellipse cx="1045" cy="445.11" fill="#EB937F" rx="11" ry="11" style="stroke:#181818;stroke-width:1.0;"/><path d="M1049.1143,451.11 L1041.3945,451.11 L1041.3945,438.7169 L1049.1143,438.7169 L1049.1143,440.8751 L1043.8433,440.8751 L1043.8433,443.548 L1048.6162,443.548 L1048.6162,445.7062 L1043.8433,445.7062 L1043.8433,448.9518 L1049.1143,448.9518 Z " fill="#000000"/><text fill="#000000" font-family="sans-serif" font-size="14" lengthAdjust="spacing" textLength="89" x="1059" y="450.401">RelationType</text><line style="stroke:#181818;stroke-width:0.5;" x1="1031" x2="1150" y1="461.11" y2="461.11"/><text fill="#000000" font-family="sans-serif" font-size="14" lengthAdjust="spacing" textLength="86" x="1036" y="478.6452">Aggregation</text><text fill="#000000" font-family="sans-serif" font-size="14" lengthAdjust="spacing" textLength="79" x="1036" y="495.1334">Association</text><text fill="#000000" font-family="sans-serif" font-size="14" lengthAdjust="spacing" textLength="88" x="1036" y="511.6217">Composition</text><text fill="#000000" font-family="sans-serif" font-size="14" lengthAdjust="spacing" textLength="68" x="1036" y="528.11">Extension</text><line style="stroke:#181818;stroke-width:0.5;" x1="1031" x2="1150" y1="535.0631" y2="535.0631"/></g><!--class PlantUMLClassDiagram--><g id="elem_PlantUMLClassDiagram"><rect codeLine="77" fill="#F1F1F1" height="48" id="PlantUMLClassDiagram" rx="2.5" ry="2.5" style="stroke:#181818;stroke-width:0.5;" width="189" x="673" y="959.21"/><ellipse cx="688" cy="975.21" fill="#ADD1B2" rx="11" ry="11" style="stroke:#181818;stroke-width:1.0;"/><path d="M690.9731,980.8531 Q690.3921,981.1519 689.7529,981.3013 Q689.1138,981.4507 688.4082,981.4507 Q685.9014,981.4507 684.5815,979.7989 Q683.2617,978.147 683.2617,975.0259 Q683.2617,971.8965 684.5815,970.2447 Q685.9014,968.5928 688.4082,968.5928 Q689.1138,968.5928 689.7612,968.7422 Q690.4087,968.8916 690.9731,969.1905 L690.9731,971.9131 Q690.3423,971.3321 689.7488,971.0623 Q689.1553,970.7925 688.5244,970.7925 Q687.1797,970.7925 686.4949,971.8592 Q685.8101,972.9258 685.8101,975.0259 Q685.8101,977.1177 686.4949,978.1844 Q687.1797,979.251 688.5244,979.251 Q689.1553,979.251 689.7488,978.9812 Q690.3423,978.7115 690.9731,978.1304 Z " fill="#000000"/><text fill="#000000" font-family="sans-serif" font-size="14" lengthAdjust="spacing" textLength="157" x="702" y="980.501">PlantUMLClassDiagram</text><line style="stroke:#181818;stroke-width:0.5;" x1="674" x2="861" y1="991.21" y2="991.21"/><line style="stroke:#181818;stroke-width:0.5;" x1="674" x2="861" y1="999.21" y2="999.21"/></g><!--class MermaidClassDiagram--><g id="elem_MermaidClassDiagram"><rect codeLine="78" fill="#F1F1F1" height="48" id="MermaidClassDiagram" rx="2.5" ry="2.5" style="stroke:#181818;stroke-width:0.5;" width="186" x="896.5" y="959.21"/><ellipse cx="911.5" cy="975.21" fill="#ADD1B2" rx="11" ry="11" style="stroke:#181818;stroke-width:1.0;"/><path d="M914.4731,980.8531 Q913.8921,981.1519 913.2529,981.3013 Q912.6138,981.4507 911.9082,981.4507 Q909.4014,981.4507 908.0815,979.7989 Q906.7617,978.147 906.7617,975.0259 Q906.7617,971.8965 908.0815,970.2447 Q909.4014,968.5928 911.9082,968.5928 Q912.6138,968.5928 913.2612,968.7422 Q913.9087,968.8916 914.4731,969.1905 L914.4731,971.9131 Q913.8423,971.3321 913.2488,971.0623 Q912.6553,970.7925 912.0244,970.7925 Q910.6797,970.7925 909.9949,971.8592 Q909.3101,972.9258 909.3101,975.0259 Q909.3101,977.1177 909.9949,978.1844 Q910.6797,979.251 912.0244,979.251 Q912.6553,979.251 913.2488,978.9812 Q913.8423,978.7115 914.4731,978.1304 Z " fill="#000000"/><text fill="#000000" font-family="sans-serif" font-size="14" lengthAdjust="spacing" textLength="154" x="925.5" y="980.501">MermaidClassDiagram</text><line style="stroke:#181818;stroke-width:0.5;" x1="897.5" x2="1081.5" y1="991.21" y2="991.21"/><line style="stroke:#181818;stroke-width:0.5;" x1="897.5" x2="1081.5" y1="999.21" y2="999.21"/></g><!--class Comment--><g id="elem_Comment"><rect codeLine="79" fill="#F1F1F1" height="97.4648" id="Comment" rx="2.5" ry="2.5" style="stroke:#181818;stroke-width:0.5;" width="99" x="561" y="15.25"/><ellipse cx="576" cy="31.25" fill="#B4A7E5" rx="11" ry="11" style="stroke:#181818;stroke-width:1.0;"/><path d="M571.9277,27.0151 L571.9277,24.8569 L579.3071,24.8569 L579.3071,27.0151 L576.8418,27.0151 L576.8418,35.0918 L579.3071,35.0918 L579.3071,37.25 L571.9277,37.25 L571.9277,35.0918 L574.3931,35.0918 L574.3931,27.0151 Z " fill="#000000"/><text fill="#000000" font-family="sans-serif" font-size="14" font-style="italic" lengthAdjust="spacing" textLength="67" x="590" y="36.541">Comment</text><line style="stroke:#181818;stroke-width:0.5;" x1="562" x2="659" y1="47.25" y2="47.25"/><text fill="#000000" font-family="sans-serif" font-size="14" lengthAdjust="spacing" textLength="27" x="567" y="64.7852">text</text><text fill="#000000" font-family="sans-serif" font-size="14" lengthAdjust="spacing" textLength="31" x="567" y="81.2734">start</text><text fill="#000000" font-family="sans-serif" font-size="14" lengthAdjust="spacing" textLength="26" x="567" y="97.7617">end</text><line style="stroke:#181818;stroke-width:0.5;" x1="562" x2="659" y1="104.7148" y2="104.7148"/></g><!--link DependencyOrigin to Dependency--><g id="link_DependencyOrigin_Dependency"><path codeLine="84" d="M236.5,121.26 C236.5,148.05 236.5,173.75 236.5,199.39 " fill="none" id="DependencyOrigin-to-Dependency" style="stroke:#181818;stroke-width:1.0;stroke-dasharray:7.0,7.0;"/><polygon fill="#181818" points="236.5,205.39,240.5,196.39,236.5,200.39,232.5,196.39,236.5,205.39" style="stroke:#181818;stroke-width:1.0;"/></g><!--link Dependency to Member--><g id="link_Dependency_Member"><path codeLine="85" d="M273.19,303.57 C300.55,339.47 334.4125,383.9284 363.4725,422.0484 " fill="none" id="Dependency-to-Member" style="stroke:#181818;stroke-width:1.0;stroke-dasharray:7.0,7.0;"/><polygon fill="#181818" points="367.11,426.82,364.8348,417.2376,364.0787,422.8437,358.4726,422.0876,367.11,426.82" style="stroke:#181818;stroke-width:1.0;"/></g><!--link Decorator to Member--><g id="link_Decorator_Member"><path codeLine="86" d="M494.2,295.16 C483.07,320.71 470.4943,349.5884 456.3543,382.0784 " fill="none" id="Decorator-to-Member" style="stroke:#181818;stroke-width:1.0;stroke-dasharray:7.0,7.0;"/><polygon fill="#181818" points="453.96,387.58,461.2192,380.9239,455.9553,382.9954,453.8838,377.7314,453.96,387.58" style="stroke:#181818;stroke-width:1.0;"/></g><!--link Property to Member--><g id="link_Property_Member"><path codeLine="87" d="M387.79,303.57 C390.98,328.03 394.2131,352.7305 398.0131,381.8305 " fill="none" id="Property-to-Member" style="stroke:#181818;stroke-width:1.0;stroke-dasharray:7.0,7.0;"/><polygon fill="#181818" points="398.79,387.78,401.591,378.3378,398.1426,382.8221,393.6583,379.3737,398.79,387.78" style="stroke:#181818;stroke-width:1.0;"/></g><!--link MemberType to Member--><g id="link_MemberType_Member"><path codeLine="88" d="M128.45,305.76 C139.16,313.62 150.43,321.31 161.5,327.89 C218.3,361.63 241.55,352.75 297.5,387.89 C322.06,403.31 342.3898,419.7267 362.5498,437.8667 " fill="none" id="MemberType-to-Member" style="stroke:#181818;stroke-width:1.0;stroke-dasharray:7.0,7.0;"/><polygon fill="#181818" points="367.01,441.88,362.9952,432.8866,363.2932,438.5356,357.6442,438.8335,367.01,441.88" style="stroke:#181818;stroke-width:1.0;"/></g><!--link Import to ProjectFile--><g id="link_Import_ProjectFile"><path codeLine="89" d="M239.5,535.13 C239.5,567.9 239.5,605.13 239.5,637.91 " fill="none" id="Import-to-ProjectFile" style="stroke:#181818;stroke-width:1.0;stroke-dasharray:7.0,7.0;"/><polygon fill="#181818" points="239.5,643.91,243.5,634.91,239.5,638.91,235.5,634.91,239.5,643.91" style="stroke:#181818;stroke-width:1.0;"/></g><!--link Member to ProjectFile--><g id="link_Member_ProjectFile"><path codeLine="90" d="M367.21,539.86 C340.23,572 309.8864,608.1435 283.6764,639.3835 " fill="none" id="Member-to-ProjectFile" style="stroke:#181818;stroke-width:1.0;stroke-dasharray:7.0,7.0;"/><polygon fill="#181818" points="279.82,643.98,288.669,639.6562,283.0337,640.1496,282.5403,634.5143,279.82,643.98" style="stroke:#181818;stroke-width:1.0;"/></g><!--link Predicate to FilterSet--><g id="link_Predicate_FilterSet"><path codeLine="91" d="M736.52,278.71 C765,320.1 821.059,401.597 853.259,448.397 " fill="none" id="Predicate-to-FilterSet" style="stroke:#181818;stroke-width:1.0;stroke-dasharray:7.0,7.0;"/><polygon fill="#181818" points="856.66,453.34,854.8539,443.6582,853.8259,449.2208,848.2632,448.1928,856.66,453.34" style="stroke:#181818;stroke-width:1.0;"/></g><!--link Predicate to SourceFileFilterFn--><g id="link_Predicate_SourceFileFilterFn"><path codeLine="92" d="M720.5,278.89 C720.5,354.79 720.5,587.01 720.5,662.69 " fill="none" id="Predicate-to-SourceFileFilterFn" style="stroke:#181818;stroke-width:1.0;stroke-dasharray:7.0,7.0;"/><polygon fill="#181818" points="720.5,668.69,724.5,659.69,720.5,663.69,716.5,659.69,720.5,668.69" style="stroke:#181818;stroke-width:1.0;"/></g><!--link Predicate to MemberFilterFn--><g id="link_Predicate_MemberFilterFn"><path codeLine="93" d="M710.71,278.89 C679.08,354.79 582.0787,587.472 550.5287,663.152 " fill="none" id="Predicate-to-MemberFilterFn" style="stroke:#181818;stroke-width:1.0;stroke-dasharray:7.0,7.0;"/><polygon fill="#181818" points="548.22,668.69,555.3751,661.9221,550.1439,664.075,547.9911,658.8438,548.22,668.69" style="stroke:#181818;stroke-width:1.0;"/></g><!--link Member to MemberFilterFn--><g id="link_Member_MemberFilterFn"><path codeLine="94" d="M455.92,558.76 C479.81,597.31 504.5086,637.1704 520.9986,663.7704 " fill="none" id="Member-to-MemberFilterFn" style="stroke:#181818;stroke-width:1.0;stroke-dasharray:7.0,7.0;"/><polygon fill="#181818" points="524.16,668.87,522.8177,659.113,521.5255,664.6203,516.0182,663.3282,524.16,668.87" style="stroke:#181818;stroke-width:1.0;"/></g><!--link SourceFileFilterFn to ProjectView--><g id="link_SourceFileFilterFn_ProjectView"><path codeLine="95" d="M677.64,717.29 C661.54,725.57 642.92,734.6 625.5,741.75 C530.21,780.83 420.8942,813.7594 354.0042,832.6494 " fill="none" id="SourceFileFilterFn-to-ProjectView" style="stroke:#181818;stroke-width:1.0;stroke-dasharray:7.0,7.0;"/><polygon fill="#181818" points="348.23,834.28,357.9783,835.6835,353.0418,832.9211,355.8042,827.9846,348.23,834.28" style="stroke:#181818;stroke-width:1.0;"/></g><!--link ProjectFile to ProjectView--><g id="link_ProjectFile_ProjectView"><path codeLine="96" d="M255.83,741.93 C262.28,760.84 267.7449,776.8506 274.1949,795.7806 " fill="none" id="ProjectFile-to-ProjectView" style="stroke:#181818;stroke-width:1.0;stroke-dasharray:7.0,7.0;"/><polygon fill="#181818" points="276.13,801.46,277.0136,791.6509,274.5174,796.7272,269.4411,794.231,276.13,801.46" style="stroke:#181818;stroke-width:1.0;"/></g><!--link Member to ProjectView--><g id="link_Member_ProjectView"><path codeLine="97" d="M379.45,584.67 C356.39,654.9 328.1519,740.8995 310.0919,795.8995 " fill="none" id="Member-to-ProjectView" style="stroke:#181818;stroke-width:1.0;stroke-dasharray:7.0,7.0;"/><polygon fill="#181818" points="308.22,801.6,314.8281,794.2971,309.7799,796.8495,307.2274,791.8013,308.22,801.6" style="stroke:#181818;stroke-width:1.0;"/></g><!--link FilterSet to ProjectView--><g id="link_FilterSet_ProjectView"><path codeLine="98" d="M901.77,518.45 C937.57,570.84 996.57,676.78 941.5,741.75 C903.1,787.05 504.6324,829.2755 354.3124,843.7355 " fill="none" id="FilterSet-to-ProjectView" style="stroke:#181818;stroke-width:1.0;"/><polygon fill="#181818" points="348.34,844.31,357.6817,847.4298,353.317,843.8312,356.9156,839.4666,348.34,844.31" style="stroke:#181818;stroke-width:1.0;"/></g><!--link MemberType to ProjectView--><g id="link_MemberType_ProjectView"><path codeLine="99" d="M60.77,328.22 C55.06,428.94 57.95,612.92 137.5,741.75 C160.66,779.25 196.9559,804.2943 231.2359,822.2643 " fill="none" id="MemberType-to-ProjectView" style="stroke:#181818;stroke-width:1.0;stroke-dasharray:7.0,7.0;"/><polygon fill="#181818" points="236.55,825.05,230.436,817.3287,232.1216,822.7286,226.7217,824.4142,236.55,825.05" style="stroke:#181818;stroke-width:1.0;"/></g><!--link Dependency to ProjectView--><g id="link_Dependency_ProjectView"><path codeLine="100" d="M213.58,303.45 C173.99,393.62 103.24,592.62 170.5,741.75 C184.27,772.27 206.5854,794.0802 231.7954,812.5002 " fill="none" id="Dependency-to-ProjectView" style="stroke:#181818;stroke-width:1.0;stroke-dasharray:7.0,7.0;"/><polygon fill="#181818" points="236.64,816.04,231.733,807.5006,232.6028,813.0902,227.0133,813.9601,236.64,816.04" style="stroke:#181818;stroke-width:1.0;"/></g><!--link Member to Diagram--><g id="link_Member_Diagram"><path codeLine="101" d="M455.73,499.85 C532.01,522.83 692,575.24 815.5,644.28 C823.88,648.97 827.545,651.1208 835.485,656.9208 " fill="none" id="Member-to-Diagram" style="stroke:#181818;stroke-width:1.0;stroke-dasharray:7.0,7.0;"/><polygon fill="#181818" points="840.33,660.46,835.4219,651.9212,836.2925,657.5107,830.703,658.3812,840.33,660.46" style="stroke:#181818;stroke-width:1.0;"/></g><!--link FilterSet to Diagram--><g id="link_FilterSet_Diagram"><path codeLine="102" d="M878.5,518.65 C878.5,557.16 878.5,615.88 878.5,654.41 " fill="none" id="FilterSet-to-Diagram" style="stroke:#181818;stroke-width:1.0;"/><polygon fill="#181818" points="878.5,660.41,882.5,651.41,878.5,655.41,874.5,651.41,878.5,660.41" style="stroke:#181818;stroke-width:1.0;"/></g><!--link Diagram to RelationDiagram--><g id="link_Diagram_RelationDiagram"><path codeLine="103" d="M878.5,725.47 C878.5,755.29 878.5,781.37 878.5,808.16 " fill="none" id="Diagram-to-RelationDiagram" style="stroke:#181818;stroke-width:1.0;"/><polygon fill="none" points="878.5,826.16,884.5,808.16,872.5,808.16,878.5,826.16" style="stroke:#181818;stroke-width:1.0;"/></g><!--link Member to RelationDiagram--><g id="link_Member_RelationDiagram"><path codeLine="104" d="M402.55,584.55 C403.12,637.25 413.34,699.93 451.5,741.75 C498.59,793.35 690.1027,825.3866 799.2427,839.9466 " fill="none" id="Member-to-RelationDiagram" style="stroke:#181818;stroke-width:1.0;stroke-dasharray:7.0,7.0;"/><polygon fill="#181818" points="805.19,840.74,796.798,835.585,800.2339,840.0788,795.7401,843.5148,805.19,840.74" style="stroke:#181818;stroke-width:1.0;"/></g><!--link RelationEdge to RelationDiagram--><g id="link_RelationEdge_RelationDiagram"><path codeLine="105" d="M1029.18,738.98 C990.29,767.5 946.4183,799.6716 915.0983,822.6416 " fill="none" id="RelationEdge-to-RelationDiagram" style="stroke:#181818;stroke-width:1.0;stroke-dasharray:7.0,7.0;"/><polygon fill="#181818" points="910.26,826.19,919.883,824.0929,914.2919,823.233,915.1518,817.6419,910.26,826.19" style="stroke:#181818;stroke-width:1.0;"/></g><!--link RelationType to RelationEdge--><g id="link_RelationType_RelationEdge"><path codeLine="106" d="M1090.5,543.35 C1090.5,574.87 1090.5,607.76 1090.5,637.86 " fill="none" id="RelationType-to-RelationEdge" style="stroke:#181818;stroke-width:1.0;stroke-dasharray:7.0,7.0;"/><polygon fill="#181818" points="1090.5,643.86,1094.5,634.86,1090.5,638.86,1086.5,634.86,1090.5,643.86" style="stroke:#181818;stroke-width:1.0;"/></g><!--link Member to RelationEdge--><g id="link_Member_RelationEdge"><path codeLine="107" d="M455.92,499.9 C547.11,526.31 761.97,588.91 941.5,644.28 C970.44,653.21 996.7299,661.5675 1023.6299,670.2475 " fill="none" id="Member-to-RelationEdge" style="stroke:#181818;stroke-width:1.0;stroke-dasharray:7.0,7.0;"/><polygon fill="#181818" points="1029.34,672.09,1022.0032,665.5195,1024.5816,670.5546,1019.5465,673.133,1029.34,672.09" style="stroke:#181818;stroke-width:1.0;"/></g><!--link RelationDiagram to PlantUMLClassDiagram--><g id="link_RelationDiagram_PlantUMLClassDiagram"><path codeLine="108" d="M858.66,874.85 C838.45,898.65 818.9603,921.5988 798.8203,945.3188 " fill="none" id="RelationDiagram-to-PlantUMLClassDiagram" style="stroke:#181818;stroke-width:1.0;"/><polygon fill="none" points="787.17,959.04,803.394,949.2022,794.2466,941.4354,787.17,959.04" style="stroke:#181818;stroke-width:1.0;"/></g><!--link RelationDiagram to MermaidClassDiagram--><g id="link_RelationDiagram_MermaidClassDiagram"><path codeLine="109" d="M898.34,874.85 C918.55,898.65 938.0397,921.5988 958.1797,945.3188 " fill="none" id="RelationDiagram-to-MermaidClassDiagram" style="stroke:#181818;stroke-width:1.0;"/><polygon fill="none" points="969.83,959.04,962.7534,941.4354,953.606,949.2022,969.83,959.04" style="stroke:#181818;stroke-width:1.0;"/></g><!--SRC=[dLNRRjim37tFL_W7qaye43G9Lc31ilNohjYCeS6M34h14hJzzz6ovOYKinRBMmwfmqFnKDR60nvL2SLZsrdqnTkYeD_RKKDJVHJ6Li00NO7nclwWOxZ3Sl6nq1FRpnFWPMShIYsLrzPiJH9TGsbHUOkVbJEg1SQxXWuCQIWlugX5NMlp9JOmfpOX-X5E2ZfIs2WCoXc-9x05KYEpXtuO-WrGUrNp1lPeEq0lvJjee9G4dr_73je3u7znLT0v0OnDSBWZmHpnbsv65dE9MnsSHrLw0M_ElScWYbCOz3yJeUZXeL6ELtsCJJDqGomCs9vCcKtjMIf-LQZLeSb6yvikRgiRgSRP4uh2EgmBbzY6RXoHbhtyWfY8-mdaLdK8LRyMu4Jz4Kwmfr2vbpIGiJKQRcyA34N7Bbur_15bZo7HIGnkDQ766HO3yLghcin_WpHB_mLDM9_nM28xHZPLBIywizOHBP-ljz4xaMR6FQkwHgZpxLqvPqkTum-MfkbqXc_E7ephqJZIVQECVzbz3_wChGsX7M2hTCKYrwQfH4jFf-mNpdn5d5V84Ngbg7hsNDtTtITlM18FaS4PY-ixcu3J2vHWoHucwFX9w95aDyRa39xi6oAJzmK-OsYU84oT51EHd2cLrFj_aMwqZELT1FYwiylbt87fZjAGkFqRPQ8fU8c8nlLQBj_li-L9M6I8RTE_4YRbwOavve0Bba7MhFjdCsUMuIy0]--></g></svg>
