<?xml version="1.0" encoding="us-ascii" standalone="no"?>
<svg xmlns="http://www.w3.org/2000/svg" contentStyleType="text/css" height="1146px" preserveAspectRatio="none"
     style="width:1329px;height:1146px;background:#FFFFFF;" version="1.1" viewBox="0 0 1329 1146" width="1329px"
     zoomAndPan="magnify"><defs/><g><!--class Import--><g id="elem_Import"><rect codeLine="1" fill="#F1F1F1" height="97.4648" id="Import" rx="2.5" ry="2.5" style="stroke:#181818;stroke-width:0.5;" width="195" x="265.5" y="445.59"/><ellipse cx="335.75" cy="461.59" fill="#B4A7E5" rx="11" ry="11" style="stroke:#181818;stroke-width:1.0;"/><path d="M331.6777,457.3551 L331.6777,455.1969 L339.0571,455.1969 L339.0571,457.3551 L336.5918,457.3551 L336.5918,465.4318 L339.0571,465.4318 L339.0571,467.59 L331.6777,467.59 L331.6777,465.4318 L334.1431,465.4318 L334.1431,457.3551 Z " fill="#000000"/><text fill="#000000" font-family="sans-serif" font-size="14" font-style="italic" lengthAdjust="spacing" textLength="46" x="356.25" y="466.881">Import</text><line style="stroke:#181818;stroke-width:0.5;" x1="266.5" x2="459.5" y1="477.59" y2="477.59"/><text fill="#000000" font-family="sans-serif" font-size="14" lengthAdjust="spacing" textLength="183" x="271.5" y="495.1252">node: ts.ImportDeclaration</text><text fill="#000000" font-family="sans-serif" font-size="14" lengthAdjust="spacing" textLength="127" x="271.5" y="511.6134">identifiers: string[]</text><text fill="#000000" font-family="sans-serif" font-size="14" lengthAdjust="spacing" textLength="68" x="271.5" y="528.1017">src: string</text><line style="stroke:#181818;stroke-width:0.5;" x1="266.5" x2="459.5" y1="535.0548" y2="535.0548"/></g><!--class Comment--><g id="elem_Comment"><rect codeLine="7" fill="#F1F1F1" height="97.4648" id="Comment" rx="2.5" ry="2.5" style="stroke:#181818;stroke-width:0.5;" width="105" x="911.5" y="15.24"/><ellipse cx="929.2" cy="31.24" fill="#B4A7E5" rx="11" ry="11" style="stroke:#181818;stroke-width:1.0;"/><path d="M925.1277,27.0051 L925.1277,24.8469 L932.5071,24.8469 L932.5071,27.0051 L930.0418,27.0051 L930.0418,35.0818 L932.5071,35.0818 L932.5071,37.24 L925.1277,37.24 L925.1277,35.0818 L927.5931,35.0818 L927.5931,27.0051 Z " fill="#000000"/><text fill="#000000" font-family="sans-serif" font-size="14" font-style="italic" lengthAdjust="spacing" textLength="67" x="943.8" y="36.531">Comment</text><line style="stroke:#181818;stroke-width:0.5;" x1="912.5" x2="1015.5" y1="47.24" y2="47.24"/><text fill="#000000" font-family="sans-serif" font-size="14" lengthAdjust="spacing" textLength="75" x="917.5" y="64.7752">text: string</text><text fill="#000000" font-family="sans-serif" font-size="14" lengthAdjust="spacing" textLength="93" x="917.5" y="81.2634">start: number</text><text fill="#000000" font-family="sans-serif" font-size="14" lengthAdjust="spacing" textLength="88" x="917.5" y="97.7517">end: number</text><line style="stroke:#181818;stroke-width:0.5;" x1="912.5" x2="1015.5" y1="104.7048" y2="104.7048"/></g><!--class ResolvedNode--><g id="elem_ResolvedNode"><rect codeLine="13" fill="#F1F1F1" height="80.9766" id="ResolvedNode" rx="2.5" ry="2.5" style="stroke:#181818;stroke-width:0.5;" width="129" x="1051.5" y="23.49"/><ellipse cx="1066.5" cy="39.49" fill="#B4A7E5" rx="11" ry="11" style="stroke:#181818;stroke-width:1.0;"/><path d="M1062.4277,35.2551 L1062.4277,33.0969 L1069.8071,33.0969 L1069.8071,35.2551 L1067.3418,35.2551 L1067.3418,43.3318 L1069.8071,43.3318 L1069.8071,45.49 L1062.4277,45.49 L1062.4277,43.3318 L1064.8931,43.3318 L1064.8931,35.2551 Z " fill="#000000"/><text fill="#000000" font-family="sans-serif" font-size="14" font-style="italic" lengthAdjust="spacing" textLength="97" x="1080.5" y="44.781">ResolvedNode</text><line style="stroke:#181818;stroke-width:0.5;" x1="1052.5" x2="1179.5" y1="55.49" y2="55.49"/><text fill="#000000" font-family="sans-serif" font-size="14" lengthAdjust="spacing" textLength="102" x="1057.5" y="73.0252">selector: string</text><text fill="#000000" font-family="sans-serif" font-size="14" lengthAdjust="spacing" textLength="95" x="1057.5" y="89.5134">node: ts.Node</text><line style="stroke:#181818;stroke-width:0.5;" x1="1052.5" x2="1179.5" y1="96.4666" y2="96.4666"/></g><!--class Decorator--><g id="elem_Decorator"><rect codeLine="18" fill="#F1F1F1" height="80.9766" id="Decorator" rx="2.5" ry="2.5" style="stroke:#181818;stroke-width:0.5;" width="139" x="550.5" y="213.93"/><ellipse cx="583.05" cy="229.93" fill="#B4A7E5" rx="11" ry="11" style="stroke:#181818;stroke-width:1.0;"/><path d="M578.9777,225.6951 L578.9777,223.5369 L586.3571,223.5369 L586.3571,225.6951 L583.8918,225.6951 L583.8918,233.7718 L586.3571,233.7718 L586.3571,235.93 L578.9777,235.93 L578.9777,233.7718 L581.4431,233.7718 L581.4431,225.6951 Z " fill="#000000"/><text fill="#000000" font-family="sans-serif" font-size="14" font-style="italic" lengthAdjust="spacing" textLength="68" x="600.95" y="235.221">Decorator</text><line style="stroke:#181818;stroke-width:0.5;" x1="551.5" x2="688.5" y1="245.93" y2="245.93"/><text fill="#000000" font-family="sans-serif" font-size="14" lengthAdjust="spacing" textLength="127" x="556.5" y="263.4652">node: ts.Decorator</text><text fill="#000000" font-family="sans-serif" font-size="14" lengthAdjust="spacing" textLength="86" x="556.5" y="279.9534">name: string</text><line style="stroke:#181818;stroke-width:0.5;" x1="551.5" x2="688.5" y1="286.9066" y2="286.9066"/></g><!--class Dependency--><g id="elem_Dependency"><rect codeLine="23" fill="#F1F1F1" height="97.4648" id="Dependency" rx="2.5" ry="2.5" style="stroke:#181818;stroke-width:0.5;" width="188" x="7" y="205.68"/><ellipse cx="54.75" cy="221.68" fill="#B4A7E5" rx="11" ry="11" style="stroke:#181818;stroke-width:1.0;"/><path d="M50.6777,217.4451 L50.6777,215.2869 L58.0571,215.2869 L58.0571,217.4451 L55.5918,217.4451 L55.5918,225.5218 L58.0571,225.5218 L58.0571,227.68 L50.6777,227.68 L50.6777,225.5218 L53.1431,225.5218 L53.1431,217.4451 Z " fill="#000000"/><text fill="#000000" font-family="sans-serif" font-size="14" font-style="italic" lengthAdjust="spacing" textLength="84" x="75.25" y="226.971">Dependency</text><line style="stroke:#181818;stroke-width:0.5;" x1="8" x2="194" y1="237.68" y2="237.68"/><text fill="#000000" font-family="sans-serif" font-size="14" lengthAdjust="spacing" textLength="176" x="13" y="255.2152">origin: DependencyOrigin</text><text fill="#000000" font-family="sans-serif" font-size="14" lengthAdjust="spacing" textLength="95" x="13" y="271.7034">node: ts.Node</text><text fill="#000000" font-family="sans-serif" font-size="14" lengthAdjust="spacing" textLength="86" x="13" y="288.1917">name: string</text><line style="stroke:#181818;stroke-width:0.5;" x1="8" x2="194" y1="295.1448" y2="295.1448"/></g><!--class DependencyOrigin--><g id="elem_DependencyOrigin"><rect codeLine="29" fill="#F1F1F1" height="113.9531" id="DependencyOrigin" rx="2.5" ry="2.5" style="stroke:#181818;stroke-width:0.5;" width="159" x="21.5" y="7"/><ellipse cx="36.5" cy="23" fill="#EB937F" rx="11" ry="11" style="stroke:#181818;stroke-width:1.0;"/><path d="M40.6143,29 L32.8945,29 L32.8945,16.6069 L40.6143,16.6069 L40.6143,18.7651 L35.3433,18.7651 L35.3433,21.438 L40.1162,21.438 L40.1162,23.5962 L35.3433,23.5962 L35.3433,26.8418 L40.6143,26.8418 Z " fill="#000000"/><text fill="#000000" font-family="sans-serif" font-size="14" lengthAdjust="spacing" textLength="127" x="50.5" y="28.291">DependencyOrigin</text><line style="stroke:#181818;stroke-width:0.5;" x1="22.5" x2="179.5" y1="39" y2="39"/><text fill="#000000" font-family="sans-serif" font-size="14" lengthAdjust="spacing" textLength="78" x="27.5" y="56.5352">Declaration</text><text fill="#000000" font-family="sans-serif" font-size="14" lengthAdjust="spacing" textLength="70" x="27.5" y="73.0234">Parameter</text><text fill="#000000" font-family="sans-serif" font-size="14" lengthAdjust="spacing" textLength="68" x="27.5" y="89.5117">Decorator</text><text fill="#000000" font-family="sans-serif" font-size="14" lengthAdjust="spacing" textLength="58" x="27.5" y="106">Heritage</text><line style="stroke:#181818;stroke-width:0.5;" x1="22.5" x2="179.5" y1="112.9531" y2="112.9531"/></g><!--class MethodParam--><g id="elem_MethodParam"><rect codeLine="36" fill="#F1F1F1" height="97.4648" id="MethodParam" rx="2.5" ry="2.5" style="stroke:#181818;stroke-width:0.5;" width="128" x="749" y="15.24"/><ellipse cx="764.45" cy="31.24" fill="#B4A7E5" rx="11" ry="11" style="stroke:#181818;stroke-width:1.0;"/><path d="M760.3777,27.0051 L760.3777,24.8469 L767.7571,24.8469 L767.7571,27.0051 L765.2918,27.0051 L765.2918,35.0818 L767.7571,35.0818 L767.7571,37.24 L760.3777,37.24 L760.3777,35.0818 L762.8431,35.0818 L762.8431,27.0051 Z " fill="#000000"/><text fill="#000000" font-family="sans-serif" font-size="14" font-style="italic" lengthAdjust="spacing" textLength="95" x="778.55" y="36.531">MethodParam</text><line style="stroke:#181818;stroke-width:0.5;" x1="750" x2="876" y1="47.24" y2="47.24"/><text fill="#000000" font-family="sans-serif" font-size="14" lengthAdjust="spacing" textLength="95" x="755" y="64.7752">node: ts.Node</text><text fill="#000000" font-family="sans-serif" font-size="14" lengthAdjust="spacing" textLength="86" x="755" y="81.2634">name: string</text><text fill="#000000" font-family="sans-serif" font-size="14" lengthAdjust="spacing" textLength="116" x="755" y="97.7517">typeName: string</text><line style="stroke:#181818;stroke-width:0.5;" x1="750" x2="876" y1="104.7048" y2="104.7048"/></g><!--class Method--><g id="elem_Method"><rect codeLine="42" fill="#F1F1F1" height="130.4414" id="Method" rx="2.5" ry="2.5" style="stroke:#181818;stroke-width:0.5;" width="176" x="725" y="189.19"/><ellipse cx="782.75" cy="205.19" fill="#B4A7E5" rx="11" ry="11" style="stroke:#181818;stroke-width:1.0;"/><path d="M778.6777,200.9551 L778.6777,198.7969 L786.0571,198.7969 L786.0571,200.9551 L783.5918,200.9551 L783.5918,209.0318 L786.0571,209.0318 L786.0571,211.19 L778.6777,211.19 L778.6777,209.0318 L781.1431,209.0318 L781.1431,200.9551 Z " fill="#000000"/><text fill="#000000" font-family="sans-serif" font-size="14" font-style="italic" lengthAdjust="spacing" textLength="52" x="803.25" y="210.481">Method</text><line style="stroke:#181818;stroke-width:0.5;" x1="726" x2="900" y1="221.19" y2="221.19"/><text fill="#000000" font-family="sans-serif" font-size="14" lengthAdjust="spacing" textLength="102" x="731" y="238.7252">selector: string</text><text fill="#000000" font-family="sans-serif" font-size="14" lengthAdjust="spacing" textLength="95" x="731" y="255.2134">node: ts.Node</text><text fill="#000000" font-family="sans-serif" font-size="14" lengthAdjust="spacing" textLength="86" x="731" y="271.7017">name: string</text><text fill="#000000" font-family="sans-serif" font-size="14" lengthAdjust="spacing" textLength="116" x="731" y="288.19">typeName: string</text><text fill="#000000" font-family="sans-serif" font-size="14" lengthAdjust="spacing" textLength="164" x="731" y="304.6783">params: MethodParam[]</text><line style="stroke:#181818;stroke-width:0.5;" x1="726" x2="900" y1="311.6314" y2="311.6314"/></g><!--class Property--><g id="elem_Property"><rect codeLine="50" fill="#F1F1F1" height="113.9531" id="Property" rx="2.5" ry="2.5" style="stroke:#181818;stroke-width:0.5;" width="128" x="387" y="197.44"/><ellipse cx="419.1" cy="213.44" fill="#B4A7E5" rx="11" ry="11" style="stroke:#181818;stroke-width:1.0;"/><path d="M415.0277,209.2051 L415.0277,207.0469 L422.4071,207.0469 L422.4071,209.2051 L419.9418,209.2051 L419.9418,217.2818 L422.4071,217.2818 L422.4071,219.44 L415.0277,219.44 L415.0277,217.2818 L417.4931,217.2818 L417.4931,209.2051 Z " fill="#000000"/><text fill="#000000" font-family="sans-serif" font-size="14" font-style="italic" lengthAdjust="spacing" textLength="58" x="436.9" y="218.731">Property</text><line style="stroke:#181818;stroke-width:0.5;" x1="388" x2="514" y1="229.44" y2="229.44"/><text fill="#000000" font-family="sans-serif" font-size="14" lengthAdjust="spacing" textLength="102" x="393" y="246.9752">selector: string</text><text fill="#000000" font-family="sans-serif" font-size="14" lengthAdjust="spacing" textLength="95" x="393" y="263.4634">node: ts.Node</text><text fill="#000000" font-family="sans-serif" font-size="14" lengthAdjust="spacing" textLength="86" x="393" y="279.9517">name: string</text><text fill="#000000" font-family="sans-serif" font-size="14" lengthAdjust="spacing" textLength="116" x="393" y="296.44">typeName: string</text><line style="stroke:#181818;stroke-width:0.5;" x1="388" x2="514" y1="303.3931" y2="303.3931"/></g><!--class Member--><g id="elem_Member"><rect codeLine="57" fill="#F1F1F1" height="212.8828" id="Member" rx="2.5" ry="2.5" style="stroke:#181818;stroke-width:0.5;" width="172" x="495" y="387.88"/><ellipse cx="548.75" cy="403.88" fill="#B4A7E5" rx="11" ry="11" style="stroke:#181818;stroke-width:1.0;"/><path d="M544.6777,399.6451 L544.6777,397.4869 L552.0571,397.4869 L552.0571,399.6451 L549.5918,399.6451 L549.5918,407.7218 L552.0571,407.7218 L552.0571,409.88 L544.6777,409.88 L544.6777,407.7218 L547.1431,407.7218 L547.1431,399.6451 Z " fill="#000000"/><text fill="#000000" font-family="sans-serif" font-size="14" font-style="italic" lengthAdjust="spacing" textLength="56" x="569.25" y="409.171">Member</text><line style="stroke:#181818;stroke-width:0.5;" x1="496" x2="666" y1="419.88" y2="419.88"/><text fill="#000000" font-family="sans-serif" font-size="14" lengthAdjust="spacing" textLength="102" x="501" y="437.4152">selector: string</text><text fill="#000000" font-family="sans-serif" font-size="14" lengthAdjust="spacing" textLength="95" x="501" y="453.9034">node: ts.Node</text><text fill="#000000" font-family="sans-serif" font-size="14" lengthAdjust="spacing" textLength="135" x="501" y="470.3917">deps: Dependency[]</text><text fill="#000000" font-family="sans-serif" font-size="14" lengthAdjust="spacing" textLength="160" x="501" y="486.88">decorators: Decorator[]</text><text fill="#000000" font-family="sans-serif" font-size="14" lengthAdjust="spacing" textLength="116" x="501" y="503.3683">props: Property[]</text><text fill="#000000" font-family="sans-serif" font-size="14" lengthAdjust="spacing" textLength="130" x="501" y="519.8566">methods: Method[]</text><text fill="#000000" font-family="sans-serif" font-size="14" lengthAdjust="spacing" textLength="126" x="501" y="536.3448">type: MemberType</text><text fill="#000000" font-family="sans-serif" font-size="14" lengthAdjust="spacing" textLength="86" x="501" y="552.8331">name: string</text><text fill="#000000" font-family="sans-serif" font-size="14" lengthAdjust="spacing" textLength="132" x="501" y="569.3214">isAbstract: boolean</text><text fill="#000000" font-family="sans-serif" font-size="14" lengthAdjust="spacing" textLength="138" x="501" y="585.8097">isExported: boolean</text><line style="stroke:#181818;stroke-width:0.5;" x1="496" x2="666" y1="592.7628" y2="592.7628"/></g><!--class MemberType--><g id="elem_MemberType"><rect codeLine="70" fill="#F1F1F1" height="146.9297" id="MemberType" rx="2.5" ry="2.5" style="stroke:#181818;stroke-width:0.5;" width="121" x="230.5" y="180.95"/><ellipse cx="245.5" cy="196.95" fill="#EB937F" rx="11" ry="11" style="stroke:#181818;stroke-width:1.0;"/><path d="M249.6143,202.95 L241.8945,202.95 L241.8945,190.5569 L249.6143,190.5569 L249.6143,192.7151 L244.3433,192.7151 L244.3433,195.388 L249.1162,195.388 L249.1162,197.5462 L244.3433,197.5462 L244.3433,200.7918 L249.6143,200.7918 Z " fill="#000000"/><text fill="#000000" font-family="sans-serif" font-size="14" lengthAdjust="spacing" textLength="89" x="259.5" y="202.241">MemberType</text><line style="stroke:#181818;stroke-width:0.5;" x1="231.5" x2="350.5" y1="212.95" y2="212.95"/><text fill="#000000" font-family="sans-serif" font-size="14" lengthAdjust="spacing" textLength="36" x="236.5" y="230.4852">Class</text><text fill="#000000" font-family="sans-serif" font-size="14" lengthAdjust="spacing" textLength="60" x="236.5" y="246.9734">Interface</text><text fill="#000000" font-family="sans-serif" font-size="14" lengthAdjust="spacing" textLength="39" x="236.5" y="263.4617">Enum</text><text fill="#000000" font-family="sans-serif" font-size="14" lengthAdjust="spacing" textLength="60" x="236.5" y="279.95">Function</text><text fill="#000000" font-family="sans-serif" font-size="14" lengthAdjust="spacing" textLength="33" x="236.5" y="296.4383">Type</text><text fill="#000000" font-family="sans-serif" font-size="14" lengthAdjust="spacing" textLength="56" x="236.5" y="312.9266">Variable</text><line style="stroke:#181818;stroke-width:0.5;" x1="231.5" x2="350.5" y1="319.8797" y2="319.8797"/></g><!--class ProjectFile--><g id="elem_ProjectFile"><rect codeLine="79" fill="#F1F1F1" height="97.4648" id="ProjectFile" rx="2.5" ry="2.5" style="stroke:#181818;stroke-width:0.5;" width="153" x="268.5" y="660.76"/><ellipse cx="306" cy="676.76" fill="#B4A7E5" rx="11" ry="11" style="stroke:#181818;stroke-width:1.0;"/><path d="M301.9277,672.5251 L301.9277,670.3669 L309.3071,670.3669 L309.3071,672.5251 L306.8418,672.5251 L306.8418,680.6018 L309.3071,680.6018 L309.3071,682.76 L301.9277,682.76 L301.9277,680.6018 L304.3931,680.6018 L304.3931,672.5251 Z " fill="#000000"/><text fill="#000000" font-family="sans-serif" font-size="14" font-style="italic" lengthAdjust="spacing" textLength="71" x="325" y="682.051">ProjectFile</text><line style="stroke:#181818;stroke-width:0.5;" x1="269.5" x2="420.5" y1="692.76" y2="692.76"/><text fill="#000000" font-family="sans-serif" font-size="14" lengthAdjust="spacing" textLength="141" x="274.5" y="710.2952">source: ts.SourceFile</text><text fill="#000000" font-family="sans-serif" font-size="14" lengthAdjust="spacing" textLength="117" x="274.5" y="726.7834">imports: Import[]</text><text fill="#000000" font-family="sans-serif" font-size="14" lengthAdjust="spacing" textLength="138" x="274.5" y="743.2717">members: Member[]</text><line style="stroke:#181818;stroke-width:0.5;" x1="269.5" x2="420.5" y1="750.2248" y2="750.2248"/></g><!--class FilterSet--><g id="elem_FilterSet"><rect codeLine="85" fill="#F1F1F1" height="113.9531" id="FilterSet" rx="2.5" ry="2.5" style="stroke:#181818;stroke-width:0.5;" width="185" x="928.5" y="437.34"/><ellipse cx="988.75" cy="453.34" fill="#ADD1B2" rx="11" ry="11" style="stroke:#181818;stroke-width:1.0;"/><path d="M991.7231,458.9831 Q991.1421,459.2819 990.5029,459.4313 Q989.8638,459.5807 989.1582,459.5807 Q986.6514,459.5807 985.3315,457.9289 Q984.0117,456.277 984.0117,453.1559 Q984.0117,450.0265 985.3315,448.3747 Q986.6514,446.7228 989.1582,446.7228 Q989.8638,446.7228 990.5112,446.8722 Q991.1587,447.0216 991.7231,447.3205 L991.7231,450.0431 Q991.0923,449.4621 990.4988,449.1923 Q989.9053,448.9225 989.2744,448.9225 Q987.9297,448.9225 987.2449,449.9892 Q986.5601,451.0558 986.5601,453.1559 Q986.5601,455.2477 987.2449,456.3144 Q987.9297,457.381 989.2744,457.381 Q989.9053,457.381 990.4988,457.1112 Q991.0923,456.8415 991.7231,456.2604 Z " fill="#000000"/><text fill="#000000" font-family="sans-serif" font-size="14" lengthAdjust="spacing" textLength="56" x="1009.25" y="458.631">FilterSet</text><line style="stroke:#181818;stroke-width:0.5;" x1="929.5" x2="1112.5" y1="469.34" y2="469.34"/><text fill="#000000" font-family="sans-serif" font-size="14" lengthAdjust="spacing" textLength="173" x="934.5" y="486.8752">predicates: Predicate&lt;T&gt;</text><line style="stroke:#181818;stroke-width:0.5;" x1="929.5" x2="1112.5" y1="493.8283" y2="493.8283"/><text fill="#000000" font-family="sans-serif" font-size="14" lengthAdjust="spacing" textLength="68" x="934.5" y="511.3634">add(filter)</text><text fill="#000000" font-family="sans-serif" font-size="14" lengthAdjust="spacing" textLength="93" x="934.5" y="527.8517">remove(filter)</text><text fill="#000000" font-family="sans-serif" font-size="14" lengthAdjust="spacing" textLength="148" x="934.5" y="544.34">apply(target, options)</text></g><!--class Predicate--><g id="elem_Predicate"><rect codeLine="92" fill="#F1F1F1" height="48" id="Predicate" rx="2.5" ry="2.5" style="stroke:#181818;stroke-width:0.5;" width="95" x="935.5" y="230.41"/><ellipse cx="950.5" cy="246.41" fill="#B4A7E5" rx="11" ry="11" style="stroke:#181818;stroke-width:1.0;"/><path d="M946.4277,242.1751 L946.4277,240.0169 L953.8071,240.0169 L953.8071,242.1751 L951.3418,242.1751 L951.3418,250.2518 L953.8071,250.2518 L953.8071,252.41 L946.4277,252.41 L946.4277,250.2518 L948.8931,250.2518 L948.8931,242.1751 Z " fill="#000000"/><text fill="#000000" font-family="sans-serif" font-size="14" font-style="italic" lengthAdjust="spacing" textLength="63" x="964.5" y="251.701">Predicate</text><line style="stroke:#181818;stroke-width:0.5;" x1="936.5" x2="1029.5" y1="262.41" y2="262.41"/><line style="stroke:#181818;stroke-width:0.5;" x1="936.5" x2="1029.5" y1="270.41" y2="270.41"/></g><!--class SourceFileFilterFn--><g id="elem_SourceFileFilterFn"><rect codeLine="93" fill="#F1F1F1" height="48" id="SourceFileFilterFn" rx="2.5" ry="2.5" style="stroke:#181818;stroke-width:0.5;" width="155" x="773.5" y="685.49"/><ellipse cx="788.5" cy="701.49" fill="#B4A7E5" rx="11" ry="11" style="stroke:#181818;stroke-width:1.0;"/><path d="M784.4277,697.2551 L784.4277,695.0969 L791.8071,695.0969 L791.8071,697.2551 L789.3418,697.2551 L789.3418,705.3318 L791.8071,705.3318 L791.8071,707.49 L784.4277,707.49 L784.4277,705.3318 L786.8931,705.3318 L786.8931,697.2551 Z " fill="#000000"/><text fill="#000000" font-family="sans-serif" font-size="14" font-style="italic" lengthAdjust="spacing" textLength="123" x="802.5" y="706.781">SourceFileFilterFn</text><line style="stroke:#181818;stroke-width:0.5;" x1="774.5" x2="927.5" y1="717.49" y2="717.49"/><line style="stroke:#181818;stroke-width:0.5;" x1="774.5" x2="927.5" y1="725.49" y2="725.49"/></g><!--class MemberFilterFn--><g id="elem_MemberFilterFn"><rect codeLine="94" fill="#F1F1F1" height="48" id="MemberFilterFn" rx="2.5" ry="2.5" style="stroke:#181818;stroke-width:0.5;" width="140" x="599" y="685.49"/><ellipse cx="614" cy="701.49" fill="#B4A7E5" rx="11" ry="11" style="stroke:#181818;stroke-width:1.0;"/><path d="M609.9277,697.2551 L609.9277,695.0969 L617.3071,695.0969 L617.3071,697.2551 L614.8418,697.2551 L614.8418,705.3318 L617.3071,705.3318 L617.3071,707.49 L609.9277,707.49 L609.9277,705.3318 L612.3931,705.3318 L612.3931,697.2551 Z " fill="#000000"/><text fill="#000000" font-family="sans-serif" font-size="14" font-style="italic" lengthAdjust="spacing" textLength="108" x="628" y="706.781">MemberFilterFn</text><line style="stroke:#181818;stroke-width:0.5;" x1="600" x2="738" y1="717.49" y2="717.49"/><line style="stroke:#181818;stroke-width:0.5;" x1="600" x2="738" y1="725.49" y2="725.49"/></g><!--class ProjectView--><g id="elem_ProjectView"><rect codeLine="95" fill="#F1F1F1" height="196.3945" id="ProjectView" rx="2.5" ry="2.5" style="stroke:#181818;stroke-width:0.5;" width="308" x="256" y="818.23"/><ellipse cx="366.25" cy="834.23" fill="#ADD1B2" rx="11" ry="11" style="stroke:#181818;stroke-width:1.0;"/><path d="M369.2231,839.8731 Q368.6421,840.1719 368.0029,840.3213 Q367.3638,840.4707 366.6582,840.4707 Q364.1514,840.4707 362.8315,838.8189 Q361.5117,837.167 361.5117,834.0459 Q361.5117,830.9165 362.8315,829.2647 Q364.1514,827.6128 366.6582,827.6128 Q367.3638,827.6128 368.0112,827.7622 Q368.6587,827.9116 369.2231,828.2105 L369.2231,830.9331 Q368.5923,830.3521 367.9988,830.0823 Q367.4053,829.8125 366.7744,829.8125 Q365.4297,829.8125 364.7449,830.8792 Q364.0601,831.9458 364.0601,834.0459 Q364.0601,836.1377 364.7449,837.2044 Q365.4297,838.271 366.7744,838.271 Q367.4053,838.271 367.9988,838.0012 Q368.5923,837.7315 369.2231,837.1504 Z " fill="#000000"/><text fill="#000000" font-family="sans-serif" font-size="14" lengthAdjust="spacing" textLength="79" x="386.75" y="839.521">ProjectView</text><line style="stroke:#181818;stroke-width:0.5;" x1="257" x2="563" y1="850.23" y2="850.23"/><text fill="#000000" font-family="sans-serif" font-size="14" lengthAdjust="spacing" textLength="103" x="262" y="867.7652">filters: Member</text><text fill="#000000" font-family="sans-serif" font-size="14" lengthAdjust="spacing" textLength="117" x="262" y="884.2534">files: ProjectFile[]</text><text fill="#000000" font-family="sans-serif" font-size="14" lengthAdjust="spacing" textLength="138" x="262" y="900.7417">members: Member[]</text><line style="stroke:#181818;stroke-width:0.5;" x1="257" x2="563" y1="907.6948" y2="907.6948"/><text fill="#000000" font-family="sans-serif" font-size="14" lengthAdjust="spacing" textLength="296" x="262" y="925.23">getDependencyMembers(member, options)</text><text fill="#000000" font-family="sans-serif" font-size="14" lengthAdjust="spacing" textLength="287" x="262" y="941.7183">getDependentMembers(member, options)</text><text fill="#000000" font-family="sans-serif" font-size="14" lengthAdjust="spacing" textLength="173" x="262" y="958.2066">getMembersOfType(type)</text><text fill="#000000" font-family="sans-serif" font-size="14" lengthAdjust="spacing" textLength="180" x="262" y="974.6948">getMemberByName(name)</text><text fill="#000000" font-family="sans-serif" font-size="14" lengthAdjust="spacing" textLength="185" x="262" y="991.1831">getFileOfMember(member)</text><text fill="#000000" font-family="sans-serif" font-size="14" lengthAdjust="spacing" textLength="203" x="262" y="1007.6714">hasMember(memberOrName)</text></g><!--class Diagram--><g id="elem_Diagram"><rect codeLine="107" fill="#F1F1F1" height="97.4648" id="Diagram" rx="2.5" ry="2.5" style="stroke:#181818;stroke-width:0.5;" width="115" x="963.5" y="660.76"/><ellipse cx="989.75" cy="676.76" fill="#A9DCDF" rx="11" ry="11" style="stroke:#181818;stroke-width:1.0;"/><path d="M989.8633,672.1081 L988.7095,677.1799 L991.0254,677.1799 Z M988.3691,669.8669 L991.3657,669.8669 L994.7109,682.26 L992.2622,682.26 L991.4985,679.197 L988.2197,679.197 L987.4727,682.26 L985.0239,682.26 Z " fill="#000000"/><text fill="#000000" font-family="sans-serif" font-size="14" font-style="italic" lengthAdjust="spacing" textLength="58" x="1006.25" y="682.051">Diagram</text><line style="stroke:#181818;stroke-width:0.5;" x1="964.5" x2="1077.5" y1="692.76" y2="692.76"/><text fill="#000000" font-family="sans-serif" font-size="14" lengthAdjust="spacing" textLength="103" x="969.5" y="710.2952">filters: Member</text><line style="stroke:#181818;stroke-width:0.5;" x1="964.5" x2="1077.5" y1="717.2483" y2="717.2483"/><text fill="#000000" font-family="sans-serif" font-size="14" lengthAdjust="spacing" textLength="95" x="969.5" y="734.7834">getMembers()</text><text fill="#000000" font-family="sans-serif" font-size="14" lengthAdjust="spacing" textLength="56" x="969.5" y="751.2717">render()</text></g><!--class RelationDiagram--><g id="elem_RelationDiagram"><rect codeLine="113" fill="#F1F1F1" height="80.9766" id="RelationDiagram" rx="2.5" ry="2.5" style="stroke:#181818;stroke-width:0.5;" width="159" x="941.5" y="875.94"/><ellipse cx="962.35" cy="891.94" fill="#A9DCDF" rx="11" ry="11" style="stroke:#181818;stroke-width:1.0;"/><path d="M962.4633,887.2881 L961.3095,892.3599 L963.6254,892.3599 Z M960.9691,885.0469 L963.9657,885.0469 L967.3109,897.44 L964.8622,897.44 L964.0985,894.377 L960.8197,894.377 L960.0727,897.44 L957.6239,897.44 Z " fill="#000000"/><text fill="#000000" font-family="sans-serif" font-size="14" font-style="italic" lengthAdjust="spacing" textLength="114" x="977.65" y="897.231">RelationDiagram</text><line style="stroke:#181818;stroke-width:0.5;" x1="942.5" x2="1099.5" y1="907.94" y2="907.94"/><line style="stroke:#181818;stroke-width:0.5;" x1="942.5" x2="1099.5" y1="915.94" y2="915.94"/><text fill="#000000" font-family="sans-serif" font-size="14" lengthAdjust="spacing" textLength="147" x="947.5" y="933.4752">getMembers(options)</text><text fill="#000000" font-family="sans-serif" font-size="14" lengthAdjust="spacing" textLength="73" x="947.5" y="949.9634">getEdges()</text></g><!--class RelationEdge--><g id="elem_RelationEdge"><rect codeLine="118" fill="#F1F1F1" height="97.4648" id="RelationEdge" rx="2.5" ry="2.5" style="stroke:#181818;stroke-width:0.5;" width="138" x="1184" y="660.76"/><ellipse cx="1206.2" cy="676.76" fill="#B4A7E5" rx="11" ry="11" style="stroke:#181818;stroke-width:1.0;"/><path d="M1202.1277,672.5251 L1202.1277,670.3669 L1209.5071,670.3669 L1209.5071,672.5251 L1207.0418,672.5251 L1207.0418,680.6018 L1209.5071,680.6018 L1209.5071,682.76 L1202.1277,682.76 L1202.1277,680.6018 L1204.5931,680.6018 L1204.5931,672.5251 Z " fill="#000000"/><text fill="#000000" font-family="sans-serif" font-size="14" font-style="italic" lengthAdjust="spacing" textLength="90" x="1221.8" y="682.051">RelationEdge</text><line style="stroke:#181818;stroke-width:0.5;" x1="1185" x2="1321" y1="692.76" y2="692.76"/><text fill="#000000" font-family="sans-serif" font-size="14" lengthAdjust="spacing" textLength="126" x="1190" y="710.2952">type: RelationType</text><text fill="#000000" font-family="sans-serif" font-size="14" lengthAdjust="spacing" textLength="97" x="1190" y="726.7834">from: Member</text><text fill="#000000" font-family="sans-serif" font-size="14" lengthAdjust="spacing" textLength="78" x="1190" y="743.2717">to: Member</text><line style="stroke:#181818;stroke-width:0.5;" x1="1185" x2="1321" y1="750.2248" y2="750.2248"/></g><!--class RelationType--><g id="elem_RelationType"><rect codeLine="124" fill="#F1F1F1" height="113.9531" id="RelationType" rx="2.5" ry="2.5" style="stroke:#181818;stroke-width:0.5;" width="121" x="1192.5" y="437.34"/><ellipse cx="1207.5" cy="453.34" fill="#EB937F" rx="11" ry="11" style="stroke:#181818;stroke-width:1.0;"/><path d="M1211.6143,459.34 L1203.8945,459.34 L1203.8945,446.9469 L1211.6143,446.9469 L1211.6143,449.1051 L1206.3433,449.1051 L1206.3433,451.778 L1211.1162,451.778 L1211.1162,453.9362 L1206.3433,453.9362 L1206.3433,457.1818 L1211.6143,457.1818 Z " fill="#000000"/><text fill="#000000" font-family="sans-serif" font-size="14" lengthAdjust="spacing" textLength="89" x="1221.5" y="458.631">RelationType</text><line style="stroke:#181818;stroke-width:0.5;" x1="1193.5" x2="1312.5" y1="469.34" y2="469.34"/><text fill="#000000" font-family="sans-serif" font-size="14" lengthAdjust="spacing" textLength="86" x="1198.5" y="486.8752">Aggregation</text><text fill="#000000" font-family="sans-serif" font-size="14" lengthAdjust="spacing" textLength="79" x="1198.5" y="503.3634">Association</text><text fill="#000000" font-family="sans-serif" font-size="14" lengthAdjust="spacing" textLength="88" x="1198.5" y="519.8517">Composition</text><text fill="#000000" font-family="sans-serif" font-size="14" lengthAdjust="spacing" textLength="68" x="1198.5" y="536.34">Extension</text><line style="stroke:#181818;stroke-width:0.5;" x1="1193.5" x2="1312.5" y1="543.2931" y2="543.2931"/></g><!--class PlantUMLClassDiagram--><g id="elem_PlantUMLClassDiagram"><rect codeLine="131" fill="#F1F1F1" height="64.4883" id="PlantUMLClassDiagram" rx="2.5" ry="2.5" style="stroke:#181818;stroke-width:0.5;" width="189" x="815.5" y="1074.62"/><ellipse cx="830.5" cy="1090.62" fill="#ADD1B2" rx="11" ry="11" style="stroke:#181818;stroke-width:1.0;"/><path d="M833.4731,1096.2631 Q832.8921,1096.5619 832.2529,1096.7113 Q831.6138,1096.8607 830.9082,1096.8607 Q828.4014,1096.8607 827.0815,1095.2089 Q825.7617,1093.557 825.7617,1090.4359 Q825.7617,1087.3065 827.0815,1085.6547 Q828.4014,1084.0028 830.9082,1084.0028 Q831.6138,1084.0028 832.2612,1084.1522 Q832.9087,1084.3016 833.4731,1084.6005 L833.4731,1087.3231 Q832.8423,1086.7421 832.2488,1086.4723 Q831.6553,1086.2025 831.0244,1086.2025 Q829.6797,1086.2025 828.9949,1087.2692 Q828.3101,1088.3358 828.3101,1090.4359 Q828.3101,1092.5277 828.9949,1093.5944 Q829.6797,1094.661 831.0244,1094.661 Q831.6553,1094.661 832.2488,1094.3912 Q832.8423,1094.1215 833.4731,1093.5404 Z " fill="#000000"/><text fill="#000000" font-family="sans-serif" font-size="14" lengthAdjust="spacing" textLength="157" x="844.5" y="1095.911">PlantUMLClassDiagram</text><line style="stroke:#181818;stroke-width:0.5;" x1="816.5" x2="1003.5" y1="1106.62" y2="1106.62"/><line style="stroke:#181818;stroke-width:0.5;" x1="816.5" x2="1003.5" y1="1114.62" y2="1114.62"/><text fill="#000000" font-family="sans-serif" font-size="14" lengthAdjust="spacing" textLength="108" x="821.5" y="1132.1552">render(options)</text></g><!--class MermaidClassDiagram--><g id="elem_MermaidClassDiagram"><rect codeLine="135" fill="#F1F1F1" height="64.4883" id="MermaidClassDiagram" rx="2.5" ry="2.5" style="stroke:#181818;stroke-width:0.5;" width="186" x="1039" y="1074.62"/><ellipse cx="1054" cy="1090.62" fill="#ADD1B2" rx="11" ry="11" style="stroke:#181818;stroke-width:1.0;"/><path d="M1056.9731,1096.2631 Q1056.3921,1096.5619 1055.7529,1096.7113 Q1055.1138,1096.8607 1054.4082,1096.8607 Q1051.9014,1096.8607 1050.5815,1095.2089 Q1049.2617,1093.557 1049.2617,1090.4359 Q1049.2617,1087.3065 1050.5815,1085.6547 Q1051.9014,1084.0028 1054.4082,1084.0028 Q1055.1138,1084.0028 1055.7612,1084.1522 Q1056.4087,1084.3016 1056.9731,1084.6005 L1056.9731,1087.3231 Q1056.3423,1086.7421 1055.7488,1086.4723 Q1055.1553,1086.2025 1054.5244,1086.2025 Q1053.1797,1086.2025 1052.4949,1087.2692 Q1051.8101,1088.3358 1051.8101,1090.4359 Q1051.8101,1092.5277 1052.4949,1093.5944 Q1053.1797,1094.661 1054.5244,1094.661 Q1055.1553,1094.661 1055.7488,1094.3912 Q1056.3423,1094.1215 1056.9731,1093.5404 Z " fill="#000000"/><text fill="#000000" font-family="sans-serif" font-size="14" lengthAdjust="spacing" textLength="154" x="1068" y="1095.911">MermaidClassDiagram</text><line style="stroke:#181818;stroke-width:0.5;" x1="1040" x2="1224" y1="1106.62" y2="1106.62"/><line style="stroke:#181818;stroke-width:0.5;" x1="1040" x2="1224" y1="1114.62" y2="1114.62"/><text fill="#000000" font-family="sans-serif" font-size="14" lengthAdjust="spacing" textLength="108" x="1045" y="1132.1552">render(options)</text></g><!--link DependencyOrigin to Dependency--><g id="link_DependencyOrigin_Dependency"><path codeLine="139" d="M101,121.26 C101,148.04 101,173.74 101,199.38 " fill="none" id="DependencyOrigin-to-Dependency" style="stroke:#181818;stroke-width:1.0;stroke-dasharray:7.0,7.0;"/><polygon fill="#181818" points="101,205.38,105,196.38,101,200.38,97,196.38,101,205.38" style="stroke:#181818;stroke-width:1.0;"/></g><!--link MethodParam to Method--><g id="link_MethodParam_Method"><path codeLine="140" d="M813,113.01 C813,136.02 813,157.91 813,182.75 " fill="none" id="MethodParam-to-Method" style="stroke:#181818;stroke-width:1.0;stroke-dasharray:7.0,7.0;"/><polygon fill="#181818" points="813,188.75,817,179.75,813,183.75,809,179.75,813,188.75" style="stroke:#181818;stroke-width:1.0;"/></g><!--link Dependency to Member--><g id="link_Dependency_Member"><path codeLine="141" d="M166.99,303.51 C181.62,312.61 197.42,321.32 213,327.88 C324.3,374.73 372.6,328.94 478,387.88 C483.7,391.06 484.4067,391.1598 489.8367,395.0598 " fill="none" id="Dependency-to-Member" style="stroke:#181818;stroke-width:1.0;stroke-dasharray:7.0,7.0;"/><polygon fill="#181818" points="494.71,398.56,489.7335,390.0609,490.6489,395.6432,485.0666,396.5586,494.71,398.56" style="stroke:#181818;stroke-width:1.0;"/></g><!--link Decorator to Member--><g id="link_Decorator_Member"><path codeLine="142" d="M613.47,295.23 C609.32,320.57 604.7006,348.739 599.3306,381.499 " fill="none" id="Decorator-to-Member" style="stroke:#181818;stroke-width:1.0;stroke-dasharray:7.0,7.0;"/><polygon fill="#181818" points="598.36,387.42,603.7632,379.1856,599.1688,382.4858,595.8685,377.8915,598.36,387.42" style="stroke:#181818;stroke-width:1.0;"/></g><!--link Property to Member--><g id="link_Property_Member"><path codeLine="143" d="M481.81,311.8 C494.2,334.47 506.0229,356.1148 520.2629,382.1748 " fill="none" id="Property-to-Member" style="stroke:#181818;stroke-width:1.0;stroke-dasharray:7.0,7.0;"/><polygon fill="#181818" points="523.14,387.44,522.3345,377.6241,520.7424,383.0523,515.3142,381.4602,523.14,387.44" style="stroke:#181818;stroke-width:1.0;"/></g><!--link Method to Member--><g id="link_Method_Member"><path codeLine="144" d="M749.91,320.11 C724.42,346.25 698.7689,372.5543 671.3289,400.6943 " fill="none" id="Method-to-Member" style="stroke:#181818;stroke-width:1.0;stroke-dasharray:7.0,7.0;"/><polygon fill="#181818" points="667.14,404.99,676.2871,401.339,670.6307,401.4102,670.5595,395.7538,667.14,404.99" style="stroke:#181818;stroke-width:1.0;"/></g><!--link MemberType to Member--><g id="link_MemberType_Member"><path codeLine="145" d="M351.97,314.61 C357.59,319.27 363.31,323.76 369,327.88 C413.82,360.28 433.98,354.41 478,387.88 C483.6,392.14 484.6455,392.7824 490.1555,397.5324 " fill="none" id="MemberType-to-Member" style="stroke:#181818;stroke-width:1.0;stroke-dasharray:7.0,7.0;"/><polygon fill="#181818" points="494.7,401.45,490.4951,392.5439,490.913,398.1853,485.2716,398.6032,494.7,401.45" style="stroke:#181818;stroke-width:1.0;"/></g><!--link Import to ProjectFile--><g id="link_Import_ProjectFile"><path codeLine="146" d="M358.94,543.43 C355.98,578.42 352.5046,619.6313 349.5546,654.5813 " fill="none" id="Import-to-ProjectFile" style="stroke:#181818;stroke-width:1.0;stroke-dasharray:7.0,7.0;"/><polygon fill="#181818" points="349.05,660.56,353.7928,651.9283,349.4705,655.5777,345.8211,651.2555,349.05,660.56" style="stroke:#181818;stroke-width:1.0;"/></g><!--link Member to ProjectFile--><g id="link_Member_ProjectFile"><path codeLine="147" d="M494.61,585.22 C489.05,590.54 483.49,595.76 478,600.76 C455.71,621.08 434.8676,638.4749 412.1876,656.5949 " fill="none" id="Member-to-ProjectFile" style="stroke:#181818;stroke-width:1.0;stroke-dasharray:7.0,7.0;"/><polygon fill="#181818" points="407.5,660.34,417.0282,657.8474,411.4064,657.219,412.0347,651.5972,407.5,660.34" style="stroke:#181818;stroke-width:1.0;"/></g><!--link Predicate to FilterSet--><g id="link_Predicate_FilterSet"><path codeLine="148" d="M986.71,278.66 C992.52,315.02 1002.9734,380.4851 1011.0334,430.9351 " fill="none" id="Predicate-to-FilterSet" style="stroke:#181818;stroke-width:1.0;stroke-dasharray:7.0,7.0;"/><polygon fill="#181818" points="1011.98,436.86,1014.5101,427.3417,1011.1912,431.9226,1006.6102,428.6038,1011.98,436.86" style="stroke:#181818;stroke-width:1.0;"/></g><!--link Predicate to SourceFileFilterFn--><g id="link_Predicate_SourceFileFilterFn"><path codeLine="149" d="M967.36,278.77 C950.88,304.44 925.37,347.43 911,387.88 C872.89,495.13 858.1742,625.6338 853.3742,679.3338 " fill="none" id="Predicate-to-SourceFileFilterFn" style="stroke:#181818;stroke-width:1.0;stroke-dasharray:7.0,7.0;"/><polygon fill="#181818" points="852.84,685.31,857.6254,676.7019,853.2852,680.3299,849.6572,675.9896,852.84,685.31" style="stroke:#181818;stroke-width:1.0;"/></g><!--link Predicate to MemberFilterFn--><g id="link_Predicate_MemberFilterFn"><path codeLine="150" d="M963,278.72 C950.39,293.16 933.6,311.93 918,327.88 C890.74,355.75 878.23,357.33 854,387.88 C773.34,489.59 707.3052,624.9627 681.9652,679.8427 " fill="none" id="Predicate-to-MemberFilterFn" style="stroke:#181818;stroke-width:1.0;stroke-dasharray:7.0,7.0;"/><polygon fill="#181818" points="679.45,685.29,686.8544,678.7958,681.546,680.7505,679.5913,675.4422,679.45,685.29" style="stroke:#181818;stroke-width:1.0;"/></g><!--link Member to MemberFilterFn--><g id="link_Member_MemberFilterFn"><path codeLine="151" d="M624.61,600.97 C637.67,632.59 648.4694,658.7744 657.0194,679.4744 " fill="none" id="Member-to-MemberFilterFn" style="stroke:#181818;stroke-width:1.0;stroke-dasharray:7.0,7.0;"/><polygon fill="#181818" points="659.31,685.02,659.5712,675.1746,657.4012,680.3987,652.1771,678.2287,659.31,685.02" style="stroke:#181818;stroke-width:1.0;"/></g><!--link SourceFileFilterFn to ProjectView--><g id="link_SourceFileFilterFn_ProjectView"><path codeLine="152" d="M805.27,733.92 C789.7,741.78 772.15,750.5 756,758.23 C693.65,788.04 629.8595,817.3134 569.7895,844.4034 " fill="none" id="SourceFileFilterFn-to-ProjectView" style="stroke:#181818;stroke-width:1.0;stroke-dasharray:7.0,7.0;"/><polygon fill="#181818" points="564.32,846.87,574.1687,846.8164,568.8779,844.8145,570.8799,839.5237,564.32,846.87" style="stroke:#181818;stroke-width:1.0;"/></g><!--link ProjectFile to ProjectView--><g id="link_ProjectFile_ProjectView"><path codeLine="153" d="M360.24,758.54 C365.91,776.41 370.7466,791.6606 377.3066,812.3506 " fill="none" id="ProjectFile-to-ProjectView" style="stroke:#181818;stroke-width:1.0;stroke-dasharray:7.0,7.0;"/><polygon fill="#181818" points="379.12,818.07,380.2128,808.282,377.6088,813.3038,372.587,810.6998,379.12,818.07" style="stroke:#181818;stroke-width:1.0;"/></g><!--link Member to ProjectView--><g id="link_Member_ProjectView"><path codeLine="154" d="M537.96,601.06 C510.85,667.66 478.3722,747.4528 451.9322,812.4028 " fill="none" id="Member-to-ProjectView" style="stroke:#181818;stroke-width:1.0;stroke-dasharray:7.0,7.0;"/><polygon fill="#181818" points="449.67,817.96,456.7681,811.1324,451.5552,813.329,449.3586,808.1161,449.67,817.96" style="stroke:#181818;stroke-width:1.0;"/></g><!--link FilterSet to ProjectView--><g id="link_FilterSet_ProjectView"><path codeLine="155" d="M1063.47,551.57 C1101.29,609.06 1143.84,698.18 1096,758.23 C1079.25,779.25 767.1733,844.4924 570.0833,883.9424 " fill="none" id="FilterSet-to-ProjectView" style="stroke:#181818;stroke-width:1.0;"/><polygon fill="#181818" points="564.2,885.12,573.81,887.2758,569.1028,884.1387,572.2399,879.4314,564.2,885.12" style="stroke:#181818;stroke-width:1.0;"/></g><!--link MemberType to ProjectView--><g id="link_MemberType_ProjectView"><path codeLine="156" d="M264.74,327.96 C232.66,428.89 189.74,615.37 251,758.23 C260.18,779.63 269.8919,795.0788 285.3519,813.1688 " fill="none" id="MemberType-to-ProjectView" style="stroke:#181818;stroke-width:1.0;stroke-dasharray:7.0,7.0;"/><polygon fill="#181818" points="289.25,817.73,286.4437,808.2894,286.0016,813.929,280.362,813.4869,289.25,817.73" style="stroke:#181818;stroke-width:1.0;"/></g><!--link Dependency to ProjectView--><g id="link_Dependency_ProjectView"><path codeLine="157" d="M101.95,303.65 C105.88,398.01 125.12,610.7 217,758.23 C230.48,779.87 243.6464,795.7613 262.6164,813.7513 " fill="none" id="Dependency-to-ProjectView" style="stroke:#181818;stroke-width:1.0;stroke-dasharray:7.0,7.0;"/><polygon fill="#181818" points="266.97,817.88,263.1921,808.7846,263.342,814.4394,257.6871,814.5894,266.97,817.88" style="stroke:#181818;stroke-width:1.0;"/></g><!--link Member to Diagram--><g id="link_Member_Diagram"><path codeLine="158" d="M667.47,530.43 C742.49,561.85 853.31,610.58 946,660.76 C951.7,663.85 952.3956,664.1387 958.1856,667.5887 " fill="none" id="Member-to-Diagram" style="stroke:#181818;stroke-width:1.0;stroke-dasharray:7.0,7.0;"/><polygon fill="#181818" points="963.34,670.66,957.656,662.6169,959.0447,668.1006,953.561,669.4894,963.34,670.66" style="stroke:#181818;stroke-width:1.0;"/></g><!--link FilterSet to Diagram--><g id="link_FilterSet_Diagram"><path codeLine="159" d="M1021,551.61 C1021,585.53 1021,622.27 1021,654.57 " fill="none" id="FilterSet-to-Diagram" style="stroke:#181818;stroke-width:1.0;"/><polygon fill="#181818" points="1021,660.57,1025,651.57,1021,655.57,1017,651.57,1021,660.57" style="stroke:#181818;stroke-width:1.0;"/></g><!--link Diagram to RelationDiagram--><g id="link_Diagram_RelationDiagram"><path codeLine="160" d="M1021,758.54 C1021,794.15 1021,824.11 1021,857.6 " fill="none" id="Diagram-to-RelationDiagram" style="stroke:#181818;stroke-width:1.0;"/><polygon fill="none" points="1021,875.6,1027,857.6,1015,857.6,1021,875.6" style="stroke:#181818;stroke-width:1.0;"/></g><!--link Member to RelationDiagram--><g id="link_Member_RelationDiagram"><path codeLine="161" d="M554.78,601.21 C548.19,652.94 550.38,713.5 582,758.23 C663.66,873.74 832.4185,904.3293 935.0985,912.4093 " fill="none" id="Member-to-RelationDiagram" style="stroke:#181818;stroke-width:1.0;stroke-dasharray:7.0,7.0;"/><polygon fill="#181818" points="941.08,912.88,932.4215,908.1863,936.0954,912.4878,931.7939,916.1616,941.08,912.88" style="stroke:#181818;stroke-width:1.0;"/></g><!--link RelationEdge to RelationDiagram--><g id="link_RelationEdge_RelationDiagram"><path codeLine="162" d="M1198.61,758.54 C1158.29,794.15 1108.4967,838.1376 1070.5867,871.6276 " fill="none" id="RelationEdge-to-RelationDiagram" style="stroke:#181818;stroke-width:1.0;stroke-dasharray:7.0,7.0;"/><polygon fill="#181818" points="1066.09,875.6,1075.4833,872.6392,1069.8372,872.2897,1070.1867,866.6436,1066.09,875.6" style="stroke:#181818;stroke-width:1.0;"/></g><!--link RelationType to RelationEdge--><g id="link_RelationType_RelationEdge"><path codeLine="163" d="M1253,551.61 C1253,585.53 1253,622.27 1253,654.57 " fill="none" id="RelationType-to-RelationEdge" style="stroke:#181818;stroke-width:1.0;stroke-dasharray:7.0,7.0;"/><polygon fill="#181818" points="1253,660.57,1257,651.57,1253,655.57,1249,651.57,1253,660.57" style="stroke:#181818;stroke-width:1.0;"/></g><!--link Member to RelationEdge--><g id="link_Member_RelationEdge"><path codeLine="164" d="M667.47,523.06 C734.02,544.38 828.3,574.53 911,600.76 C1005.35,630.69 1108.6957,663.2021 1177.8157,684.9121 " fill="none" id="Member-to-RelationEdge" style="stroke:#181818;stroke-width:1.0;stroke-dasharray:7.0,7.0;"/><polygon fill="#181818" points="1183.54,686.71,1176.1522,680.1969,1178.7698,685.2117,1173.7549,687.8293,1183.54,686.71" style="stroke:#181818;stroke-width:1.0;"/></g><!--link RelationDiagram to PlantUMLClassDiagram--><g id="link_RelationDiagram_PlantUMLClassDiagram"><path codeLine="165" d="M997.46,957.39 C976.9,992.28 956.6171,1026.7315 937.6871,1058.8615 " fill="none" id="RelationDiagram-to-PlantUMLClassDiagram" style="stroke:#181818;stroke-width:1.0;"/><polygon fill="none" points="928.55,1074.37,942.8566,1061.9072,932.5176,1055.8158,928.55,1074.37" style="stroke:#181818;stroke-width:1.0;"/></g><!--link RelationDiagram to MermaidClassDiagram--><g id="link_RelationDiagram_MermaidClassDiagram"><path codeLine="166" d="M1044.54,957.39 C1065.1,992.28 1085.3829,1026.7315 1104.3129,1058.8615 " fill="none" id="RelationDiagram-to-MermaidClassDiagram" style="stroke:#181818;stroke-width:1.0;"/><polygon fill="none" points="1113.45,1074.37,1109.4824,1055.8158,1099.1434,1061.9072,1113.45,1074.37" style="stroke:#181818;stroke-width:1.0;"/></g><!--SRC=[lLPTJzim57tlhyXZa5P-G3KXCMWrf44HC5wcFRZnRV2Kn95j61NZlyzVSUthf6DeMf_ISwxlnx7ljLcdG6n91SL5stEXYfTPeNylMmODVIqwJc5HA7dis7Ee6YA8OhnBp1Y5JZ7zHyX58PLWNVtjUs8XHJKmizVPZ8MmPxnjzM8KLy6p2lQ97qM4Phh7TWCYOQ2Z0KyYt83apHFGArqB2YEXWKfnCHegr6uMfYwr3bpBmCMKNC4WfKaBuogSGw_pXwxQ8OzSi9frYyXWRP43cHwA25gWp1SAERN9rnfiGI7Pnolz388fKYFPBa4zS6hzJ0btk8BaYEnwk9eKr8Lw_tQ_BuMOx4sPkXsYedLF94bU2zw3KBl_dIPIohJClqc1GY_Ziug601tEYZNotyYcrvfeUf06iQqLCwYAM5FemXTqfx_V9W-JfniDaqhFbGtd3H0qtEJosGm_e7j-QALzB2JWMKEaJ92BGV44NMel2R1wxAgizR9YxebWPDD0Tfv-w6rRiIORTFnHL6xJRksdiKchj0DUA-icVQQxgLCEuhg3N9aQ2-r9nxy5FC9x0PHLH87TJV_zyUx46RcDV2q8fUNMUZXA2G4jVu9nZlHziolrJL23-b3mtkWbZx0MFcI4xKjtIQ-wh0y2uOhpYjup-8dASua5HJ3dgWxRyKSva_fqMViUSYQoT6kYSgUMg3Uly8RhhJbVfUcUAPjFEpD0IjD3kOafSBrrXZueCdeWCg7NuifwqZj6VEyLJl1pHkhyUXWLEo-apCwGraEKOt5keB4t78etudDIlIMjGPP7-B7X_1eIlsdiT1eCifRU2jwEdYR50poCdTW9Yd9QrmBg_FO-bP9NBCVr-wldacNuybb19mqQElsw8PtwUld5phO9uRpaSK-wnPSWMiBeNwxDdYh7noVH_JABNnI6Sl-ZPHwrwkrVRH4Oxk08yu-710bpFaBzazaWKQzxummE4yaoOMmYV6H6fGPeJaN149DxYbCo8sqMNnYOowkmy7xSp-TZ2u96CONsOoACFnOen80EXsO-_tM2spVsWgca8myPXCpZ5MEUBOu7Y4rhh4F6BKVQuJS0]--></g></svg>
