<?xml version="1.0" encoding="us-ascii" standalone="no"?><svg xmlns="http://www.w3.org/2000/svg" xmlns:xlink="http://www.w3.org/1999/xlink" contentStyleType="text/css" height="1208px" preserveAspectRatio="none" style="width:2626px;height:1208px;background:#FFFFFF;" version="1.1" viewBox="0 0 2626 1208" width="2626px" zoomAndPan="magnify"><defs/><g><!--cluster tsplot/core--><g id="cluster_tsplot/core"><path d="M8.5,6 L97.5,6 A3.75,3.75 0 0 1 100,8.5 L107,28.8 L1727.5,28.8 A2.5,2.5 0 0 1 1730,31.3 L1730,1198.5 A2.5,2.5 0 0 1 1727.5,1201 L8.5,1201 A2.5,2.5 0 0 1 6,1198.5 L6,8.5 A2.5,2.5 0 0 1 8.5,6 " fill="none" style="stroke:#000000;stroke-width:1.5;"/><line style="stroke:#000000;stroke-width:1.5;" x1="6" x2="107" y1="28.8" y2="28.8"/><text fill="#000000" font-family="Operator Mono Lig" font-size="14" font-weight="bold" lengthAdjust="spacing" textLength="88" x="10" y="21.44">tsplot/core</text></g><!--cluster tsplot/filter--><g id="cluster_tsplot/filter"><path d="M1756.5,507.6 L1861.5,507.6 A3.75,3.75 0 0 1 1864,510.1 L1871,530.4 L2616.5,530.4 A2.5,2.5 0 0 1 2619,532.9 L2619,746.5 A2.5,2.5 0 0 1 2616.5,749 L1756.5,749 A2.5,2.5 0 0 1 1754,746.5 L1754,510.1 A2.5,2.5 0 0 1 1756.5,507.6 " fill="none" style="stroke:#000000;stroke-width:1.5;"/><line style="stroke:#000000;stroke-width:1.5;" x1="1754" x2="1871" y1="530.4" y2="530.4"/><text fill="#000000" font-family="Operator Mono Lig" font-size="14" font-weight="bold" lengthAdjust="spacing" textLength="104" x="1758" y="523.04">tsplot/filter</text></g><!--class Dependency--><g id="elem_Dependency"><rect codeLine="2" fill="#F1F1F1" height="98.4" id="Dependency" rx="2.5" ry="2.5" style="stroke:#181818;stroke-width:0.5;" width="218" x="1439" y="66.2"/><ellipse cx="1503.75" cy="82.2" fill="#B4A7E5" rx="11" ry="11" style="stroke:#181818;stroke-width:1.0;"/><path d="M1499.6777,77.9651 L1499.6777,75.8069 L1507.0571,75.8069 L1507.0571,77.9651 L1504.5918,77.9651 L1504.5918,86.0418 L1507.0571,86.0418 L1507.0571,88.2 L1499.6777,88.2 L1499.6777,86.0418 L1502.1431,86.0418 L1502.1431,77.9651 Z " fill="#000000"/><text fill="#000000" font-family="Operator Mono Lig" font-size="14" font-style="italic" lengthAdjust="spacing" textLength="80" x="1524.25" y="87.24">Dependency</text><line style="stroke:#181818;stroke-width:0.5;" x1="1440" x2="1656" y1="98.2" y2="98.2"/><ellipse cx="1450" cy="112.1" fill="none" rx="3" ry="3" style="stroke:#038048;stroke-width:1.0;"/><text fill="#000000" font-family="Operator Mono Lig" font-size="14" lengthAdjust="spacing" textLength="192" x="1459" y="115.64">origin: DependencyOrigin</text><ellipse cx="1450" cy="128.9" fill="none" rx="3" ry="3" style="stroke:#038048;stroke-width:1.0;"/><text fill="#000000" font-family="Operator Mono Lig" font-size="14" lengthAdjust="spacing" textLength="104" x="1459" y="132.44">node: ts.Node</text><ellipse cx="1450" cy="145.7" fill="none" rx="3" ry="3" style="stroke:#038048;stroke-width:1.0;"/><text fill="#000000" font-family="Operator Mono Lig" font-size="14" lengthAdjust="spacing" textLength="96" x="1459" y="149.24">name: string</text><line style="stroke:#181818;stroke-width:0.5;" x1="1440" x2="1656" y1="156.6" y2="156.6"/></g><!--class MemberKind--><g id="elem_MemberKind"><rect codeLine="7" fill="#F1F1F1" height="148.8" id="MemberKind" rx="2.5" ry="2.5" style="stroke:#181818;stroke-width:0.5;" width="202" x="1089" y="41"/><ellipse cx="1145.75" cy="57" fill="#EB937F" rx="11" ry="11" style="stroke:#181818;stroke-width:1.0;"/><path d="M1149.8643,63 L1142.1445,63 L1142.1445,50.6069 L1149.8643,50.6069 L1149.8643,52.7651 L1144.5933,52.7651 L1144.5933,55.438 L1149.3662,55.438 L1149.3662,57.5962 L1144.5933,57.5962 L1144.5933,60.8418 L1149.8643,60.8418 Z " fill="#000000"/><text fill="#000000" font-family="Operator Mono Lig" font-size="14" lengthAdjust="spacing" textLength="80" x="1166.25" y="62.04">MemberKind</text><line style="stroke:#181818;stroke-width:0.5;" x1="1090" x2="1290" y1="73" y2="73"/><ellipse cx="1100" cy="86.9" fill="none" rx="3" ry="3" style="stroke:#038048;stroke-width:1.0;"/><text fill="#000000" font-family="Operator Mono Lig" font-size="14" lengthAdjust="spacing" textLength="112" x="1109" y="90.44">Class: "class"</text><ellipse cx="1100" cy="103.7" fill="none" rx="3" ry="3" style="stroke:#038048;stroke-width:1.0;"/><text fill="#000000" font-family="Operator Mono Lig" font-size="14" lengthAdjust="spacing" textLength="176" x="1109" y="107.24">Interface: "interface"</text><ellipse cx="1100" cy="120.5" fill="none" rx="3" ry="3" style="stroke:#038048;stroke-width:1.0;"/><text fill="#000000" font-family="Operator Mono Lig" font-size="14" lengthAdjust="spacing" textLength="96" x="1109" y="124.04">Enum: "enum"</text><ellipse cx="1100" cy="137.3" fill="none" rx="3" ry="3" style="stroke:#038048;stroke-width:1.0;"/><text fill="#000000" font-family="Operator Mono Lig" font-size="14" lengthAdjust="spacing" textLength="160" x="1109" y="140.84">Function: "function"</text><ellipse cx="1100" cy="154.1" fill="none" rx="3" ry="3" style="stroke:#038048;stroke-width:1.0;"/><text fill="#000000" font-family="Operator Mono Lig" font-size="14" lengthAdjust="spacing" textLength="96" x="1109" y="157.64">Type: "type"</text><ellipse cx="1100" cy="170.9" fill="none" rx="3" ry="3" style="stroke:#038048;stroke-width:1.0;"/><text fill="#000000" font-family="Operator Mono Lig" font-size="14" lengthAdjust="spacing" textLength="160" x="1109" y="174.44">Variable: "variable"</text><line style="stroke:#181818;stroke-width:0.5;" x1="1090" x2="1290" y1="181.8" y2="181.8"/></g><!--class ProjectMember--><g id="elem_ProjectMember"><rect codeLine="15" fill="#F1F1F1" height="232.8" id="ProjectMember" rx="2.5" ry="2.5" style="stroke:#181818;stroke-width:0.5;" width="210" x="1318" y="249.8"/><ellipse cx="1366.75" cy="265.8" fill="#B4A7E5" rx="11" ry="11" style="stroke:#181818;stroke-width:1.0;"/><path d="M1362.6777,261.5651 L1362.6777,259.4069 L1370.0571,259.4069 L1370.0571,261.5651 L1367.5918,261.5651 L1367.5918,269.6418 L1370.0571,269.6418 L1370.0571,271.8 L1362.6777,271.8 L1362.6777,269.6418 L1365.1431,269.6418 L1365.1431,261.5651 Z " fill="#000000"/><text fill="#000000" font-family="Operator Mono Lig" font-size="14" font-style="italic" lengthAdjust="spacing" textLength="104" x="1387.25" y="270.84">ProjectMember</text><line style="stroke:#181818;stroke-width:0.5;" x1="1319" x2="1527" y1="281.8" y2="281.8"/><ellipse cx="1329" cy="295.7" fill="none" rx="3" ry="3" style="stroke:#038048;stroke-width:1.0;"/><text fill="#000000" font-family="Operator Mono Lig" font-size="14" lengthAdjust="spacing" textLength="144" x="1338" y="299.24">deps: Dependency[]</text><ellipse cx="1329" cy="312.5" fill="none" rx="3" ry="3" style="stroke:#038048;stroke-width:1.0;"/><text fill="#000000" font-family="Operator Mono Lig" font-size="14" lengthAdjust="spacing" textLength="184" x="1338" y="316.04">decorators: Decorator[]</text><ellipse cx="1329" cy="329.3" fill="none" rx="3" ry="3" style="stroke:#038048;stroke-width:1.0;"/><text fill="#000000" font-family="Operator Mono Lig" font-size="14" lengthAdjust="spacing" textLength="120" x="1338" y="332.84">fields: Field[]</text><ellipse cx="1329" cy="346.1" fill="none" rx="3" ry="3" style="stroke:#038048;stroke-width:1.0;"/><text fill="#000000" font-family="Operator Mono Lig" font-size="14" lengthAdjust="spacing" textLength="136" x="1338" y="349.64">methods: Method[]</text><ellipse cx="1329" cy="362.9" fill="none" rx="3" ry="3" style="stroke:#038048;stroke-width:1.0;"/><text fill="#000000" font-family="Operator Mono Lig" font-size="14" lengthAdjust="spacing" textLength="152" x="1338" y="366.44">params: Parameter[]</text><ellipse cx="1329" cy="379.7" fill="none" rx="3" ry="3" style="stroke:#038048;stroke-width:1.0;"/><text fill="#000000" font-family="Operator Mono Lig" font-size="14" lengthAdjust="spacing" textLength="144" x="1338" y="383.24">ctor?: Constructor</text><ellipse cx="1329" cy="396.5" fill="none" rx="3" ry="3" style="stroke:#038048;stroke-width:1.0;"/><text fill="#000000" font-family="Operator Mono Lig" font-size="14" lengthAdjust="spacing" textLength="128" x="1338" y="400.04">kind: MemberKind</text><ellipse cx="1329" cy="413.3" fill="none" rx="3" ry="3" style="stroke:#038048;stroke-width:1.0;"/><text fill="#000000" font-family="Operator Mono Lig" font-size="14" lengthAdjust="spacing" textLength="96" x="1338" y="416.84">name: string</text><ellipse cx="1329" cy="430.1" fill="none" rx="3" ry="3" style="stroke:#038048;stroke-width:1.0;"/><text fill="#000000" font-family="Operator Mono Lig" font-size="14" lengthAdjust="spacing" textLength="144" x="1338" y="433.64">uniqueName: string</text><ellipse cx="1329" cy="446.9" fill="none" rx="3" ry="3" style="stroke:#038048;stroke-width:1.0;"/><text fill="#000000" font-family="Operator Mono Lig" font-size="14" lengthAdjust="spacing" textLength="152" x="1338" y="450.44">isExported: boolean</text><ellipse cx="1329" cy="463.7" fill="none" rx="3" ry="3" style="stroke:#038048;stroke-width:1.0;"/><text fill="#000000" font-family="Operator Mono Lig" font-size="14" lengthAdjust="spacing" textLength="152" x="1338" y="467.24">isAbstract: boolean</text><line style="stroke:#181818;stroke-width:0.5;" x1="1319" x2="1527" y1="474.6" y2="474.6"/></g><!--class ProjectFile--><g id="elem_ProjectFile"><rect codeLine="28" fill="#F1F1F1" height="98.4" id="ProjectFile" rx="2.5" ry="2.5" style="stroke:#181818;stroke-width:0.5;" width="218" x="1459" y="588.6"/><ellipse cx="1519.75" cy="604.6" fill="#B4A7E5" rx="11" ry="11" style="stroke:#181818;stroke-width:1.0;"/><path d="M1515.6777,600.3651 L1515.6777,598.2069 L1523.0571,598.2069 L1523.0571,600.3651 L1520.5918,600.3651 L1520.5918,608.4418 L1523.0571,608.4418 L1523.0571,610.6 L1515.6777,610.6 L1515.6777,608.4418 L1518.1431,608.4418 L1518.1431,600.3651 Z " fill="#000000"/><text fill="#000000" font-family="Operator Mono Lig" font-size="14" font-style="italic" lengthAdjust="spacing" textLength="88" x="1540.25" y="609.64">ProjectFile</text><line style="stroke:#181818;stroke-width:0.5;" x1="1460" x2="1676" y1="620.6" y2="620.6"/><ellipse cx="1470" cy="634.5" fill="none" rx="3" ry="3" style="stroke:#038048;stroke-width:1.0;"/><text fill="#000000" font-family="Operator Mono Lig" font-size="14" lengthAdjust="spacing" textLength="168" x="1479" y="638.04">source: ts.SourceFile</text><ellipse cx="1470" cy="651.3" fill="none" rx="3" ry="3" style="stroke:#038048;stroke-width:1.0;"/><text fill="#000000" font-family="Operator Mono Lig" font-size="14" lengthAdjust="spacing" textLength="136" x="1479" y="654.84">imports: Import[]</text><ellipse cx="1470" cy="668.1" fill="none" rx="3" ry="3" style="stroke:#038048;stroke-width:1.0;"/><text fill="#000000" font-family="Operator Mono Lig" font-size="14" lengthAdjust="spacing" textLength="192" x="1479" y="671.64">members: ProjectMember[]</text><line style="stroke:#181818;stroke-width:0.5;" x1="1460" x2="1676" y1="679" y2="679"/></g><!--class PathsLike--><g id="elem_PathsLike"><rect codeLine="33" fill="#F1F1F1" height="77.6" id="PathsLike" rx="2.5" ry="2.5" style="stroke:#181818;stroke-width:0.5;" width="260" x="837" y="599"/><ellipse cx="926.75" cy="615" fill="#B4A7E5" rx="11" ry="11" style="stroke:#181818;stroke-width:1.0;"/><path d="M922.6777,610.7651 L922.6777,608.6069 L930.0571,608.6069 L930.0571,610.7651 L927.5918,610.7651 L927.5918,618.8418 L930.0571,618.8418 L930.0571,621 L922.6777,621 L922.6777,618.8418 L925.1431,618.8418 L925.1431,610.7651 Z " fill="#000000"/><text fill="#000000" font-family="Operator Mono Lig" font-size="14" font-style="italic" lengthAdjust="spacing" textLength="72" x="947.25" y="620.04">PathsLike</text><line style="stroke:#181818;stroke-width:0.5;" x1="838" x2="1096" y1="631" y2="631"/><text fill="#000000" font-family="Operator Mono Lig" font-size="14" lengthAdjust="spacing" textLength="248" x="843" y="669.24">{ [x: string]: Array&lt;string&gt;; }</text><line style="stroke:#181818;stroke-width:0.5;" x1="838" x2="951" y1="647.4" y2="647.4"/><text fill="#000000" font-family="Operator Mono Lig" font-size="14" lengthAdjust="spacing" textLength="32" x="951" y="651.94">Type</text><line style="stroke:#181818;stroke-width:0.5;" x1="983" x2="1096" y1="647.4" y2="647.4"/></g><!--class Namespace--><g id="elem_Namespace"><rect codeLine="37" fill="#F1F1F1" height="81.6" id="Namespace" rx="2.5" ry="2.5" style="stroke:#181818;stroke-width:0.5;" width="218" x="1169" y="597"/><ellipse cx="1237.75" cy="613" fill="#B4A7E5" rx="11" ry="11" style="stroke:#181818;stroke-width:1.0;"/><path d="M1233.6777,608.7651 L1233.6777,606.6069 L1241.0571,606.6069 L1241.0571,608.7651 L1238.5918,608.7651 L1238.5918,616.8418 L1241.0571,616.8418 L1241.0571,619 L1233.6777,619 L1233.6777,616.8418 L1236.1431,616.8418 L1236.1431,608.7651 Z " fill="#000000"/><text fill="#000000" font-family="Operator Mono Lig" font-size="14" font-style="italic" lengthAdjust="spacing" textLength="72" x="1258.25" y="618.04">Namespace</text><line style="stroke:#181818;stroke-width:0.5;" x1="1170" x2="1386" y1="629" y2="629"/><ellipse cx="1180" cy="642.9" fill="none" rx="3" ry="3" style="stroke:#038048;stroke-width:1.0;"/><text fill="#000000" font-family="Operator Mono Lig" font-size="14" lengthAdjust="spacing" textLength="96" x="1189" y="646.44">path: string</text><ellipse cx="1180" cy="659.7" fill="none" rx="3" ry="3" style="stroke:#038048;stroke-width:1.0;"/><text fill="#000000" font-family="Operator Mono Lig" font-size="14" lengthAdjust="spacing" textLength="192" x="1189" y="663.24">members: ProjectMember[]</text><line style="stroke:#181818;stroke-width:0.5;" x1="1170" x2="1386" y1="670.6" y2="670.6"/></g><!--class ProjectViewOptions--><g id="elem_ProjectViewOptions"><rect codeLine="41" fill="#F1F1F1" height="77.6" id="ProjectViewOptions" rx="2.5" ry="2.5" style="stroke:#181818;stroke-width:0.5;" width="780" x="22" y="599"/><ellipse cx="335.75" cy="615" fill="#B4A7E5" rx="11" ry="11" style="stroke:#181818;stroke-width:1.0;"/><path d="M331.6777,610.7651 L331.6777,608.6069 L339.0571,608.6069 L339.0571,610.7651 L336.5918,610.7651 L336.5918,618.8418 L339.0571,618.8418 L339.0571,621 L331.6777,621 L331.6777,618.8418 L334.1431,618.8418 L334.1431,610.7651 Z " fill="#000000"/><text fill="#000000" font-family="Operator Mono Lig" font-size="14" font-style="italic" lengthAdjust="spacing" textLength="144" x="356.25" y="620.04">ProjectViewOptions</text><line style="stroke:#181818;stroke-width:0.5;" x1="23" x2="801" y1="631" y2="631"/><text fill="#000000" font-family="Operator Mono Lig" font-size="14" lengthAdjust="spacing" textLength="768" x="28" y="669.24">ProjectViewOptionsWithFiles | ProjectViewOptionsWithTsConfigPath | ProjectViewOptionsWithProgram</text><line style="stroke:#181818;stroke-width:0.5;" x1="23" x2="396" y1="647.4" y2="647.4"/><text fill="#000000" font-family="Operator Mono Lig" font-size="14" lengthAdjust="spacing" textLength="32" x="396" y="651.94">Type</text><line style="stroke:#181818;stroke-width:0.5;" x1="428" x2="801" y1="647.4" y2="647.4"/></g><!--class ProjectView--><g id="elem_ProjectView"><rect codeLine="45" fill="#F1F1F1" height="392" id="ProjectView" rx="2.5" ry="2.5" style="stroke:#181818;stroke-width:0.5;" width="1362" x="352" y="793"/><ellipse cx="984.75" cy="809" fill="#ADD1B2" rx="11" ry="11" style="stroke:#181818;stroke-width:1.0;"/><path d="M987.7231,814.6431 Q987.1421,814.9419 986.5029,815.0913 Q985.8638,815.2407 985.1582,815.2407 Q982.6514,815.2407 981.3315,813.5889 Q980.0117,811.937 980.0117,808.8159 Q980.0117,805.6865 981.3315,804.0347 Q982.6514,802.3828 985.1582,802.3828 Q985.8638,802.3828 986.5112,802.5322 Q987.1587,802.6816 987.7231,802.9805 L987.7231,805.7031 Q987.0923,805.1221 986.4988,804.8523 Q985.9053,804.5825 985.2744,804.5825 Q983.9297,804.5825 983.2449,805.6492 Q982.5601,806.7158 982.5601,808.8159 Q982.5601,810.9077 983.2449,811.9744 Q983.9297,813.041 985.2744,813.041 Q985.9053,813.041 986.4988,812.7712 Q987.0923,812.5015 987.7231,811.9204 Z " fill="#000000"/><text fill="#000000" font-family="Operator Mono Lig" font-size="14" lengthAdjust="spacing" textLength="88" x="1005.25" y="814.04">ProjectView</text><line style="stroke:#181818;stroke-width:0.5;" x1="353" x2="1713" y1="825" y2="825"/><ellipse cx="363" cy="838.9" fill="none" rx="3" ry="3" style="stroke:#038048;stroke-width:1.0;"/><text fill="#000000" font-family="Operator Mono Lig" font-size="14" lengthAdjust="spacing" textLength="160" x="372" y="842.44">files: ProjectFile[]</text><ellipse cx="363" cy="855.7" fill="none" rx="3" ry="3" style="stroke:#038048;stroke-width:1.0;"/><text fill="#000000" font-family="Operator Mono Lig" font-size="14" lengthAdjust="spacing" textLength="192" x="372" y="859.24">members: ProjectMember[]</text><ellipse cx="363" cy="872.5" fill="none" rx="3" ry="3" style="stroke:#038048;stroke-width:1.0;"/><text fill="#000000" font-family="Operator Mono Lig" font-size="14" lengthAdjust="spacing" textLength="192" x="372" y="876.04">orphans: ProjectMember[]</text><ellipse cx="363" cy="889.3" fill="none" rx="3" ry="3" style="stroke:#038048;stroke-width:1.0;"/><text fill="#000000" font-family="Operator Mono Lig" font-size="14" lengthAdjust="spacing" textLength="184" x="372" y="892.84">namespaces: Namespace[]</text><line style="stroke:#181818;stroke-width:0.5;" x1="353" x2="1713" y1="900.2" y2="900.2"/><ellipse cx="363" cy="914.1" fill="#84BE84" rx="3" ry="3" style="stroke:#038048;stroke-width:1.0;"/><text fill="#000000" font-family="Operator Mono Lig" font-size="14" lengthAdjust="spacing" textLength="320" x="372" y="917.64">constructor(options: ProjectViewOptions)</text><line style="stroke:#181818;stroke-width:0.5;" x1="353" x2="1713" y1="925" y2="925"/><ellipse cx="363" cy="938.9" fill="#84BE84" rx="3" ry="3" style="stroke:#038048;stroke-width:1.0;"/><text fill="#000000" font-family="Operator Mono Lig" font-size="14" lengthAdjust="spacing" textLength="896" x="372" y="942.44">getDependencyMembers(member: ProjectMember, options?: { depth?: number | undefined; }): Promise&lt;ProjectMember[]&gt;</text><ellipse cx="363" cy="955.7" fill="#84BE84" rx="3" ry="3" style="stroke:#038048;stroke-width:1.0;"/><text fill="#000000" font-family="Operator Mono Lig" font-size="14" lengthAdjust="spacing" textLength="888" x="372" y="959.24">getDependentMembers(member: ProjectMember, options?: { depth?: number | undefined; }): Promise&lt;ProjectMember[]&gt;</text><ellipse cx="363" cy="972.5" fill="#84BE84" rx="3" ry="3" style="stroke:#038048;stroke-width:1.0;"/><text fill="#000000" font-family="Operator Mono Lig" font-size="14" lengthAdjust="spacing" textLength="408" x="372" y="976.04">getMembersOfKind(kind: MemberKind): ProjectMember[]</text><ellipse cx="363" cy="989.3" fill="#84BE84" rx="3" ry="3" style="stroke:#038048;stroke-width:1.0;"/><text fill="#000000" font-family="Operator Mono Lig" font-size="14" lengthAdjust="spacing" textLength="936" x="372" y="992.84">getMemberByName(name: string, options?: { sourceFileName?: string | RegExp | undefined; }): ProjectMember | undefined</text><ellipse cx="363" cy="1006.1" fill="#84BE84" rx="3" ry="3" style="stroke:#038048;stroke-width:1.0;"/><text fill="#000000" font-family="Operator Mono Lig" font-size="14" lengthAdjust="spacing" textLength="504" x="372" y="1009.64">getFileOfMember(member: ProjectMember): ProjectFile | undefined</text><ellipse cx="363" cy="1022.9" fill="#84BE84" rx="3" ry="3" style="stroke:#038048;stroke-width:1.0;"/><text fill="#000000" font-family="Operator Mono Lig" font-size="14" lengthAdjust="spacing" textLength="520" x="372" y="1026.44">getFilesByPattern(...pattern: (string | RegExp)[]): ProjectFile[]</text><ellipse cx="363" cy="1039.7" fill="#84BE84" rx="3" ry="3" style="stroke:#038048;stroke-width:1.0;"/><text fill="#000000" font-family="Operator Mono Lig" font-size="14" lengthAdjust="spacing" textLength="448" x="372" y="1043.24">hasMember(memberOrName: string | ProjectMember): boolean</text><ellipse cx="363" cy="1056.5" fill="#84BE84" rx="3" ry="3" style="stroke:#038048;stroke-width:1.0;"/><text fill="#000000" font-family="Operator Mono Lig" font-size="14" lengthAdjust="spacing" textLength="768" x="372" y="1060.04">getExportedMembersOfFile(...filesOrPatterns: (string | RegExp | ProjectFile)[]): ProjectMember[]</text><ellipse cx="363" cy="1073.3" fill="#84BE84" rx="3" ry="3" style="stroke:#038048;stroke-width:1.0;"/><text fill="#000000" font-family="Operator Mono Lig" font-size="14" lengthAdjust="spacing" textLength="192" x="372" y="1076.84">getProgram(): ts.Program</text><ellipse cx="363" cy="1090.1" fill="#84BE84" rx="3" ry="3" style="stroke:#038048;stroke-width:1.0;"/><text fill="#000000" font-family="Operator Mono Lig" font-size="14" lengthAdjust="spacing" textLength="168" x="372" y="1093.64">getPaths(): PathsLike</text><rect fill="#F24D5C" height="6" style="stroke:#C82930;stroke-width:1.0;" width="6" x="360" y="1103.9"/><text fill="#000000" font-family="Operator Mono Lig" font-size="14" lengthAdjust="spacing" textLength="520" x="372" y="1110.44">_initProjectFilesAndMembers(filters?: SourceFileFilterFn[]): void</text><rect fill="#F24D5C" height="6" style="stroke:#C82930;stroke-width:1.0;" width="6" x="360" y="1120.7"/><text fill="#000000" font-family="Operator Mono Lig" font-size="14" lengthAdjust="spacing" textLength="400" x="372" y="1127.24">_initNamespacesAndOrphans(paths?: PathsLike): void</text><rect fill="#F24D5C" height="6" style="stroke:#C82930;stroke-width:1.0;" width="6" x="360" y="1137.5"/><text fill="#000000" font-family="Operator Mono Lig" font-size="14" lengthAdjust="spacing" textLength="408" x="372" y="1144.04">_getDirectDeps(member: ProjectMember): Dependency[]</text><rect fill="#F24D5C" height="6" style="stroke:#C82930;stroke-width:1.0;" width="6" x="360" y="1154.3"/><text fill="#000000" font-family="Operator Mono Lig" font-size="14" lengthAdjust="spacing" textLength="360" x="372" y="1160.84">_getUniqueName(member: ProjectMember): string</text><ellipse cx="363" cy="1174.1" fill="#84BE84" rx="3" ry="3" style="stroke:#038048;stroke-width:1.0;"/><text fill="#000000" font-family="Operator Mono Lig" font-size="14" lengthAdjust="spacing" text-decoration="underline" textLength="1336" x="372" y="1177.64">withOverride(options?: { oldView: ProjectView; files?: ProjectFile[] | undefined; members?: ProjectMember[] | undefined; paths?: PathsLike | undefined; }): ProjectView</text></g><!--class FilterSet--><g id="elem_FilterSet"><rect codeLine="71" fill="#F1F1F1" height="190.4" id="FilterSet" rx="2.5" ry="2.5" style="stroke:#181818;stroke-width:0.5;" width="546" x="2057" y="542.6"/><ellipse cx="2289.75" cy="558.6" fill="#ADD1B2" rx="11" ry="11" style="stroke:#181818;stroke-width:1.0;"/><path d="M2292.7231,564.2431 Q2292.1421,564.5419 2291.5029,564.6913 Q2290.8638,564.8407 2290.1582,564.8407 Q2287.6514,564.8407 2286.3315,563.1889 Q2285.0117,561.537 2285.0117,558.4159 Q2285.0117,555.2865 2286.3315,553.6347 Q2287.6514,551.9828 2290.1582,551.9828 Q2290.8638,551.9828 2291.5112,552.1322 Q2292.1587,552.2816 2292.7231,552.5805 L2292.7231,555.3031 Q2292.0923,554.7221 2291.4988,554.4523 Q2290.9053,554.1825 2290.2744,554.1825 Q2288.9297,554.1825 2288.2449,555.2492 Q2287.5601,556.3158 2287.5601,558.4159 Q2287.5601,560.5077 2288.2449,561.5744 Q2288.9297,562.641 2290.2744,562.641 Q2290.9053,562.641 2291.4988,562.3712 Q2292.0923,562.1015 2292.7231,561.5204 Z " fill="#000000"/><text fill="#000000" font-family="Operator Mono Lig" font-size="14" lengthAdjust="spacing" textLength="72" x="2310.25" y="563.64">FilterSet</text><line style="stroke:#181818;stroke-width:0.5;" x1="2058" x2="2602" y1="574.6" y2="574.6"/><line style="stroke:#181818;stroke-width:0.5;" x1="2058" x2="2602" y1="582.6" y2="582.6"/><ellipse cx="2068" cy="596.5" fill="#84BE84" rx="3" ry="3" style="stroke:#038048;stroke-width:1.0;"/><text fill="#000000" font-family="Operator Mono Lig" font-size="14" lengthAdjust="spacing" textLength="384" x="2077" y="600.04">constructor(filters: Predicate&lt;T&gt;[] | undefined)</text><line style="stroke:#181818;stroke-width:0.5;" x1="2058" x2="2602" y1="607.4" y2="607.4"/><ellipse cx="2068" cy="621.3" fill="#84BE84" rx="3" ry="3" style="stroke:#038048;stroke-width:1.0;"/><text fill="#000000" font-family="Operator Mono Lig" font-size="14" lengthAdjust="spacing" textLength="288" x="2077" y="624.84">add(...filter: Predicate&lt;T&gt;[]): this</text><ellipse cx="2068" cy="638.1" fill="#84BE84" rx="3" ry="3" style="stroke:#038048;stroke-width:1.0;"/><text fill="#000000" font-family="Operator Mono Lig" font-size="14" lengthAdjust="spacing" textLength="312" x="2077" y="641.64">remove(...filter: Predicate&lt;T&gt;[]): this</text><ellipse cx="2068" cy="654.9" fill="#84BE84" rx="3" ry="3" style="stroke:#038048;stroke-width:1.0;"/><text fill="#000000" font-family="Operator Mono Lig" font-size="14" lengthAdjust="spacing" textLength="440" x="2077" y="658.44">apply(target: T[], options?: FilterComposeOptions): T[]</text><ellipse cx="2068" cy="671.7" fill="#84BE84" rx="3" ry="3" style="stroke:#038048;stroke-width:1.0;"/><text fill="#000000" font-family="Operator Mono Lig" font-size="14" lengthAdjust="spacing" textLength="424" x="2077" y="675.24">compose(options?: FilterComposeOptions): Predicate&lt;T&gt;</text><ellipse cx="2068" cy="688.5" fill="#84BE84" rx="3" ry="3" style="stroke:#038048;stroke-width:1.0;"/><text fill="#000000" font-family="Operator Mono Lig" font-size="14" lengthAdjust="spacing" textLength="216" x="2077" y="692.04">decompose(): Predicate&lt;T&gt;[]</text><ellipse cx="2068" cy="705.3" fill="#84BE84" rx="3" ry="3" style="stroke:#038048;stroke-width:1.0;"/><text fill="#000000" font-family="Operator Mono Lig" font-size="14" lengthAdjust="spacing" text-decoration="underline" textLength="336" x="2077" y="708.84">with(filter: Predicate&lt;T&gt;[]): FilterSet&lt;T&gt;</text><ellipse cx="2068" cy="722.1" fill="#84BE84" rx="3" ry="3" style="stroke:#038048;stroke-width:1.0;"/><text fill="#000000" font-family="Operator Mono Lig" font-size="14" lengthAdjust="spacing" text-decoration="underline" textLength="520" x="2077" y="725.64">merge(...filter: (FilterSet&lt;T&gt; | Predicate&lt;T&gt;[])[]): FilterSet&lt;T&gt;</text></g><!--class SourceFileFilterFn--><g id="elem_SourceFileFilterFn"><rect codeLine="83" fill="#F1F1F1" height="77.6" id="SourceFileFilterFn" rx="2.5" ry="2.5" style="stroke:#181818;stroke-width:0.5;" width="252" x="1770" y="599"/><ellipse cx="1819.75" cy="615" fill="#B4A7E5" rx="11" ry="11" style="stroke:#181818;stroke-width:1.0;"/><path d="M1815.6777,610.7651 L1815.6777,608.6069 L1823.0571,608.6069 L1823.0571,610.7651 L1820.5918,610.7651 L1820.5918,618.8418 L1823.0571,618.8418 L1823.0571,621 L1815.6777,621 L1815.6777,618.8418 L1818.1431,618.8418 L1818.1431,610.7651 Z " fill="#000000"/><text fill="#000000" font-family="Operator Mono Lig" font-size="14" font-style="italic" lengthAdjust="spacing" textLength="144" x="1840.25" y="620.04">SourceFileFilterFn</text><line style="stroke:#181818;stroke-width:0.5;" x1="1771" x2="2021" y1="631" y2="631"/><text fill="#000000" font-family="Operator Mono Lig" font-size="14" lengthAdjust="spacing" textLength="240" x="1776" y="669.24">(it: ts.SourceFile) =&gt; boolean</text><line style="stroke:#181818;stroke-width:0.5;" x1="1771" x2="1880" y1="647.4" y2="647.4"/><text fill="#000000" font-family="Operator Mono Lig" font-size="14" lengthAdjust="spacing" textLength="32" x="1880" y="651.94">Type</text><line style="stroke:#181818;stroke-width:0.5;" x1="1912" x2="2021" y1="647.4" y2="647.4"/></g><!--link ProjectMember to Namespace--><g id="link_ProjectMember_Namespace"><path codeLine="88" d="M1360.67,483.1 C1338.87,523.63 1318.6627,561.2062 1302.4527,591.3362 " fill="none" id="ProjectMember-to-Namespace" style="stroke:#181818;stroke-width:1.0;stroke-dasharray:7.0,7.0;"/><polygon fill="#181818" points="1299.61,596.62,1307.3966,590.5894,1301.9789,592.2168,1300.3515,586.7991,1299.61,596.62" style="stroke:#181818;stroke-width:1.0;"/></g><!--link ProjectMember to ProjectFile--><g id="link_ProjectMember_ProjectFile"><path codeLine="89" d="M1485.33,483.1 C1505.21,520.06 1523.2984,553.6756 1539.1184,583.0956 " fill="none" id="ProjectMember-to-ProjectFile" style="stroke:#181818;stroke-width:1.0;stroke-dasharray:7.0,7.0;"/><polygon fill="#181818" points="1541.96,588.38,1541.2206,578.5589,1539.592,583.9763,1534.1746,582.3477,1541.96,588.38" style="stroke:#181818;stroke-width:1.0;"/></g><!--link Dependency to ProjectMember--><g id="link_Dependency_ProjectMember"><path codeLine="90" d="M1523.6,164.96 C1511.42,189.21 1498.8048,214.3292 1483.8248,244.1292 " fill="none" id="Dependency-to-ProjectMember" style="stroke:#181818;stroke-width:1.0;stroke-dasharray:7.0,7.0;"/><polygon fill="#181818" points="1481.13,249.49,1488.746,243.2453,1483.3757,245.0227,1481.5983,239.6523,1481.13,249.49" style="stroke:#181818;stroke-width:1.0;"/></g><!--link MemberKind to ProjectMember--><g id="link_MemberKind_ProjectMember"><path codeLine="91" d="M1258.96,190.04 C1277.48,209.81 1293.8291,227.2702 1313.8291,248.6302 " fill="none" id="MemberKind-to-ProjectMember" style="stroke:#181818;stroke-width:1.0;stroke-dasharray:7.0,7.0;"/><polygon fill="#181818" points="1317.93,253.01,1314.6985,243.7064,1314.5126,249.3602,1308.8588,249.1743,1317.93,253.01" style="stroke:#181818;stroke-width:1.0;"/></g><!--link ProjectViewOptions to ProjectView--><g id="link_ProjectViewOptions_ProjectView"><path codeLine="92" d="M479.94,677 C531.55,706.03 601.6102,745.419 680.1202,789.569 " fill="none" id="ProjectViewOptions-to-ProjectView" style="stroke:#181818;stroke-width:1.0;stroke-dasharray:7.0,7.0;"/><polygon fill="#181818" points="685.35,792.51,679.466,784.612,680.9918,790.0592,675.5447,791.5851,685.35,792.51" style="stroke:#181818;stroke-width:1.0;"/></g><!--link Namespace to ProjectView--><g id="link_Namespace_ProjectView"><path codeLine="93" d="M1249.9,678.86 C1229.53,707.88 1203.7858,744.5781 1173.3958,787.8981 " fill="none" id="Namespace-to-ProjectView" style="stroke:#181818;stroke-width:1.0;stroke-dasharray:7.0,7.0;"/><polygon fill="#181818" points="1169.95,792.81,1178.3933,787.7394,1172.8215,788.7168,1171.8441,783.145,1169.95,792.81" style="stroke:#181818;stroke-width:1.0;"/></g><!--link ProjectFile to ProjectView--><g id="link_ProjectFile_ProjectView"><path codeLine="94" d="M1516.96,687.27 C1492.22,709.67 1461.53,735.91 1432,757 C1415.23,768.98 1402.7991,777.5772 1385.0091,789.3072 " fill="none" id="ProjectFile-to-ProjectView" style="stroke:#181818;stroke-width:1.0;stroke-dasharray:7.0,7.0;"/><polygon fill="#181818" points="1380,792.61,1389.7156,790.9952,1384.1743,789.8577,1385.3118,784.3164,1380,792.61" style="stroke:#181818;stroke-width:1.0;"/></g><!--link ProjectMember to ProjectView--><g id="link_ProjectMember_ProjectView"><path codeLine="95" d="M1429.31,483.06 C1432.54,580.94 1431.31,712.15 1405,757 C1397.69,769.46 1393.1692,776.6556 1384.1092,787.9756 " fill="none" id="ProjectMember-to-ProjectView" style="stroke:#181818;stroke-width:1.0;stroke-dasharray:7.0,7.0;"/><polygon fill="#181818" points="1380.36,792.66,1389.1067,788.1328,1383.4843,788.7563,1382.8608,783.1339,1380.36,792.66" style="stroke:#181818;stroke-width:1.0;"/></g><!--link PathsLike to ProjectView--><g id="link_PathsLike_ProjectView"><path codeLine="96" d="M974.19,676.84 C979.68,705.91 986.605,742.5345 994.985,786.8445 " fill="none" id="PathsLike-to-ProjectView" style="stroke:#181818;stroke-width:1.0;stroke-dasharray:7.0,7.0;"/><polygon fill="#181818" points="996.1,792.74,998.3579,783.1534,995.1709,787.8271,990.4972,784.6401,996.1,792.74" style="stroke:#181818;stroke-width:1.0;"/></g><!--link FilterSet to ProjectView--><g id="link_FilterSet_ProjectView"><path codeLine="97" d="M2108.09,733.48 C2085.27,741.94 2062.29,749.95 2040,757 C1935.78,789.95 1829.9445,818.8694 1720.2945,845.9894 " fill="none" id="FilterSet-to-ProjectView" style="stroke:#181818;stroke-width:1.0;"/><polygon fill="#181818" points="1714.47,847.43,1724.1671,849.1521,1719.3237,846.2295,1722.2463,841.3861,1714.47,847.43" style="stroke:#181818;stroke-width:1.0;"/></g><!--link MemberKind to ProjectView--><g id="link_MemberKind_ProjectView"><path codeLine="98" d="M1182.18,190.05 C1165.43,346.63 1126.56,702.79 1114,757 C1111.29,768.7 1109.816,774.8445 1106.446,786.8145 " fill="none" id="MemberKind-to-ProjectView" style="stroke:#181818;stroke-width:1.0;stroke-dasharray:7.0,7.0;"/><polygon fill="#181818" points="1104.82,792.59,1111.1093,785.0108,1106.175,787.7771,1103.4087,782.8428,1104.82,792.59" style="stroke:#181818;stroke-width:1.0;"/></g><!--link SourceFileFilterFn to ProjectView--><g id="link_SourceFileFilterFn_ProjectView"><path codeLine="99" d="M1850.46,676.91 C1818.38,702.29 1773.54,734.92 1730,757 C1705.7,769.33 1686.0795,778.7556 1660.4795,790.1756 " fill="none" id="SourceFileFilterFn-to-ProjectView" style="stroke:#181818;stroke-width:1.0;stroke-dasharray:7.0,7.0;"/><polygon fill="#181818" points="1655,792.62,1664.8488,792.6064,1659.5663,790.583,1661.5897,785.3004,1655,792.62" style="stroke:#181818;stroke-width:1.0;"/></g><!--link Dependency to ProjectView--><g id="link_Dependency_ProjectView"><path codeLine="100" d="M1582.68,164.8 C1659.78,278.87 1828.46,569.08 1695,757 C1686.1,769.53 1680.5231,776.9659 1670.2531,788.1759 " fill="none" id="Dependency-to-ProjectView" style="stroke:#181818;stroke-width:1.0;stroke-dasharray:7.0,7.0;"/><polygon fill="#181818" points="1666.2,792.6,1675.229,788.666,1669.5776,788.9133,1669.3303,783.2618,1666.2,792.6" style="stroke:#181818;stroke-width:1.0;"/></g><!--SRC=[lLPBRziu4BxxLn0-oTYDzwvc7QJP6YYsYOjjsXw2862aiSsDJ6f9EgtXvhztXjI3rCFRNff3HFCRpdoSnoUP9o5BhlcE_GLhlY_iKabxmtV0fgiIDBTAisib5NidDjD9oRCdlW5cJLae-qUcDB3ZXE6Va1RqccU0VagGESZiK47qznjJMco4J0DuvNO24wboID7t_0ONuJxIIPcnMiYDstvn_q7kT-mQTe-W_nOoZw9T5ToOb4qpUau3u6tD4y66SsZm1hqYHix3xULUPbOelC1qNIr3-FPGaaUBZt3x4zU2FnO4FLVBQN23DcdljVeNCkjl4zqaXzA4MRkxZq0i0TN8cLJho68jeCWHNT8pGdPWjugWQxU8CDSH2Bsd9o392Cqmo4NAhfJ4ckpfLm1YF-LfK9PJTVJRUod-syFDC2ZCcw-bqXRGwQDI1N0PePUFU8HdDaP7qhiK1KJ9DMglCzzp7zoIB4B_EugDYNZh5ftyqHKfIM7jAfCU0Mwtvfru2iC_FBYsmMUpTMHtN-iatAViKcj-EFS_5wygfrtNb3XJqkeOLT1k1zBvSwIzpIS1NrObTRmvpRvl_rdOBQNKi6yZwAt1DbgB3ILer0XtDzY80Katrw5rTFarXKp3glzuvMgrAhTSdZIHTTxHggb1O14a1aUcdPL4-Okb0vUT3P_UW6q5m5CnYRz5X-7lhFAEytaaxR1RNA6MaQnymr7BOIqavDXCCtTq9moSTowv60vjVtdaAk1gJKAIT9LbTgewpUdN1ofE4cfFJDKqWq-65xKHSlu7DYW-W-G3iGxWE3wvNAszrN3EPb6FdlPaNXzmHd0qPJAVpqk_J5dIOJkxkv-DT_wMcuZFIeUosyvVGwylkKYdLkIcF1I7MBcvM-cAf-cpQoFGaOZhS0shoKzcJgD37MXDI5h9eD7O1ZzZ3q8A6uGqbxAcdI1Rf4bDq6h_qkqjfMFsh4JUzTLCEdbQUPL8I6p9JyDWu30Daj180yV9ZBR3u7lUd_xOl2P7J_Va_cWijo9xOLzGHLVFeBN88GcxNnKvwKyaHg-yW5vq-YWUX4f4Bte5ZCrwgHaT9ufSAVnBzqFJbwhIUA_zlb8Vm4Rlf179hKfDiI0N6RTmVhk8gOv8By_pghEjptXudhfoAqnWhc6ddk5dJl2oB0w9vHfBdBBRk_jGdVmbhnH-VHYetn7EAhgeWvF_FHPIwNn4UW-pBjsnLaf6RzUK9OxHdDu1NZJCJnAUSFeGUHnsslrIwG_mwI-LHDZEHz-C_RdeV4A-JABEdiyNpV3ta61G9kqCju0tdBGlhnxK_nXeJTneDC4x-q7eOQHBqcFrF7RscrIVdKNxGymTq4zzns0e7GHy1m00]--></g></svg>
