<?xml version="1.0" encoding="us-ascii" standalone="no"?><svg xmlns="http://www.w3.org/2000/svg" xmlns:xlink="http://www.w3.org/1999/xlink" contentStyleType="text/css" height="1424px" preserveAspectRatio="none" style="width:1818px;height:1424px;background:#FFFFFF;" version="1.1" viewBox="0 0 1818 1424" width="1818px" zoomAndPan="magnify"><defs/><g><!--class ProjectFile--><g id="elem_ProjectFile"><rect codeLine="1" fill="#F1F1F1" height="97.4648" id="ProjectFile" rx="2.5" ry="2.5" style="stroke:#181818;stroke-width:0.5;" width="167" x="821.5" y="288.96"/><ellipse cx="865.3" cy="304.96" fill="#B4A7E5" rx="11" ry="11" style="stroke:#181818;stroke-width:1.0;"/><path d="M861.2277,300.7251 L861.2277,298.5669 L868.6071,298.5669 L868.6071,300.7251 L866.1418,300.7251 L866.1418,308.8018 L868.6071,308.8018 L868.6071,310.96 L861.2277,310.96 L861.2277,308.8018 L863.6931,308.8018 L863.6931,300.7251 Z " fill="#000000"/><text fill="#000000" font-family="sans-serif" font-size="14" font-style="italic" lengthAdjust="spacing" textLength="71" x="885.7" y="310.251">ProjectFile</text><line style="stroke:#181818;stroke-width:0.5;" x1="822.5" x2="987.5" y1="320.96" y2="320.96"/><ellipse cx="832.5" cy="334.7041" fill="none" rx="3" ry="3" style="stroke:#038048;stroke-width:1.0;"/><text fill="#000000" font-family="sans-serif" font-size="14" lengthAdjust="spacing" textLength="141" x="841.5" y="338.4952">source: ts.SourceFile</text><ellipse cx="832.5" cy="351.1924" fill="none" rx="3" ry="3" style="stroke:#038048;stroke-width:1.0;"/><text fill="#000000" font-family="sans-serif" font-size="14" lengthAdjust="spacing" textLength="117" x="841.5" y="354.9834">imports: Import[]</text><ellipse cx="832.5" cy="367.6807" fill="none" rx="3" ry="3" style="stroke:#038048;stroke-width:1.0;"/><text fill="#000000" font-family="sans-serif" font-size="14" lengthAdjust="spacing" textLength="138" x="841.5" y="371.4717">members: Member[]</text><line style="stroke:#181818;stroke-width:0.5;" x1="822.5" x2="987.5" y1="378.4248" y2="378.4248"/></g><!--class ProjectViewOptionsBase--><g id="elem_ProjectViewOptionsBase"><rect codeLine="6" fill="#F1F1F1" height="80.9766" id="ProjectViewOptionsBase" rx="2.5" ry="2.5" style="stroke:#181818;stroke-width:0.5;" width="250" x="1253" y="7"/><ellipse cx="1292.3" cy="23" fill="#B4A7E5" rx="11" ry="11" style="stroke:#181818;stroke-width:1.0;"/><path d="M1288.2277,18.7651 L1288.2277,16.6069 L1295.6071,16.6069 L1295.6071,18.7651 L1293.1418,18.7651 L1293.1418,26.8418 L1295.6071,26.8418 L1295.6071,29 L1288.2277,29 L1288.2277,26.8418 L1290.6931,26.8418 L1290.6931,18.7651 Z " fill="#000000"/><text fill="#000000" font-family="sans-serif" font-size="14" font-style="italic" lengthAdjust="spacing" textLength="164" x="1311.7" y="28.291">ProjectViewOptionsBase</text><line style="stroke:#181818;stroke-width:0.5;" x1="1254" x2="1502" y1="39" y2="39"/><ellipse cx="1264" cy="52.7441" fill="none" rx="3" ry="3" style="stroke:#038048;stroke-width:1.0;"/><text fill="#000000" font-family="sans-serif" font-size="14" lengthAdjust="spacing" textLength="203" x="1273" y="56.5352">fileFilter?: SourceFileFilterFn[]</text><ellipse cx="1264" cy="69.2324" fill="none" rx="3" ry="3" style="stroke:#038048;stroke-width:1.0;"/><text fill="#000000" font-family="sans-serif" font-size="14" lengthAdjust="spacing" textLength="224" x="1273" y="73.0234">memberFilter?: MemberFilterFn[]</text><line style="stroke:#181818;stroke-width:0.5;" x1="1254" x2="1502" y1="79.9766" y2="79.9766"/></g><!--class ProjectViewOptionsWithFiles--><g id="elem_ProjectViewOptionsWithFiles"><rect codeLine="10" fill="#F1F1F1" height="80.9766" id="ProjectViewOptionsWithFiles" rx="2.5" ry="2.5" style="stroke:#181818;stroke-width:0.5;" width="281" x="918.5" y="147.98"/><ellipse cx="958.25" cy="163.98" fill="#B4A7E5" rx="11" ry="11" style="stroke:#181818;stroke-width:1.0;"/><path d="M954.1777,159.7451 L954.1777,157.5869 L961.5571,157.5869 L961.5571,159.7451 L959.0918,159.7451 L959.0918,167.8218 L961.5571,167.8218 L961.5571,169.98 L954.1777,169.98 L954.1777,167.8218 L956.6431,167.8218 L956.6431,159.7451 Z " fill="#000000"/><text fill="#000000" font-family="sans-serif" font-size="14" font-style="italic" lengthAdjust="spacing" textLength="194" x="977.75" y="169.271">ProjectViewOptionsWithFiles</text><line style="stroke:#181818;stroke-width:0.5;" x1="919.5" x2="1198.5" y1="179.98" y2="179.98"/><ellipse cx="929.5" cy="193.7241" fill="none" rx="3" ry="3" style="stroke:#038048;stroke-width:1.0;"/><text fill="#000000" font-family="sans-serif" font-size="14" lengthAdjust="spacing" textLength="125" x="938.5" y="197.5152">fileNames: string[]</text><ellipse cx="929.5" cy="210.2124" fill="none" rx="3" ry="3" style="stroke:#038048;stroke-width:1.0;"/><text fill="#000000" font-family="sans-serif" font-size="14" lengthAdjust="spacing" textLength="255" x="938.5" y="214.0034">compilerOptions: ts.CompilerOptions</text><line style="stroke:#181818;stroke-width:0.5;" x1="919.5" x2="1198.5" y1="220.9566" y2="220.9566"/></g><!--class ProjectViewOptionsWithTsConfigPath--><g id="elem_ProjectViewOptionsWithTsConfigPath"><rect codeLine="14" fill="#F1F1F1" height="64.4883" id="ProjectViewOptionsWithTsConfigPath" rx="2.5" ry="2.5" style="stroke:#181818;stroke-width:0.5;" width="287" x="1234.5" y="156.22"/><ellipse cx="1249.5" cy="172.22" fill="#B4A7E5" rx="11" ry="11" style="stroke:#181818;stroke-width:1.0;"/><path d="M1245.4277,167.9851 L1245.4277,165.8269 L1252.8071,165.8269 L1252.8071,167.9851 L1250.3418,167.9851 L1250.3418,176.0618 L1252.8071,176.0618 L1252.8071,178.22 L1245.4277,178.22 L1245.4277,176.0618 L1247.8931,176.0618 L1247.8931,167.9851 Z " fill="#000000"/><text fill="#000000" font-family="sans-serif" font-size="14" font-style="italic" lengthAdjust="spacing" textLength="255" x="1263.5" y="177.511">ProjectViewOptionsWithTsConfigPath</text><line style="stroke:#181818;stroke-width:0.5;" x1="1235.5" x2="1520.5" y1="188.22" y2="188.22"/><ellipse cx="1245.5" cy="201.9641" fill="none" rx="3" ry="3" style="stroke:#038048;stroke-width:1.0;"/><text fill="#000000" font-family="sans-serif" font-size="14" lengthAdjust="spacing" textLength="136" x="1254.5" y="205.7552">tsConfigPath: string</text><line style="stroke:#181818;stroke-width:0.5;" x1="1235.5" x2="1520.5" y1="212.7083" y2="212.7083"/></g><!--class ProjectViewOptionsWithProgram--><g id="elem_ProjectViewOptionsWithProgram"><rect codeLine="17" fill="#F1F1F1" height="64.4883" id="ProjectViewOptionsWithProgram" rx="2.5" ry="2.5" style="stroke:#181818;stroke-width:0.5;" width="254" x="1557" y="156.22"/><ellipse cx="1572" cy="172.22" fill="#B4A7E5" rx="11" ry="11" style="stroke:#181818;stroke-width:1.0;"/><path d="M1567.9277,167.9851 L1567.9277,165.8269 L1575.3071,165.8269 L1575.3071,167.9851 L1572.8418,167.9851 L1572.8418,176.0618 L1575.3071,176.0618 L1575.3071,178.22 L1567.9277,178.22 L1567.9277,176.0618 L1570.3931,176.0618 L1570.3931,167.9851 Z " fill="#000000"/><text fill="#000000" font-family="sans-serif" font-size="14" font-style="italic" lengthAdjust="spacing" textLength="222" x="1586" y="177.511">ProjectViewOptionsWithProgram</text><line style="stroke:#181818;stroke-width:0.5;" x1="1558" x2="1810" y1="188.22" y2="188.22"/><ellipse cx="1568" cy="201.9641" fill="none" rx="3" ry="3" style="stroke:#038048;stroke-width:1.0;"/><text fill="#000000" font-family="sans-serif" font-size="14" lengthAdjust="spacing" textLength="143" x="1577" y="205.7552">program: ts.Program</text><line style="stroke:#181818;stroke-width:0.5;" x1="1558" x2="1810" y1="212.7083" y2="212.7083"/></g><!--class ProjectViewOptions--><g id="elem_ProjectViewOptions"><rect codeLine="20" fill="#F1F1F1" height="76.9766" id="ProjectViewOptions" rx="2.5" ry="2.5" style="stroke:#181818;stroke-width:0.5;" width="709" x="1023.5" y="299.2"/><ellipse cx="1307.25" cy="315.2" fill="#B4A7E5" rx="11" ry="11" style="stroke:#181818;stroke-width:1.0;"/><path d="M1303.1777,310.9651 L1303.1777,308.8069 L1310.5571,308.8069 L1310.5571,310.9651 L1308.0918,310.9651 L1308.0918,319.0418 L1310.5571,319.0418 L1310.5571,321.2 L1303.1777,321.2 L1303.1777,319.0418 L1305.6431,319.0418 L1305.6431,310.9651 Z " fill="#000000"/><text fill="#000000" font-family="sans-serif" font-size="14" font-style="italic" lengthAdjust="spacing" textLength="133" x="1327.75" y="320.491">ProjectViewOptions</text><line style="stroke:#181818;stroke-width:0.5;" x1="1024.5" x2="1731.5" y1="331.2" y2="331.2"/><text fill="#000000" font-family="sans-serif" font-size="14" lengthAdjust="spacing" textLength="697" x="1029.5" y="369.2234">ProjectViewOptionsWithFiles | ProjectViewOptionsWithTsConfigPath | ProjectViewOptionsWithProgram</text><line style="stroke:#181818;stroke-width:0.5;" x1="1024.5" x2="1361.5" y1="347.4441" y2="347.4441"/><text fill="#000000" font-family="sans-serif" font-size="14" lengthAdjust="spacing" textLength="33" x="1361.5" y="352.2352">Type</text><line style="stroke:#181818;stroke-width:0.5;" x1="1394.5" x2="1731.5" y1="347.4441" y2="347.4441"/></g><!--class ProjectView--><g id="elem_ProjectView"><rect codeLine="24" fill="#F1F1F1" height="328.3008" id="ProjectView" rx="2.5" ry="2.5" style="stroke:#181818;stroke-width:0.5;" width="764" x="759" y="446.42"/><ellipse cx="1097.25" cy="462.42" fill="#ADD1B2" rx="11" ry="11" style="stroke:#181818;stroke-width:1.0;"/><path d="M1100.2231,468.0631 Q1099.6421,468.3619 1099.0029,468.5113 Q1098.3638,468.6607 1097.6582,468.6607 Q1095.1514,468.6607 1093.8315,467.0089 Q1092.5117,465.357 1092.5117,462.2359 Q1092.5117,459.1065 1093.8315,457.4547 Q1095.1514,455.8028 1097.6582,455.8028 Q1098.3638,455.8028 1099.0112,455.9522 Q1099.6587,456.1016 1100.2231,456.4005 L1100.2231,459.1231 Q1099.5923,458.5421 1098.9988,458.2723 Q1098.4053,458.0025 1097.7744,458.0025 Q1096.4297,458.0025 1095.7449,459.0692 Q1095.0601,460.1358 1095.0601,462.2359 Q1095.0601,464.3277 1095.7449,465.3944 Q1096.4297,466.461 1097.7744,466.461 Q1098.4053,466.461 1098.9988,466.1912 Q1099.5923,465.9215 1100.2231,465.3404 Z " fill="#000000"/><text fill="#000000" font-family="sans-serif" font-size="14" lengthAdjust="spacing" textLength="79" x="1117.75" y="467.711">ProjectView</text><line style="stroke:#181818;stroke-width:0.5;" x1="760" x2="1522" y1="478.42" y2="478.42"/><rect fill="none" height="6" style="stroke:#C82930;stroke-width:1.0;" width="6" x="767" y="489.1641"/><text fill="#000000" font-family="sans-serif" font-size="14" lengthAdjust="spacing" textLength="205" x="779" y="495.9552">_typeChecker: ts.TypeChecker</text><rect fill="none" height="6" style="stroke:#C82930;stroke-width:1.0;" width="6" x="767" y="505.6524"/><text fill="#000000" font-family="sans-serif" font-size="14" lengthAdjust="spacing" textLength="150" x="779" y="512.4434">_program: ts.Program</text><rect fill="none" height="6" style="stroke:#C82930;stroke-width:1.0;" width="6" x="767" y="522.1407"/><text fill="#000000" font-family="sans-serif" font-size="14" lengthAdjust="spacing" textLength="124" x="779" y="528.9317">_files: ProjectFile[]</text><rect fill="none" height="6" style="stroke:#C82930;stroke-width:1.0;" width="6" x="767" y="538.629"/><text fill="#000000" font-family="sans-serif" font-size="14" lengthAdjust="spacing" textLength="145" x="779" y="545.42">_members: Member[]</text><ellipse cx="770" cy="558.1173" fill="none" rx="3" ry="3" style="stroke:#038048;stroke-width:1.0;"/><text fill="#000000" font-family="sans-serif" font-size="14" lengthAdjust="spacing" textLength="174" x="779" y="561.9083">filter: FilterSet&lt;Member&gt;</text><ellipse cx="770" cy="574.6055" fill="none" rx="3" ry="3" style="stroke:#038048;stroke-width:1.0;"/><text fill="#000000" font-family="sans-serif" font-size="14" lengthAdjust="spacing" textLength="117" x="779" y="578.3966">files: ProjectFile[]</text><ellipse cx="770" cy="591.0938" fill="none" rx="3" ry="3" style="stroke:#038048;stroke-width:1.0;"/><text fill="#000000" font-family="sans-serif" font-size="14" lengthAdjust="spacing" textLength="138" x="779" y="594.8848">members: Member[]</text><line style="stroke:#181818;stroke-width:0.5;" x1="760" x2="1522" y1="601.838" y2="601.838"/><ellipse cx="770" cy="615.5821" fill="#84BE84" rx="3" ry="3" style="stroke:#038048;stroke-width:1.0;"/><text fill="#000000" font-family="sans-serif" font-size="14" lengthAdjust="spacing" textLength="738" x="779" y="619.3731">getDependencyMembers(member: Member, options?: { depth?: number | undefined; }): Promise&lt;Member[]&gt;</text><ellipse cx="770" cy="632.0704" fill="#84BE84" rx="3" ry="3" style="stroke:#038048;stroke-width:1.0;"/><text fill="#000000" font-family="sans-serif" font-size="14" lengthAdjust="spacing" textLength="729" x="779" y="635.8614">getDependentMembers(member: Member, options?: { depth?: number | undefined; }): Promise&lt;Member[]&gt;</text><ellipse cx="770" cy="648.5587" fill="#84BE84" rx="3" ry="3" style="stroke:#038048;stroke-width:1.0;"/><text fill="#000000" font-family="sans-serif" font-size="14" lengthAdjust="spacing" textLength="341" x="779" y="652.3497">getMembersOfKind(kind: MemberKind): Member[]</text><ellipse cx="770" cy="665.047" fill="#84BE84" rx="3" ry="3" style="stroke:#038048;stroke-width:1.0;"/><text fill="#000000" font-family="sans-serif" font-size="14" lengthAdjust="spacing" textLength="375" x="779" y="668.838">getMemberByName(name: string): Member | undefined</text><ellipse cx="770" cy="681.5352" fill="#84BE84" rx="3" ry="3" style="stroke:#038048;stroke-width:1.0;"/><text fill="#000000" font-family="sans-serif" font-size="14" lengthAdjust="spacing" textLength="411" x="779" y="685.3263">getFileOfMember(member: Member): ProjectFile | undefined</text><ellipse cx="770" cy="698.0235" fill="#84BE84" rx="3" ry="3" style="stroke:#038048;stroke-width:1.0;"/><text fill="#000000" font-family="sans-serif" font-size="14" lengthAdjust="spacing" textLength="384" x="779" y="701.8145">hasMember(memberOrName: string | Member): boolean</text><ellipse cx="770" cy="714.5118" fill="#84BE84" rx="3" ry="3" style="stroke:#038048;stroke-width:1.0;"/><text fill="#000000" font-family="sans-serif" font-size="14" lengthAdjust="spacing" textLength="455" x="779" y="718.3028">getExportedMembersOfFile(file: ProjectFile): Member[] | undefined</text><ellipse cx="770" cy="731.0001" fill="#84BE84" rx="3" ry="3" style="stroke:#038048;stroke-width:1.0;"/><text fill="#000000" font-family="sans-serif" font-size="14" lengthAdjust="spacing" textLength="174" x="779" y="734.7911">getProgram(): ts.Program</text><rect fill="#F24D5C" height="6" style="stroke:#C82930;stroke-width:1.0;" width="6" x="767" y="744.4884"/><text fill="#000000" font-family="sans-serif" font-size="14" lengthAdjust="spacing" textLength="392" x="779" y="751.2794">_getProjectFiles(filters?: SourceFileFilterFn[]): ProjectFile[]</text><rect fill="#F24D5C" height="6" style="stroke:#C82930;stroke-width:1.0;" width="6" x="767" y="760.9766"/><text fill="#000000" font-family="sans-serif" font-size="14" lengthAdjust="spacing" textLength="336" x="779" y="767.7677">_getDirectDeps(member: Member): Dependency[]</text></g><!--class ProjectGraph--><g id="elem_ProjectGraph"><rect codeLine="43" fill="#F1F1F1" height="146.9297" id="ProjectGraph" rx="2.5" ry="2.5" style="stroke:#181818;stroke-width:0.5;" width="1034" x="7" y="834.72"/><ellipse cx="475.25" cy="850.72" fill="#ADD1B2" rx="11" ry="11" style="stroke:#181818;stroke-width:1.0;"/><path d="M478.2231,856.3631 Q477.6421,856.6619 477.0029,856.8113 Q476.3638,856.9607 475.6582,856.9607 Q473.1514,856.9607 471.8315,855.3089 Q470.5117,853.657 470.5117,850.5359 Q470.5117,847.4065 471.8315,845.7547 Q473.1514,844.1028 475.6582,844.1028 Q476.3638,844.1028 477.0112,844.2522 Q477.6587,844.4016 478.2231,844.7005 L478.2231,847.4231 Q477.5923,846.8421 476.9988,846.5723 Q476.4053,846.3025 475.7744,846.3025 Q474.4297,846.3025 473.7449,847.3692 Q473.0601,848.4358 473.0601,850.5359 Q473.0601,852.6277 473.7449,853.6944 Q474.4297,854.761 475.7744,854.761 Q476.4053,854.761 476.9988,854.4912 Q477.5923,854.2215 478.2231,853.6404 Z " fill="#000000"/><text fill="#000000" font-family="sans-serif" font-size="14" lengthAdjust="spacing" textLength="89" x="495.75" y="856.011">ProjectGraph</text><line style="stroke:#181818;stroke-width:0.5;" x1="8" x2="1040" y1="866.72" y2="866.72"/><rect fill="none" height="6" style="stroke:#C82930;stroke-width:1.0;" width="6" x="15" y="877.4641"/><text fill="#000000" font-family="sans-serif" font-size="14" lengthAdjust="spacing" textLength="145" x="27" y="884.2552">_members: Member[]</text><ellipse cx="18" cy="896.9524" fill="none" rx="3" ry="3" style="stroke:#038048;stroke-width:1.0;"/><text fill="#000000" font-family="sans-serif" font-size="14" lengthAdjust="spacing" textLength="174" x="27" y="900.7434">filter: FilterSet&lt;Member&gt;</text><ellipse cx="18" cy="913.4407" fill="none" rx="3" ry="3" style="stroke:#038048;stroke-width:1.0;"/><text fill="#000000" font-family="sans-serif" font-size="14" lengthAdjust="spacing" textLength="138" x="27" y="917.2317">members: Member[]</text><ellipse cx="18" cy="929.929" fill="none" rx="3" ry="3" style="stroke:#038048;stroke-width:1.0;"/><text fill="#000000" font-family="sans-serif" font-size="14" lengthAdjust="spacing" textLength="93" x="27" y="933.72">edges: Edge[]</text><line style="stroke:#181818;stroke-width:0.5;" x1="8" x2="1040" y1="940.6731" y2="940.6731"/><ellipse cx="18" cy="954.4173" fill="#84BE84" rx="3" ry="3" style="stroke:#038048;stroke-width:1.0;"/><text fill="#000000" font-family="sans-serif" font-size="14" lengthAdjust="spacing" textLength="318" x="27" y="958.2083">getEdgesOfMember(member: Member): Edge[]</text><ellipse cx="18" cy="970.9055" fill="#84BE84" rx="3" ry="3" style="stroke:#038048;stroke-width:1.0;"/><text fill="#000000" font-family="sans-serif" font-size="14" lengthAdjust="spacing" text-decoration="underline" textLength="1008" x="27" y="974.6966">fromView(view: ProjectView, options?: { keepFilter?: boolean | undefined; filter?: MemberFilterFn[] | FilterSet&lt;Member&gt; | undefined; }): ProjectGraph</text></g><!--class ProjectGraphOptions--><g id="elem_ProjectGraphOptions"><rect codeLine="51" fill="#F1F1F1" height="80.9766" id="ProjectGraphOptions" rx="2.5" ry="2.5" style="stroke:#181818;stroke-width:0.5;" width="337" x="355.5" y="570.08"/><ellipse cx="448.25" cy="586.08" fill="#B4A7E5" rx="11" ry="11" style="stroke:#181818;stroke-width:1.0;"/><path d="M444.1777,581.8451 L444.1777,579.6869 L451.5571,579.6869 L451.5571,581.8451 L449.0918,581.8451 L449.0918,589.9218 L451.5571,589.9218 L451.5571,592.08 L444.1777,592.08 L444.1777,589.9218 L446.6431,589.9218 L446.6431,581.8451 Z " fill="#000000"/><text fill="#000000" font-family="sans-serif" font-size="14" font-style="italic" lengthAdjust="spacing" textLength="143" x="468.75" y="591.371">ProjectGraphOptions</text><line style="stroke:#181818;stroke-width:0.5;" x1="356.5" x2="691.5" y1="602.08" y2="602.08"/><ellipse cx="366.5" cy="615.8241" fill="none" rx="3" ry="3" style="stroke:#038048;stroke-width:1.0;"/><text fill="#000000" font-family="sans-serif" font-size="14" lengthAdjust="spacing" textLength="311" x="375.5" y="619.6152">filter?: MemberFilterFn[] | FilterSet&lt;Member&gt;</text><ellipse cx="366.5" cy="632.3124" fill="none" rx="3" ry="3" style="stroke:#038048;stroke-width:1.0;"/><text fill="#000000" font-family="sans-serif" font-size="14" lengthAdjust="spacing" textLength="138" x="375.5" y="636.1034">members: Member[]</text><line style="stroke:#181818;stroke-width:0.5;" x1="356.5" x2="691.5" y1="643.0566" y2="643.0566"/></g><!--class TemplateContext--><g id="elem_TemplateContext"><rect codeLine="55" fill="#F1F1F1" height="64.4883" id="TemplateContext" rx="2.5" ry="2.5" style="stroke:#181818;stroke-width:0.5;" width="193" x="1076.5" y="875.94"/><ellipse cx="1110.4" cy="891.94" fill="#B4A7E5" rx="11" ry="11" style="stroke:#181818;stroke-width:1.0;"/><path d="M1106.3277,887.7051 L1106.3277,885.5469 L1113.7071,885.5469 L1113.7071,887.7051 L1111.2418,887.7051 L1111.2418,895.7818 L1113.7071,895.7818 L1113.7071,897.94 L1106.3277,897.94 L1106.3277,895.7818 L1108.7931,895.7818 L1108.7931,887.7051 Z " fill="#000000"/><text fill="#000000" font-family="sans-serif" font-size="14" font-style="italic" lengthAdjust="spacing" textLength="119" x="1128.6" y="897.231">TemplateContext</text><line style="stroke:#181818;stroke-width:0.5;" x1="1077.5" x2="1268.5" y1="907.94" y2="907.94"/><ellipse cx="1087.5" cy="921.6841" fill="none" rx="3" ry="3" style="stroke:#038048;stroke-width:1.0;"/><text fill="#000000" font-family="sans-serif" font-size="14" lengthAdjust="spacing" textLength="167" x="1096.5" y="925.4752">projectView: ProjectView</text><line style="stroke:#181818;stroke-width:0.5;" x1="1077.5" x2="1268.5" y1="932.4283" y2="932.4283"/></g><!--class TemplateFileRenderer--><g id="elem_TemplateFileRenderer"><rect codeLine="58" fill="#F1F1F1" height="80.9766" id="TemplateFileRenderer" rx="2.5" ry="2.5" style="stroke:#181818;stroke-width:0.5;" width="183" x="1081.5" y="1041.65"/><ellipse cx="1096.5" cy="1057.65" fill="#B4A7E5" rx="11" ry="11" style="stroke:#181818;stroke-width:1.0;"/><path d="M1092.4277,1053.4151 L1092.4277,1051.2569 L1099.8071,1051.2569 L1099.8071,1053.4151 L1097.3418,1053.4151 L1097.3418,1061.4918 L1099.8071,1061.4918 L1099.8071,1063.65 L1092.4277,1063.65 L1092.4277,1061.4918 L1094.8931,1061.4918 L1094.8931,1053.4151 Z " fill="#000000"/><text fill="#000000" font-family="sans-serif" font-size="14" font-style="italic" lengthAdjust="spacing" textLength="151" x="1110.5" y="1062.941">TemplateFileRenderer</text><line style="stroke:#181818;stroke-width:0.5;" x1="1082.5" x2="1263.5" y1="1073.65" y2="1073.65"/><line style="stroke:#181818;stroke-width:0.5;" x1="1082.5" x2="1263.5" y1="1081.65" y2="1081.65"/><ellipse cx="1092.5" cy="1095.3941" fill="#84BE84" rx="3" ry="3" style="stroke:#038048;stroke-width:1.0;"/><text fill="#000000" font-family="sans-serif" font-size="14" lengthAdjust="spacing" textLength="118" x="1101.5" y="1099.1852">setBaseDir(): void</text><ellipse cx="1092.5" cy="1111.8824" fill="#84BE84" rx="3" ry="3" style="stroke:#038048;stroke-width:1.0;"/><text fill="#000000" font-family="sans-serif" font-size="14" lengthAdjust="spacing" textLength="104" x="1101.5" y="1115.6734">render(): string</text></g><!--class RenderOptions--><g id="elem_RenderOptions"><rect codeLine="62" fill="#F1F1F1" height="97.4648" id="RenderOptions" rx="2.5" ry="2.5" style="stroke:#181818;stroke-width:0.5;" width="251" x="878.5" y="1182.63"/><ellipse cx="948.25" cy="1198.63" fill="#B4A7E5" rx="11" ry="11" style="stroke:#181818;stroke-width:1.0;"/><path d="M944.1777,1194.3951 L944.1777,1192.2369 L951.5571,1192.2369 L951.5571,1194.3951 L949.0918,1194.3951 L949.0918,1202.4718 L951.5571,1202.4718 L951.5571,1204.63 L944.1777,1204.63 L944.1777,1202.4718 L946.6431,1202.4718 L946.6431,1194.3951 Z " fill="#000000"/><text fill="#000000" font-family="sans-serif" font-size="14" font-style="italic" lengthAdjust="spacing" textLength="103" x="968.75" y="1203.921">RenderOptions</text><line style="stroke:#181818;stroke-width:0.5;" x1="879.5" x2="1128.5" y1="1214.63" y2="1214.63"/><ellipse cx="889.5" cy="1228.3741" fill="none" rx="3" ry="3" style="stroke:#038048;stroke-width:1.0;"/><text fill="#000000" font-family="sans-serif" font-size="14" lengthAdjust="spacing" textLength="89" x="898.5" y="1232.1652">target: string</text><ellipse cx="889.5" cy="1244.8624" fill="none" rx="3" ry="3" style="stroke:#038048;stroke-width:1.0;"/><text fill="#000000" font-family="sans-serif" font-size="14" lengthAdjust="spacing" textLength="225" x="898.5" y="1248.6534">renderer?: TemplateFileRenderer</text><ellipse cx="889.5" cy="1261.3507" fill="none" rx="3" ry="3" style="stroke:#038048;stroke-width:1.0;"/><text fill="#000000" font-family="sans-serif" font-size="14" lengthAdjust="spacing" textLength="106" x="898.5" y="1265.1417">baseDir?: string</text><line style="stroke:#181818;stroke-width:0.5;" x1="879.5" x2="1128.5" y1="1272.0948" y2="1272.0948"/></g><!--class render--><g id="elem_render"><rect codeLine="67" fill="#F1F1F1" height="76.9766" id="render" rx="2.5" ry="2.5" style="stroke:#181818;stroke-width:0.5;" width="491" x="758.5" y="1340.09"/><ellipse cx="976.75" cy="1356.09" fill="#F1F1F1" rx="11" ry="11" style="stroke:#181818;stroke-width:1.0;"/><path d="M976.5435,1351.7555 L976.5435,1355.3913 L977.5479,1355.3913 Q978.7515,1355.3913 979.2371,1354.9845 Q979.7227,1354.5778 979.7227,1353.5734 Q979.7227,1352.569 979.2371,1352.1623 Q978.7515,1351.7555 977.5479,1351.7555 Z M974.0947,1349.6969 L977.4565,1349.6969 Q980.0215,1349.6969 981.1462,1350.61 Q982.271,1351.5231 982.271,1353.5734 Q982.271,1355.6237 981.1462,1356.5368 Q980.0215,1357.4499 977.4565,1357.4499 L976.5435,1357.4499 L976.5435,1362.09 L974.0947,1362.09 Z " fill="#000000"/><text fill="#000000" font-family="sans-serif" font-size="14" lengthAdjust="spacing" textLength="46" x="997.25" y="1361.381">render</text><line style="stroke:#181818;stroke-width:0.5;" x1="759.5" x2="1248.5" y1="1372.09" y2="1372.09"/><text fill="#000000" font-family="sans-serif" font-size="14" lengthAdjust="spacing" textLength="479" x="764.5" y="1410.1134">(template: BuiltInTemplate | string, options: RenderOptions) =&gt; string</text><line style="stroke:#181818;stroke-width:0.5;" x1="759.5" x2="974" y1="1388.3341" y2="1388.3341"/><text fill="#000000" font-family="sans-serif" font-size="14" lengthAdjust="spacing" textLength="60" x="974" y="1393.1252">Function</text><line style="stroke:#181818;stroke-width:0.5;" x1="1034" x2="1248.5" y1="1388.3341" y2="1388.3341"/></g><!--link ProjectViewOptionsBase to ProjectViewOptionsWithFiles--><g id="link_ProjectViewOptionsBase_ProjectViewOptionsWithFiles"><path codeLine="71" d="M1286.59,88.32 C1243.97,106.89 1198.8604,126.5331 1156.2004,145.1231 " fill="none" id="ProjectViewOptionsBase-to-ProjectViewOptionsWithFiles" style="stroke:#181818;stroke-width:1.0;stroke-dasharray:7.0,7.0;"/><polygon fill="#181818" points="1150.7,147.52,1160.5486,147.5916,1155.2837,145.5226,1157.3527,140.2577,1150.7,147.52" style="stroke:#181818;stroke-width:1.0;"/></g><!--link ProjectViewOptionsBase to ProjectViewOptionsWithTsConfigPath--><g id="link_ProjectViewOptionsBase_ProjectViewOptionsWithTsConfigPath"><path codeLine="72" d="M1378,88.32 C1378,109.81 1378,129.97 1378,150.02 " fill="none" id="ProjectViewOptionsBase-to-ProjectViewOptionsWithTsConfigPath" style="stroke:#181818;stroke-width:1.0;stroke-dasharray:7.0,7.0;"/><polygon fill="#181818" points="1378,156.02,1382,147.02,1378,151.02,1374,147.02,1378,156.02" style="stroke:#181818;stroke-width:1.0;"/></g><!--link ProjectViewOptionsBase to ProjectViewOptionsWithProgram--><g id="link_ProjectViewOptionsBase_ProjectViewOptionsWithProgram"><path codeLine="73" d="M1465.69,88.32 C1512.84,109.73 1564.7168,133.2993 1608.8068,153.3193 " fill="none" id="ProjectViewOptionsBase-to-ProjectViewOptionsWithProgram" style="stroke:#181818;stroke-width:1.0;stroke-dasharray:7.0,7.0;"/><polygon fill="#181818" points="1614.27,155.8,1607.729,148.4369,1609.7174,153.7328,1604.4215,155.7211,1614.27,155.8" style="stroke:#181818;stroke-width:1.0;"/></g><!--link ProjectViewOptionsWithFiles to ProjectViewOptions--><g id="link_ProjectViewOptionsWithFiles_ProjectViewOptions"><path codeLine="74" d="M1145.33,229.31 C1192.1,250.9 1244.1522,274.9157 1290.2822,296.2057 " fill="none" id="ProjectViewOptionsWithFiles-to-ProjectViewOptions" style="stroke:#181818;stroke-width:1.0;stroke-dasharray:7.0,7.0;"/><polygon fill="#181818" points="1295.73,298.72,1289.2345,291.3167,1291.1902,296.6248,1285.8821,298.5804,1295.73,298.72" style="stroke:#181818;stroke-width:1.0;"/></g><!--link ProjectViewOptionsWithTsConfigPath to ProjectViewOptions--><g id="link_ProjectViewOptionsWithTsConfigPath_ProjectViewOptions"><path codeLine="75" d="M1378,221.05 C1378,243.86 1378,268.77 1378,292.9 " fill="none" id="ProjectViewOptionsWithTsConfigPath-to-ProjectViewOptions" style="stroke:#181818;stroke-width:1.0;stroke-dasharray:7.0,7.0;"/><polygon fill="#181818" points="1378,298.9,1382,289.9,1378,293.9,1374,289.9,1378,298.9" style="stroke:#181818;stroke-width:1.0;"/></g><!--link ProjectViewOptionsWithProgram to ProjectViewOptions--><g id="link_ProjectViewOptionsWithProgram_ProjectViewOptions"><path codeLine="76" d="M1618.36,221.05 C1571.03,243.82 1512.3369,272.0591 1462.2369,296.1591 " fill="none" id="ProjectViewOptionsWithProgram-to-ProjectViewOptions" style="stroke:#181818;stroke-width:1.0;stroke-dasharray:7.0,7.0;"/><polygon fill="#181818" points="1456.83,298.76,1466.6744,298.4632,1461.3358,296.5925,1463.2065,291.2539,1456.83,298.76" style="stroke:#181818;stroke-width:1.0;"/></g><!--link ProjectViewOptions to ProjectView--><g id="link_ProjectViewOptions_ProjectView"><path codeLine="77" d="M1344.8,376.64 C1328.17,395.64 1310.7305,415.5741 1288.0905,441.4541 " fill="none" id="ProjectViewOptions-to-ProjectView" style="stroke:#181818;stroke-width:1.0;stroke-dasharray:7.0,7.0;"/><polygon fill="#181818" points="1284.14,445.97,1293.0764,441.8299,1287.4321,442.2068,1287.0552,436.5625,1284.14,445.97" style="stroke:#181818;stroke-width:1.0;"/></g><!--link ProjectFile to ProjectView--><g id="link_ProjectFile_ProjectView"><path codeLine="78" d="M946.92,386.81 C961.95,404.06 975.9182,420.0865 994.6882,441.6265 " fill="none" id="ProjectFile-to-ProjectView" style="stroke:#181818;stroke-width:1.0;stroke-dasharray:7.0,7.0;"/><polygon fill="#181818" points="998.63,446.15,995.733,436.7369,995.3452,442.3804,989.7016,441.9926,998.63,446.15" style="stroke:#181818;stroke-width:1.0;"/></g><!--link ProjectGraphOptions to ProjectGraph--><g id="link_ProjectGraphOptions_ProjectGraph"><path codeLine="79" d="M524,651.44 C524,698.17 524,770.54 524,828.24 " fill="none" id="ProjectGraphOptions-to-ProjectGraph" style="stroke:#181818;stroke-width:1.0;stroke-dasharray:7.0,7.0;"/><polygon fill="#181818" points="524,834.24,528,825.24,524,829.24,520,825.24,524,834.24" style="stroke:#181818;stroke-width:1.0;"/></g><!--link ProjectView to ProjectGraph--><g id="link_ProjectView_ProjectGraph"><path codeLine="80" d="M799.57,775.16 C756.42,795.83 719.5514,813.4983 681.5714,831.6883 " fill="none" id="ProjectView-to-ProjectGraph" style="stroke:#181818;stroke-width:1.0;"/><polygon fill="#181818" points="676.16,834.28,686.0049,834,680.6695,832.1202,682.5493,826.7849,676.16,834.28" style="stroke:#181818;stroke-width:1.0;"/></g><!--link ProjectView to TemplateContext--><g id="link_ProjectView_TemplateContext"><path codeLine="81" d="M1158.68,774.94 C1162.85,813.4 1166.2144,844.4748 1168.9244,869.5148 " fill="none" id="ProjectView-to-TemplateContext" style="stroke:#181818;stroke-width:1.0;"/><polygon fill="#181818" points="1169.57,875.48,1172.5784,866.1019,1169.032,870.509,1164.6248,866.9626,1169.57,875.48" style="stroke:#181818;stroke-width:1.0;"/></g><!--link TemplateContext to TemplateFileRenderer--><g id="link_TemplateContext_TemplateFileRenderer"><path codeLine="82" d="M1173,940.73 C1173,969.04 1173,1004.73 1173,1035.33 " fill="none" id="TemplateContext-to-TemplateFileRenderer" style="stroke:#181818;stroke-width:1.0;stroke-dasharray:7.0,7.0;"/><polygon fill="#181818" points="1173,1041.33,1177,1032.33,1173,1036.33,1169,1032.33,1173,1041.33" style="stroke:#181818;stroke-width:1.0;"/></g><!--link TemplateContext to RenderOptions--><g id="link_TemplateContext_RenderOptions"><path codeLine="83" d="M1140.93,940.91 C1116.86,966.26 1084.63,1003.72 1064,1041.65 C1039.61,1086.5 1024.7085,1136.9729 1015.3385,1176.3629 " fill="none" id="TemplateContext-to-RenderOptions" style="stroke:#181818;stroke-width:1.0;stroke-dasharray:7.0,7.0;"/><polygon fill="#181818" points="1013.95,1182.2,1019.9242,1174.37,1015.1071,1177.3357,1012.1414,1172.5186,1013.95,1182.2" style="stroke:#181818;stroke-width:1.0;"/></g><!--link TemplateFileRenderer to RenderOptions--><g id="link_TemplateFileRenderer_RenderOptions"><path codeLine="84" d="M1127.27,1122.98 C1106.25,1141.29 1085.675,1159.2199 1063.625,1178.4199 " fill="none" id="TemplateFileRenderer-to-RenderOptions" style="stroke:#181818;stroke-width:1.0;stroke-dasharray:7.0,7.0;"/><polygon fill="#181818" points="1059.1,1182.36,1068.5142,1179.4665,1062.8708,1179.0766,1063.2607,1173.4332,1059.1,1182.36" style="stroke:#181818;stroke-width:1.0;"/></g><!--link RenderOptions to render--><g id="link_RenderOptions_render"><path codeLine="85" d="M1004,1280.31 C1004,1299.65 1004,1315.62 1004,1333.79 " fill="none" id="RenderOptions-to-render" style="stroke:#181818;stroke-width:1.0;stroke-dasharray:7.0,7.0;"/><polygon fill="#181818" points="1004,1339.79,1008,1330.79,1004,1334.79,1000,1330.79,1004,1339.79" style="stroke:#181818;stroke-width:1.0;"/></g><!--link ProjectGraph to render--><g id="link_ProjectGraph_render"><path codeLine="86" d="M581.28,981.83 C644.98,1060.19 753.17,1186.32 861,1280.09 C885.94,1301.78 910.8246,1319.5519 936.8246,1336.5119 " fill="none" id="ProjectGraph-to-render" style="stroke:#181818;stroke-width:1.0;"/><polygon fill="#181818" points="941.85,1339.79,936.4974,1331.5226,937.6622,1337.0583,932.1266,1338.2231,941.85,1339.79" style="stroke:#181818;stroke-width:1.0;"/></g><!--link TemplateFileRenderer to render--><g id="link_TemplateFileRenderer_render"><path codeLine="87" d="M1176.85,1122.89 C1178.97,1165.05 1176.56,1232.07 1147,1280.09 C1131.88,1304.66 1113.0555,1321.2944 1089.0955,1336.5044 " fill="none" id="TemplateFileRenderer-to-render" style="stroke:#181818;stroke-width:1.0;stroke-dasharray:7.0,7.0;"/><polygon fill="#181818" points="1084.03,1339.72,1093.7721,1338.2736,1088.2513,1337.0403,1089.4845,1331.5195,1084.03,1339.72" style="stroke:#181818;stroke-width:1.0;"/></g><!--SRC=[jLRTRjem5BxdANmPr9K7O1sLO6MgffPgHTl5DA4GJi23E95jkYBAk-_u9uuDXiAaSP74v-yxFkVpCPH9u7cQ0NdYvM_8v92kW6nR17zNH9Hhda6NID5vrfzAQtMqg4ekHPVSwu-VlwoyW68A7EKF-WFbknRTH_bEuS-eahHaef-A1Z37-8Y1rhTTqa0QqP3jWJZB1s-fhKv3_g1oeSAA0FSnBG3J5f9JDdT8MLbKgEJMLTTY4ChEG1kBGSboEdzAvSA1IazOuvuH2wLpdXOkJ6NMEZEhUoUATPrCo7XJ0RxrybITtixPrzlfX36fR9KAuLlPJAx9H68cWmLaI-1w9-DcNPl4DcfLgd_O6u_3je6eEoIawxbKO8Ospo1lZ47FuqGqPepZHZu7-HagO3DWsSReH6ACQziFf3ILGTfkoGmgkS0ljbOwhE0QVNFAOFQHxDeQlA02RcgStY6G_CyuDlme_qhPB5dYeuPGWdQi1aRItwWJbJ1yrEnsrdu6ZP-gyIWt5dlRQGUDYBWlKX4uZlYZ1umEBiwqB5UGiWRsxbKDC9YvdIg8HBK_0FMs6a_VSZ9fnnXgz7KiaHZsYIDZhds4owhlbACOkoyEIzIGJy_0uBXzuMcrQCxRlvwAOtumcwlJSeSldmfgBOxtD33V2fbAckr8ZcnKqo5vmKVNdnSXgvS0bRi3R5j3RkV7RWWqEzXXz5YuqiLcgbQ4G_NgCiopBiqn5DKgbO2pLiAhz2T_NPYWIb5dHQHlYXqSZv-xu46g-nSvfLZxKjAQpbnRAc7aNZ9XzlSjKuuDTmv-75sEM2BMQcfokFNGS6-opCgLZT1SMSCronHmVMqbqiRjaluQotlFQY2ijmddMDCDKs-JJxq6CVxNfDFfdRWOBtNoxyjBVUk1SYATg6_h_LGkyRDfdEiIshMygHRN-4UgiJ0dq3E_lZwbsZimhRqrnesIyT0ie4ihvdHW5AnGQ_WRR0ypjD8Z4OtsBm00]--></g></svg>
