<?xml version="1.0" encoding="us-ascii" standalone="no"?><svg xmlns="http://www.w3.org/2000/svg" xmlns:xlink="http://www.w3.org/1999/xlink" contentStyleType="text/css" height="602px" preserveAspectRatio="none" style="width:1148px;height:602px;background:#FFFFFF;" version="1.1" viewBox="0 0 1148 602" width="1148px" zoomAndPan="magnify"><defs/><g><!--class Import--><g id="elem_Import"><rect codeLine="1" fill="#F1F1F1" height="48" id="Import" rx="2.5" ry="2.5" style="stroke:#181818;stroke-width:0.5;" width="78" x="378.5" y="223"/><ellipse cx="393.5" cy="239" fill="#B4A7E5" rx="11" ry="11" style="stroke:#181818;stroke-width:1.0;"/><path d="M389.4277,234.7651 L389.4277,232.6069 L396.8071,232.6069 L396.8071,234.7651 L394.3418,234.7651 L394.3418,242.8418 L396.8071,242.8418 L396.8071,245 L389.4277,245 L389.4277,242.8418 L391.8931,242.8418 L391.8931,234.7651 Z " fill="#000000"/><text fill="#000000" font-family="sans-serif" font-size="14" font-style="italic" lengthAdjust="spacing" textLength="46" x="407.5" y="244.291">Import</text><line style="stroke:#181818;stroke-width:0.5;" x1="379.5" x2="455.5" y1="255" y2="255"/><line style="stroke:#181818;stroke-width:0.5;" x1="379.5" x2="455.5" y1="263" y2="263"/></g><!--class Decorator--><g id="elem_Decorator"><rect codeLine="2" fill="#F1F1F1" height="48" id="Decorator" rx="2.5" ry="2.5" style="stroke:#181818;stroke-width:0.5;" width="100" x="510.5" y="115"/><ellipse cx="525.5" cy="131" fill="#B4A7E5" rx="11" ry="11" style="stroke:#181818;stroke-width:1.0;"/><path d="M521.4277,126.7651 L521.4277,124.6069 L528.8071,124.6069 L528.8071,126.7651 L526.3418,126.7651 L526.3418,134.8418 L528.8071,134.8418 L528.8071,137 L521.4277,137 L521.4277,134.8418 L523.8931,134.8418 L523.8931,126.7651 Z " fill="#000000"/><text fill="#000000" font-family="sans-serif" font-size="14" font-style="italic" lengthAdjust="spacing" textLength="68" x="539.5" y="136.291">Decorator</text><line style="stroke:#181818;stroke-width:0.5;" x1="511.5" x2="609.5" y1="147" y2="147"/><line style="stroke:#181818;stroke-width:0.5;" x1="511.5" x2="609.5" y1="155" y2="155"/></g><!--class Dependency--><g id="elem_Dependency"><rect codeLine="3" fill="#F1F1F1" height="48" id="Dependency" rx="2.5" ry="2.5" style="stroke:#181818;stroke-width:0.5;" width="116" x="28.5" y="115"/><ellipse cx="43.5" cy="131" fill="#B4A7E5" rx="11" ry="11" style="stroke:#181818;stroke-width:1.0;"/><path d="M39.4277,126.7651 L39.4277,124.6069 L46.8071,124.6069 L46.8071,126.7651 L44.3418,126.7651 L44.3418,134.8418 L46.8071,134.8418 L46.8071,137 L39.4277,137 L39.4277,134.8418 L41.8931,134.8418 L41.8931,126.7651 Z " fill="#000000"/><text fill="#000000" font-family="sans-serif" font-size="14" font-style="italic" lengthAdjust="spacing" textLength="84" x="57.5" y="136.291">Dependency</text><line style="stroke:#181818;stroke-width:0.5;" x1="29.5" x2="143.5" y1="147" y2="147"/><line style="stroke:#181818;stroke-width:0.5;" x1="29.5" x2="143.5" y1="155" y2="155"/></g><!--class DependencyOrigin--><g id="elem_DependencyOrigin"><rect codeLine="4" fill="#F1F1F1" height="48" id="DependencyOrigin" rx="2.5" ry="2.5" style="stroke:#181818;stroke-width:0.5;" width="159" x="7" y="7"/><ellipse cx="22" cy="23" fill="#EB937F" rx="11" ry="11" style="stroke:#181818;stroke-width:1.0;"/><path d="M26.1143,29 L18.3945,29 L18.3945,16.6069 L26.1143,16.6069 L26.1143,18.7651 L20.8433,18.7651 L20.8433,21.438 L25.6162,21.438 L25.6162,23.5962 L20.8433,23.5962 L20.8433,26.8418 L26.1143,26.8418 Z " fill="#000000"/><text fill="#000000" font-family="sans-serif" font-size="14" lengthAdjust="spacing" textLength="127" x="36" y="28.291">DependencyOrigin</text><line style="stroke:#181818;stroke-width:0.5;" x1="8" x2="165" y1="39" y2="39"/><line style="stroke:#181818;stroke-width:0.5;" x1="8" x2="165" y1="47" y2="47"/></g><!--class Member--><g id="elem_Member"><rect codeLine="5" fill="#F1F1F1" height="48" id="Member" rx="2.5" ry="2.5" style="stroke:#181818;stroke-width:0.5;" width="88" x="516.5" y="223"/><ellipse cx="531.5" cy="239" fill="#B4A7E5" rx="11" ry="11" style="stroke:#181818;stroke-width:1.0;"/><path d="M527.4277,234.7651 L527.4277,232.6069 L534.8071,232.6069 L534.8071,234.7651 L532.3418,234.7651 L532.3418,242.8418 L534.8071,242.8418 L534.8071,245 L527.4277,245 L527.4277,242.8418 L529.8931,242.8418 L529.8931,234.7651 Z " fill="#000000"/><text fill="#000000" font-family="sans-serif" font-size="14" font-style="italic" lengthAdjust="spacing" textLength="56" x="545.5" y="244.291">Member</text><line style="stroke:#181818;stroke-width:0.5;" x1="517.5" x2="603.5" y1="255" y2="255"/><line style="stroke:#181818;stroke-width:0.5;" x1="517.5" x2="603.5" y1="263" y2="263"/></g><!--class MemberType--><g id="elem_MemberType"><rect codeLine="6" fill="#F1F1F1" height="48" id="MemberType" rx="2.5" ry="2.5" style="stroke:#181818;stroke-width:0.5;" width="121" x="296" y="115"/><ellipse cx="311" cy="131" fill="#EB937F" rx="11" ry="11" style="stroke:#181818;stroke-width:1.0;"/><path d="M315.1143,137 L307.3945,137 L307.3945,124.6069 L315.1143,124.6069 L315.1143,126.7651 L309.8433,126.7651 L309.8433,129.438 L314.6162,129.438 L314.6162,131.5962 L309.8433,131.5962 L309.8433,134.8418 L315.1143,134.8418 Z " fill="#000000"/><text fill="#000000" font-family="sans-serif" font-size="14" lengthAdjust="spacing" textLength="89" x="325" y="136.291">MemberType</text><line style="stroke:#181818;stroke-width:0.5;" x1="297" x2="416" y1="147" y2="147"/><line style="stroke:#181818;stroke-width:0.5;" x1="297" x2="416" y1="155" y2="155"/></g><!--class ProjectFile--><g id="elem_ProjectFile"><rect codeLine="7" fill="#F1F1F1" height="48" id="ProjectFile" rx="2.5" ry="2.5" style="stroke:#181818;stroke-width:0.5;" width="103" x="366" y="331"/><ellipse cx="381" cy="347" fill="#B4A7E5" rx="11" ry="11" style="stroke:#181818;stroke-width:1.0;"/><path d="M376.9277,342.7651 L376.9277,340.6069 L384.3071,340.6069 L384.3071,342.7651 L381.8418,342.7651 L381.8418,350.8418 L384.3071,350.8418 L384.3071,353 L376.9277,353 L376.9277,350.8418 L379.3931,350.8418 L379.3931,342.7651 Z " fill="#000000"/><text fill="#000000" font-family="sans-serif" font-size="14" font-style="italic" lengthAdjust="spacing" textLength="71" x="395" y="352.291">ProjectFile</text><line style="stroke:#181818;stroke-width:0.5;" x1="367" x2="468" y1="363" y2="363"/><line style="stroke:#181818;stroke-width:0.5;" x1="367" x2="468" y1="371" y2="371"/></g><!--class FilterSet--><g id="elem_FilterSet"><rect codeLine="8" fill="#F1F1F1" height="48" id="FilterSet" rx="2.5" ry="2.5" style="stroke:#181818;stroke-width:0.5;" width="88" x="795.5" y="223"/><ellipse cx="810.5" cy="239" fill="#ADD1B2" rx="11" ry="11" style="stroke:#181818;stroke-width:1.0;"/><path d="M813.4731,244.6431 Q812.8921,244.9419 812.2529,245.0913 Q811.6138,245.2407 810.9082,245.2407 Q808.4014,245.2407 807.0815,243.5889 Q805.7617,241.937 805.7617,238.8159 Q805.7617,235.6865 807.0815,234.0347 Q808.4014,232.3828 810.9082,232.3828 Q811.6138,232.3828 812.2612,232.5322 Q812.9087,232.6816 813.4731,232.9805 L813.4731,235.7031 Q812.8423,235.1221 812.2488,234.8523 Q811.6553,234.5825 811.0244,234.5825 Q809.6797,234.5825 808.9949,235.6492 Q808.3101,236.7158 808.3101,238.8159 Q808.3101,240.9077 808.9949,241.9744 Q809.6797,243.041 811.0244,243.041 Q811.6553,243.041 812.2488,242.7712 Q812.8423,242.5015 813.4731,241.9204 Z " fill="#000000"/><text fill="#000000" font-family="sans-serif" font-size="14" lengthAdjust="spacing" textLength="56" x="824.5" y="244.291">FilterSet</text><line style="stroke:#181818;stroke-width:0.5;" x1="796.5" x2="882.5" y1="255" y2="255"/><line style="stroke:#181818;stroke-width:0.5;" x1="796.5" x2="882.5" y1="263" y2="263"/></g><!--class Predicate--><g id="elem_Predicate"><rect codeLine="9" fill="#F1F1F1" height="48" id="Predicate" rx="2.5" ry="2.5" style="stroke:#181818;stroke-width:0.5;" width="95" x="669" y="115"/><ellipse cx="684" cy="131" fill="#B4A7E5" rx="11" ry="11" style="stroke:#181818;stroke-width:1.0;"/><path d="M679.9277,126.7651 L679.9277,124.6069 L687.3071,124.6069 L687.3071,126.7651 L684.8418,126.7651 L684.8418,134.8418 L687.3071,134.8418 L687.3071,137 L679.9277,137 L679.9277,134.8418 L682.3931,134.8418 L682.3931,126.7651 Z " fill="#000000"/><text fill="#000000" font-family="sans-serif" font-size="14" font-style="italic" lengthAdjust="spacing" textLength="63" x="698" y="136.291">Predicate</text><line style="stroke:#181818;stroke-width:0.5;" x1="670" x2="763" y1="147" y2="147"/><line style="stroke:#181818;stroke-width:0.5;" x1="670" x2="763" y1="155" y2="155"/></g><!--class SourceFileFilterFn--><g id="elem_SourceFileFilterFn"><rect codeLine="10" fill="#F1F1F1" height="48" id="SourceFileFilterFn" rx="2.5" ry="2.5" style="stroke:#181818;stroke-width:0.5;" width="155" x="176" y="331"/><ellipse cx="191" cy="347" fill="#B4A7E5" rx="11" ry="11" style="stroke:#181818;stroke-width:1.0;"/><path d="M186.9277,342.7651 L186.9277,340.6069 L194.3071,340.6069 L194.3071,342.7651 L191.8418,342.7651 L191.8418,350.8418 L194.3071,350.8418 L194.3071,353 L186.9277,353 L186.9277,350.8418 L189.3931,350.8418 L189.3931,342.7651 Z " fill="#000000"/><text fill="#000000" font-family="sans-serif" font-size="14" font-style="italic" lengthAdjust="spacing" textLength="123" x="205" y="352.291">SourceFileFilterFn</text><line style="stroke:#181818;stroke-width:0.5;" x1="177" x2="330" y1="363" y2="363"/><line style="stroke:#181818;stroke-width:0.5;" x1="177" x2="330" y1="371" y2="371"/></g><!--class MemberFilterFn--><g id="elem_MemberFilterFn"><rect codeLine="11" fill="#F1F1F1" height="48" id="MemberFilterFn" rx="2.5" ry="2.5" style="stroke:#181818;stroke-width:0.5;" width="140" x="646.5" y="331"/><ellipse cx="661.5" cy="347" fill="#B4A7E5" rx="11" ry="11" style="stroke:#181818;stroke-width:1.0;"/><path d="M657.4277,342.7651 L657.4277,340.6069 L664.8071,340.6069 L664.8071,342.7651 L662.3418,342.7651 L662.3418,350.8418 L664.8071,350.8418 L664.8071,353 L657.4277,353 L657.4277,350.8418 L659.8931,350.8418 L659.8931,342.7651 Z " fill="#000000"/><text fill="#000000" font-family="sans-serif" font-size="14" font-style="italic" lengthAdjust="spacing" textLength="108" x="675.5" y="352.291">MemberFilterFn</text><line style="stroke:#181818;stroke-width:0.5;" x1="647.5" x2="785.5" y1="363" y2="363"/><line style="stroke:#181818;stroke-width:0.5;" x1="647.5" x2="785.5" y1="371" y2="371"/></g><!--class ProjectView--><g id="elem_ProjectView"><rect codeLine="12" fill="#F1F1F1" height="48" id="ProjectView" rx="2.5" ry="2.5" style="stroke:#181818;stroke-width:0.5;" width="111" x="280" y="439"/><ellipse cx="295" cy="455" fill="#ADD1B2" rx="11" ry="11" style="stroke:#181818;stroke-width:1.0;"/><path d="M297.9731,460.6431 Q297.3921,460.9419 296.7529,461.0913 Q296.1138,461.2407 295.4082,461.2407 Q292.9014,461.2407 291.5815,459.5889 Q290.2617,457.937 290.2617,454.8159 Q290.2617,451.6865 291.5815,450.0347 Q292.9014,448.3828 295.4082,448.3828 Q296.1138,448.3828 296.7612,448.5322 Q297.4087,448.6816 297.9731,448.9805 L297.9731,451.7031 Q297.3423,451.1221 296.7488,450.8523 Q296.1553,450.5825 295.5244,450.5825 Q294.1797,450.5825 293.4949,451.6492 Q292.8101,452.7158 292.8101,454.8159 Q292.8101,456.9077 293.4949,457.9744 Q294.1797,459.041 295.5244,459.041 Q296.1553,459.041 296.7488,458.7712 Q297.3423,458.5015 297.9731,457.9204 Z " fill="#000000"/><text fill="#000000" font-family="sans-serif" font-size="14" lengthAdjust="spacing" textLength="79" x="309" y="460.291">ProjectView</text><line style="stroke:#181818;stroke-width:0.5;" x1="281" x2="390" y1="471" y2="471"/><line style="stroke:#181818;stroke-width:0.5;" x1="281" x2="390" y1="479" y2="479"/></g><!--class Diagram--><g id="elem_Diagram"><rect codeLine="13" fill="#F1F1F1" height="48" id="Diagram" rx="2.5" ry="2.5" style="stroke:#181818;stroke-width:0.5;" width="90" x="892.5" y="331"/><ellipse cx="907.5" cy="347" fill="#A9DCDF" rx="11" ry="11" style="stroke:#181818;stroke-width:1.0;"/><path d="M907.6133,342.3481 L906.4595,347.4199 L908.7754,347.4199 Z M906.1191,340.1069 L909.1157,340.1069 L912.4609,352.5 L910.0122,352.5 L909.2485,349.437 L905.9697,349.437 L905.2227,352.5 L902.7739,352.5 Z " fill="#000000"/><text fill="#000000" font-family="sans-serif" font-size="14" font-style="italic" lengthAdjust="spacing" textLength="58" x="921.5" y="352.291">Diagram</text><line style="stroke:#181818;stroke-width:0.5;" x1="893.5" x2="981.5" y1="363" y2="363"/><line style="stroke:#181818;stroke-width:0.5;" x1="893.5" x2="981.5" y1="371" y2="371"/></g><!--class RelationDiagram--><g id="elem_RelationDiagram"><rect codeLine="14" fill="#F1F1F1" height="48" id="RelationDiagram" rx="2.5" ry="2.5" style="stroke:#181818;stroke-width:0.5;" width="146" x="864.5" y="439"/><ellipse cx="879.5" cy="455" fill="#A9DCDF" rx="11" ry="11" style="stroke:#181818;stroke-width:1.0;"/><path d="M879.6133,450.3481 L878.4595,455.4199 L880.7754,455.4199 Z M878.1191,448.1069 L881.1157,448.1069 L884.4609,460.5 L882.0122,460.5 L881.2485,457.437 L877.9697,457.437 L877.2227,460.5 L874.7739,460.5 Z " fill="#000000"/><text fill="#000000" font-family="sans-serif" font-size="14" font-style="italic" lengthAdjust="spacing" textLength="114" x="893.5" y="460.291">RelationDiagram</text><line style="stroke:#181818;stroke-width:0.5;" x1="865.5" x2="1009.5" y1="471" y2="471"/><line style="stroke:#181818;stroke-width:0.5;" x1="865.5" x2="1009.5" y1="479" y2="479"/></g><!--class RelationEdge--><g id="elem_RelationEdge"><rect codeLine="15" fill="#F1F1F1" height="48" id="RelationEdge" rx="2.5" ry="2.5" style="stroke:#181818;stroke-width:0.5;" width="122" x="1017.5" y="331"/><ellipse cx="1032.5" cy="347" fill="#B4A7E5" rx="11" ry="11" style="stroke:#181818;stroke-width:1.0;"/><path d="M1028.4277,342.7651 L1028.4277,340.6069 L1035.8071,340.6069 L1035.8071,342.7651 L1033.3418,342.7651 L1033.3418,350.8418 L1035.8071,350.8418 L1035.8071,353 L1028.4277,353 L1028.4277,350.8418 L1030.8931,350.8418 L1030.8931,342.7651 Z " fill="#000000"/><text fill="#000000" font-family="sans-serif" font-size="14" font-style="italic" lengthAdjust="spacing" textLength="90" x="1046.5" y="352.291">RelationEdge</text><line style="stroke:#181818;stroke-width:0.5;" x1="1018.5" x2="1138.5" y1="363" y2="363"/><line style="stroke:#181818;stroke-width:0.5;" x1="1018.5" x2="1138.5" y1="371" y2="371"/></g><!--class RelationType--><g id="elem_RelationType"><rect codeLine="16" fill="#F1F1F1" height="48" id="RelationType" rx="2.5" ry="2.5" style="stroke:#181818;stroke-width:0.5;" width="121" x="1018" y="223"/><ellipse cx="1033" cy="239" fill="#EB937F" rx="11" ry="11" style="stroke:#181818;stroke-width:1.0;"/><path d="M1037.1143,245 L1029.3945,245 L1029.3945,232.6069 L1037.1143,232.6069 L1037.1143,234.7651 L1031.8433,234.7651 L1031.8433,237.438 L1036.6162,237.438 L1036.6162,239.5962 L1031.8433,239.5962 L1031.8433,242.8418 L1037.1143,242.8418 Z " fill="#000000"/><text fill="#000000" font-family="sans-serif" font-size="14" lengthAdjust="spacing" textLength="89" x="1047" y="244.291">RelationType</text><line style="stroke:#181818;stroke-width:0.5;" x1="1019" x2="1138" y1="255" y2="255"/><line style="stroke:#181818;stroke-width:0.5;" x1="1019" x2="1138" y1="263" y2="263"/></g><!--class PlantUMLClassDiagram--><g id="elem_PlantUMLClassDiagram"><rect codeLine="17" fill="#F1F1F1" height="48" id="PlantUMLClassDiagram" rx="2.5" ry="2.5" style="stroke:#181818;stroke-width:0.5;" width="189" x="732" y="547"/><ellipse cx="747" cy="563" fill="#ADD1B2" rx="11" ry="11" style="stroke:#181818;stroke-width:1.0;"/><path d="M749.9731,568.6431 Q749.3921,568.9419 748.7529,569.0913 Q748.1138,569.2407 747.4082,569.2407 Q744.9014,569.2407 743.5815,567.5889 Q742.2617,565.937 742.2617,562.8159 Q742.2617,559.6865 743.5815,558.0347 Q744.9014,556.3828 747.4082,556.3828 Q748.1138,556.3828 748.7612,556.5322 Q749.4087,556.6816 749.9731,556.9805 L749.9731,559.7031 Q749.3423,559.1221 748.7488,558.8523 Q748.1553,558.5825 747.5244,558.5825 Q746.1797,558.5825 745.4949,559.6492 Q744.8101,560.7158 744.8101,562.8159 Q744.8101,564.9077 745.4949,565.9744 Q746.1797,567.041 747.5244,567.041 Q748.1553,567.041 748.7488,566.7712 Q749.3423,566.5015 749.9731,565.9204 Z " fill="#000000"/><text fill="#000000" font-family="sans-serif" font-size="14" lengthAdjust="spacing" textLength="157" x="761" y="568.291">PlantUMLClassDiagram</text><line style="stroke:#181818;stroke-width:0.5;" x1="733" x2="920" y1="579" y2="579"/><line style="stroke:#181818;stroke-width:0.5;" x1="733" x2="920" y1="587" y2="587"/></g><!--class MermaidClassDiagram--><g id="elem_MermaidClassDiagram"><rect codeLine="18" fill="#F1F1F1" height="48" id="MermaidClassDiagram" rx="2.5" ry="2.5" style="stroke:#181818;stroke-width:0.5;" width="186" x="955.5" y="547"/><ellipse cx="970.5" cy="563" fill="#ADD1B2" rx="11" ry="11" style="stroke:#181818;stroke-width:1.0;"/><path d="M973.4731,568.6431 Q972.8921,568.9419 972.2529,569.0913 Q971.6138,569.2407 970.9082,569.2407 Q968.4014,569.2407 967.0815,567.5889 Q965.7617,565.937 965.7617,562.8159 Q965.7617,559.6865 967.0815,558.0347 Q968.4014,556.3828 970.9082,556.3828 Q971.6138,556.3828 972.2612,556.5322 Q972.9087,556.6816 973.4731,556.9805 L973.4731,559.7031 Q972.8423,559.1221 972.2488,558.8523 Q971.6553,558.5825 971.0244,558.5825 Q969.6797,558.5825 968.9949,559.6492 Q968.3101,560.7158 968.3101,562.8159 Q968.3101,564.9077 968.9949,565.9744 Q969.6797,567.041 971.0244,567.041 Q971.6553,567.041 972.2488,566.7712 Q972.8423,566.5015 973.4731,565.9204 Z " fill="#000000"/><text fill="#000000" font-family="sans-serif" font-size="14" lengthAdjust="spacing" textLength="154" x="984.5" y="568.291">MermaidClassDiagram</text><line style="stroke:#181818;stroke-width:0.5;" x1="956.5" x2="1140.5" y1="579" y2="579"/><line style="stroke:#181818;stroke-width:0.5;" x1="956.5" x2="1140.5" y1="587" y2="587"/></g><!--class Comment--><g id="elem_Comment"><rect codeLine="19" fill="#F1F1F1" height="48" id="Comment" rx="2.5" ry="2.5" style="stroke:#181818;stroke-width:0.5;" width="99" x="201" y="7"/><ellipse cx="216" cy="23" fill="#B4A7E5" rx="11" ry="11" style="stroke:#181818;stroke-width:1.0;"/><path d="M211.9277,18.7651 L211.9277,16.6069 L219.3071,16.6069 L219.3071,18.7651 L216.8418,18.7651 L216.8418,26.8418 L219.3071,26.8418 L219.3071,29 L211.9277,29 L211.9277,26.8418 L214.3931,26.8418 L214.3931,18.7651 Z " fill="#000000"/><text fill="#000000" font-family="sans-serif" font-size="14" font-style="italic" lengthAdjust="spacing" textLength="67" x="230" y="28.291">Comment</text><line style="stroke:#181818;stroke-width:0.5;" x1="202" x2="299" y1="39" y2="39"/><line style="stroke:#181818;stroke-width:0.5;" x1="202" x2="299" y1="47" y2="47"/></g><!--link DependencyOrigin to Dependency--><g id="link_DependencyOrigin_Dependency"><path codeLine="20" d="M86.5,55.26 C86.5,72.94 86.5,91.13 86.5,108.79 " fill="none" id="DependencyOrigin-to-Dependency" style="stroke:#181818;stroke-width:1.0;stroke-dasharray:7.0,7.0;"/><polygon fill="#181818" points="86.5,114.79,90.5,105.79,86.5,109.79,82.5,105.79,86.5,114.79" style="stroke:#181818;stroke-width:1.0;"/></g><!--link Decorator to Member--><g id="link_Decorator_Member"><path codeLine="21" d="M560.5,163.26 C560.5,180.94 560.5,199.13 560.5,216.79 " fill="none" id="Decorator-to-Member" style="stroke:#181818;stroke-width:1.0;stroke-dasharray:7.0,7.0;"/><polygon fill="#181818" points="560.5,222.79,564.5,213.79,560.5,217.79,556.5,213.79,560.5,222.79" style="stroke:#181818;stroke-width:1.0;"/></g><!--link Dependency to Member--><g id="link_Dependency_Member"><path codeLine="22" d="M144.72,151.59 C220.62,166.91 357.38,195.22 473.5,223 C487.48,226.34 496.8504,228.7222 510.5404,232.3522 " fill="none" id="Dependency-to-Member" style="stroke:#181818;stroke-width:1.0;stroke-dasharray:7.0,7.0;"/><polygon fill="#181818" points="516.34,233.89,508.6658,227.7169,511.507,232.6085,506.6154,235.4497,516.34,233.89" style="stroke:#181818;stroke-width:1.0;"/></g><!--link MemberType to Member--><g id="link_MemberType_Member"><path codeLine="23" d="M401.52,163.39 C435.67,181.14 477.0258,202.6236 510.9758,220.2636 " fill="none" id="MemberType-to-Member" style="stroke:#181818;stroke-width:1.0;stroke-dasharray:7.0,7.0;"/><polygon fill="#181818" points="516.3,223.03,510.158,215.331,511.8632,220.7247,506.4694,222.4299,516.3,223.03" style="stroke:#181818;stroke-width:1.0;"/></g><!--link Import to ProjectFile--><g id="link_Import_ProjectFile"><path codeLine="24" d="M417.5,271.26 C417.5,288.94 417.5,307.13 417.5,324.79 " fill="none" id="Import-to-ProjectFile" style="stroke:#181818;stroke-width:1.0;stroke-dasharray:7.0,7.0;"/><polygon fill="#181818" points="417.5,330.79,421.5,321.79,417.5,325.79,413.5,321.79,417.5,330.79" style="stroke:#181818;stroke-width:1.0;"/></g><!--link Member to ProjectFile--><g id="link_Member_ProjectFile"><path codeLine="25" d="M529.12,271.26 C505.28,288.94 477.4498,309.5566 453.6298,327.2166 " fill="none" id="Member-to-ProjectFile" style="stroke:#181818;stroke-width:1.0;stroke-dasharray:7.0,7.0;"/><polygon fill="#181818" points="448.81,330.79,458.422,328.6431,452.8265,327.8122,453.6575,322.2167,448.81,330.79" style="stroke:#181818;stroke-width:1.0;"/></g><!--link Predicate to FilterSet--><g id="link_Predicate_FilterSet"><path codeLine="26" d="M743.49,163.26 C764,180.94 787.5351,201.2128 808.0251,218.8728 " fill="none" id="Predicate-to-FilterSet" style="stroke:#181818;stroke-width:1.0;stroke-dasharray:7.0,7.0;"/><polygon fill="#181818" points="812.57,222.79,808.3641,213.8844,808.7826,219.5257,803.1412,219.9442,812.57,222.79" style="stroke:#181818;stroke-width:1.0;"/></g><!--link Predicate to SourceFileFilterFn--><g id="link_Predicate_SourceFileFilterFn"><path codeLine="27" d="M668.62,152.84 C655.63,156.23 641.54,159.83 628.5,163 C510.31,191.72 465.11,159.3 361.5,223 C317.81,249.86 286.6457,295.5488 269.2257,325.3788 " fill="none" id="Predicate-to-SourceFileFilterFn" style="stroke:#181818;stroke-width:1.0;stroke-dasharray:7.0,7.0;"/><polygon fill="#181818" points="266.2,330.56,274.1927,324.8053,268.7214,326.2423,267.2844,320.771,266.2,330.56" style="stroke:#181818;stroke-width:1.0;"/></g><!--link Predicate to MemberFilterFn--><g id="link_Predicate_MemberFilterFn"><path codeLine="28" d="M716.5,163.31 C716.5,204.47 716.5,283.58 716.5,324.72 " fill="none" id="Predicate-to-MemberFilterFn" style="stroke:#181818;stroke-width:1.0;stroke-dasharray:7.0,7.0;"/><polygon fill="#181818" points="716.5,330.72,720.5,321.72,716.5,325.72,712.5,321.72,716.5,330.72" style="stroke:#181818;stroke-width:1.0;"/></g><!--link Member to MemberFilterFn--><g id="link_Member_MemberFilterFn"><path codeLine="29" d="M594.73,271.26 C620.66,288.87 651.1467,309.5987 677.1167,327.2387 " fill="none" id="Member-to-MemberFilterFn" style="stroke:#181818;stroke-width:1.0;stroke-dasharray:7.0,7.0;"/><polygon fill="#181818" points="682.08,330.61,676.8826,322.2442,677.9439,327.8006,672.3875,328.8619,682.08,330.61" style="stroke:#181818;stroke-width:1.0;"/></g><!--link SourceFileFilterFn to ProjectView--><g id="link_SourceFileFilterFn_ProjectView"><path codeLine="30" d="M271.5,379.26 C285.17,396.94 300.219,416.3841 313.879,434.0441 " fill="none" id="SourceFileFilterFn-to-ProjectView" style="stroke:#181818;stroke-width:1.0;stroke-dasharray:7.0,7.0;"/><polygon fill="#181818" points="317.55,438.79,315.2075,429.2238,314.4909,434.8351,308.8796,434.1184,317.55,438.79" style="stroke:#181818;stroke-width:1.0;"/></g><!--link ProjectFile to ProjectView--><g id="link_ProjectFile_ProjectView"><path codeLine="31" d="M399.5,379.26 C385.83,396.94 370.781,416.3841 357.121,434.0441 " fill="none" id="ProjectFile-to-ProjectView" style="stroke:#181818;stroke-width:1.0;stroke-dasharray:7.0,7.0;"/><polygon fill="#181818" points="353.45,438.79,362.1204,434.1184,356.5091,434.8351,355.7925,429.2238,353.45,438.79" style="stroke:#181818;stroke-width:1.0;"/></g><!--link Member to ProjectView--><g id="link_Member_ProjectView"><path codeLine="32" d="M551.95,271.35 C540.61,299.7 518.27,347.6 486.5,379 C459.48,405.71 427.5712,423.8549 396.7612,437.8749 " fill="none" id="Member-to-ProjectView" style="stroke:#181818;stroke-width:1.0;stroke-dasharray:7.0,7.0;"/><polygon fill="#181818" points="391.3,440.36,401.1485,440.2731,395.851,438.2891,397.835,432.9916,391.3,440.36" style="stroke:#181818;stroke-width:1.0;"/></g><!--link FilterSet to ProjectView--><g id="link_FilterSet_ProjectView"><path codeLine="33" d="M840.12,271.46 C839.53,301.06 833.75,351.43 803.5,379 C743.81,433.4 507.7604,452.8005 397.1404,459.0705 " fill="none" id="FilterSet-to-ProjectView" style="stroke:#181818;stroke-width:1.0;"/><polygon fill="#181818" points="391.15,459.41,400.3619,462.8943,396.142,459.1271,399.9092,454.9071,391.15,459.41" style="stroke:#181818;stroke-width:1.0;"/></g><!--link MemberType to ProjectView--><g id="link_MemberType_ProjectView"><path codeLine="34" d="M317.74,163.23 C269.87,194.46 190.81,254.95 158.5,331 C150.16,350.64 147.06,361 158.5,379 C184.99,420.68 232.7236,440.3169 274.0236,450.7769 " fill="none" id="MemberType-to-ProjectView" style="stroke:#181818;stroke-width:1.0;stroke-dasharray:7.0,7.0;"/><polygon fill="#181818" points="279.84,452.25,272.0975,446.1628,274.993,451.0224,270.1334,453.9179,279.84,452.25" style="stroke:#181818;stroke-width:1.0;"/></g><!--link Dependency to ProjectView--><g id="link_Dependency_ProjectView"><path codeLine="35" d="M85.56,163.39 C84.94,209.97 90.01,315.3 143.5,379 C177.94,420.02 230.6041,439.895 274.0041,450.585 " fill="none" id="Dependency-to-ProjectView" style="stroke:#181818;stroke-width:1.0;stroke-dasharray:7.0,7.0;"/><polygon fill="#181818" points="279.83,452.02,272.0479,445.9836,274.9751,450.8242,270.1345,453.7514,279.83,452.02" style="stroke:#181818;stroke-width:1.0;"/></g><!--link Member to Diagram--><g id="link_Member_Diagram"><path codeLine="36" d="M604.86,260.47 C677.07,280.77 813.5141,319.1355 886.3641,339.6255 " fill="none" id="Member-to-Diagram" style="stroke:#181818;stroke-width:1.0;stroke-dasharray:7.0,7.0;"/><polygon fill="#181818" points="892.14,341.25,884.5592,334.9626,887.3268,339.8962,882.3931,342.6638,892.14,341.25" style="stroke:#181818;stroke-width:1.0;"/></g><!--link FilterSet to Diagram--><g id="link_FilterSet_Diagram"><path codeLine="37" d="M861.01,271.26 C877.35,288.94 895.6478,308.7235 911.9678,326.3835 " fill="none" id="FilterSet-to-Diagram" style="stroke:#181818;stroke-width:1.0;"/><polygon fill="#181818" points="916.04,330.79,912.8694,321.4654,912.6465,327.1179,906.9941,326.895,916.04,330.79" style="stroke:#181818;stroke-width:1.0;"/></g><!--link Diagram to RelationDiagram--><g id="link_Diagram_RelationDiagram"><path codeLine="38" d="M937.5,379.26 C937.5,396.94 937.5,403.13 937.5,420.79 " fill="none" id="Diagram-to-RelationDiagram" style="stroke:#181818;stroke-width:1.0;"/><polygon fill="none" points="937.5,438.79,943.5,420.79,931.5,420.79,937.5,438.79" style="stroke:#181818;stroke-width:1.0;"/></g><!--link Member to RelationDiagram--><g id="link_Member_RelationDiagram"><path codeLine="39" d="M566.53,271.37 C575.36,300.87 594.67,351.14 629.5,379 C696.97,432.96 790.6086,451.3946 858.1386,458.0146 " fill="none" id="Member-to-RelationDiagram" style="stroke:#181818;stroke-width:1.0;stroke-dasharray:7.0,7.0;"/><polygon fill="#181818" points="864.11,458.6,855.5432,453.741,859.1339,458.1122,854.7627,461.7029,864.11,458.6" style="stroke:#181818;stroke-width:1.0;"/></g><!--link RelationEdge to RelationDiagram--><g id="link_RelationEdge_RelationDiagram"><path codeLine="40" d="M1047.56,379.26 C1024.05,396.94 996.6558,417.5244 973.1658,435.1844 " fill="none" id="RelationEdge-to-RelationDiagram" style="stroke:#181818;stroke-width:1.0;stroke-dasharray:7.0,7.0;"/><polygon fill="#181818" points="968.37,438.79,977.9674,436.5789,972.3665,435.7854,973.16,430.1845,968.37,438.79" style="stroke:#181818;stroke-width:1.0;"/></g><!--link RelationType to RelationEdge--><g id="link_RelationType_RelationEdge"><path codeLine="41" d="M1078.5,271.26 C1078.5,288.94 1078.5,307.13 1078.5,324.79 " fill="none" id="RelationType-to-RelationEdge" style="stroke:#181818;stroke-width:1.0;stroke-dasharray:7.0,7.0;"/><polygon fill="#181818" points="1078.5,330.79,1082.5,321.79,1078.5,325.79,1074.5,321.79,1078.5,330.79" style="stroke:#181818;stroke-width:1.0;"/></g><!--link Member to RelationEdge--><g id="link_Member_RelationEdge"><path codeLine="42" d="M604.84,254.85 C684.55,267.51 857.1,296.43 1000.5,331 C1005.99,332.32 1005.8798,332.2273 1011.5498,333.7673 " fill="none" id="Member-to-RelationEdge" style="stroke:#181818;stroke-width:1.0;stroke-dasharray:7.0,7.0;"/><polygon fill="#181818" points="1017.34,335.34,1009.7031,329.1209,1012.5148,334.0295,1007.6062,336.8412,1017.34,335.34" style="stroke:#181818;stroke-width:1.0;"/></g><!--link RelationDiagram to PlantUMLClassDiagram--><g id="link_RelationDiagram_PlantUMLClassDiagram"><path codeLine="43" d="M913.14,487.26 C894.63,504.94 882.3201,516.7011 863.8201,534.3611 " fill="none" id="RelationDiagram-to-PlantUMLClassDiagram" style="stroke:#181818;stroke-width:1.0;"/><polygon fill="none" points="850.8,546.79,867.963,538.7011,859.6771,530.0211,850.8,546.79" style="stroke:#181818;stroke-width:1.0;"/></g><!--link RelationDiagram to MermaidClassDiagram--><g id="link_RelationDiagram_MermaidClassDiagram"><path codeLine="44" d="M961.86,487.26 C980.37,504.94 992.6799,516.7011 1011.1799,534.3611 " fill="none" id="RelationDiagram-to-MermaidClassDiagram" style="stroke:#181818;stroke-width:1.0;"/><polygon fill="none" points="1024.2,546.79,1015.3229,530.0211,1007.037,538.7011,1024.2,546.79" style="stroke:#181818;stroke-width:1.0;"/></g><!--SRC=[VPBTJiCm38Nl-nHzWUqHThCn2OaAn81xBpLJK9DKRYOqYOUdIvhK-O6hfkTpRCV7KbkaJn3OFghHa6ra50ue384rb6WZwXwrk3MehuhzFvEyICr2ErHd91_cps-t4Ld02val5FOe1sp40DFKpiSPdj0cKTXB0PRVF9ah2RnVz3UEPTq8VEQbreV4xmREaoKGjlNe8E52e7Bv5GUmqkY0rmA1FFGNzCyBYdlWKd00RT-xf_tzB-Jmg4DI8Fk4hDdtHYdKjiadsswtEpx-w8u3ox1NpjLr-bprVZk5E-5f8KSR75cDIlMACMb0PWuhbf4o4s_9-SZQArZv2YV7ljlDfdOXpeYZRAX_b0bEfYM2kdndxMTNh1RBaYE-Q_y6nCwJxQnaTdgMnRTLNTbgP6M3Vm40]--></g></svg>
